SplineFontDB: 3.2
FontName: looney-tunes-solid
FullName: Looney Tunes Solid
FamilyName: LooneyTunes
Weight: Book
Copyright: Copyright 1990-1993 Bitstream Inc.  All rights reserved.
Version: mfgpctt-v1.59 Tuesday, March 9, 1993 11:58:56 am (EST)
ItalicAngle: 0
UnderlinePosition: -296
UnderlineWidth: 143
Ascent: 1638
Descent: 410
InvalidEm: 0
sfntRevision: 0x00010001
LayerCount: 2
Layer: 0 1 "Back" 1
Layer: 1 1 "Fore" 0
XUID: [1021 983 -1631068284 3958934]
StyleMap: 0x0000
FSType: 0
OS2Version: 0
OS2_WeightWidthSlopeOnly: 0
OS2_UseTypoMetrics: 0
CreationTime: 1017743211
ModificationTime: 1666342588
PfmFamily: 17
TTFWeight: 400
TTFWidth: 5
LineGap: 141
VLineGap: 0
Panose: 2 0 5 5 2 0 0 2 0 4
OS2TypoAscent: 1481
OS2TypoAOffset: 0
OS2TypoDescent: -350
OS2TypoDOffset: 0
OS2TypoLinegap: 141
OS2WinAscent: 1978
OS2WinAOffset: 0
OS2WinDescent: 592
OS2WinDOffset: 0
HheadAscent: 1481
HheadAOffset: 0
HheadDescent: -350
HheadDOffset: 0
OS2SubXSize: 1351
OS2SubYSize: 1228
OS2SubXOff: 0
OS2SubYOff: 391
OS2SupXSize: 1351
OS2SupYSize: 1228
OS2SupXOff: 0
OS2SupYOff: 520
OS2StrikeYSize: 102
OS2StrikeYPos: 512
OS2Vendor: 'BITS'
OS2UnicodeRanges: 80000003.00000000.00000000.00000000
MarkAttachClasses: 1
DEI: 91125
ShortTable: maxp 16
  1
  0
  269
  240
  18
  0
  0
  2
  0
  0
  0
  0
  0
  0
  0
  1
EndShort
LangName: 1033 "" "" "Regular" "" "" "mfgpctt-v1.59 Tuesday, March 9, 1993 11:58:56 am (EST)"
GaspTable: 3 8 2 16 1 65535 3 0
Encoding: UnicodeBmp
UnicodeInterp: none
NameList: AGL For New Fonts
DisplaySize: -48
AntiAlias: 1
FitToEm: 0
WinInfo: 48 16 4
BeginPrivate: 0
EndPrivate
BeginChars: 65537 269

StartChar: exclam
Encoding: 33 33 2
Width: 917
Flags: W
LayerCount: 2
Fore
SplineSet
339 1249 m 1,0,-1
 296 1290 l 1,1,-1
 545 1290 l 1,2,-1
 492 639 l 1,3,-1
 453 682 l 1,4,-1
 500 1249 l 1,5,-1
 339 1249 l 1,0,-1
370 218 m 1,6,-1
 331 259 l 1,7,-1
 510 259 l 1,8,-1
 510 127 l 1,9,-1
 469 169 l 1,10,-1
 469 218 l 1,11,-1
 370 218 l 1,6,-1
243 331 m 1,12,-1
 243 43 l 1,13,-1
 596 43 l 1,14,-1
 596 331 l 1,15,-1
 243 331 l 1,12,-1
200 1375 m 1,16,-1
 269 573 l 1,17,-1
 571 573 l 1,18,-1
 639 1375 l 1,19,-1
 200 1375 l 1,16,-1
641 255 m 1,20,-1
 717 255 l 1,21,-1
 717 -119 l 1,22,-1
 275 -119 l 1,23,-1
 275 0 l 1,24,-1
 200 0 l 1,25,-1
 200 374 l 1,26,-1
 641 374 l 1,27,-1
 641 255 l 1,20,-1
676 1301 m 1,28,-1
 761 1301 l 1,29,-1
 686 413 l 1,30,-1
 306 413 l 1,31,-1
 296 530 l 1,32,-1
 228 530 l 1,33,-1
 153 1416 l 1,34,-1
 686 1416 l 1,35,-1
 676 1301 l 1,28,-1
EndSplineSet
Validated: 1
EndChar

StartChar: quotedbl
Encoding: 34 34 3
Width: 641
Flags: W
LayerCount: 2
Fore
SplineSet
394 1431 m 1,0,-1
 557 1431 l 1,1,-1
 557 876 l 1,2,-1
 394 876 l 1,3,-1
 394 1431 l 1,0,-1
86 1431 m 1,4,-1
 249 1431 l 1,5,-1
 249 876 l 1,6,-1
 86 876 l 1,7,-1
 86 1431 l 1,4,-1
EndSplineSet
Validated: 1
EndChar

StartChar: numbersign
Encoding: 35 35 4
Width: 1570
Flags: W
LayerCount: 2
Fore
SplineSet
707 849 m 1,0,-1
 616 596 l 1,1,-1
 871 596 l 1,2,-1
 962 849 l 1,3,-1
 707 849 l 1,0,-1
732 1455 m 1,4,-1
 923 1455 l 1,5,-1
 769 1020 l 1,6,-1
 1019 1020 l 1,7,-1
 1174 1455 l 1,8,-1
 1363 1455 l 1,9,-1
 1210 1020 l 1,10,-1
 1500 1020 l 1,11,-1
 1441 849 l 1,12,-1
 1149 849 l 1,13,-1
 1059 598 l 1,14,-1
 1367 598 l 1,15,-1
 1307 427 l 1,16,-1
 1001 427 l 1,17,-1
 845 -6 l 1,18,-1
 655 -6 l 1,19,-1
 810 427 l 1,20,-1
 559 427 l 1,21,-1
 402 -6 l 1,22,-1
 212 -6 l 1,23,-1
 368 427 l 1,24,-1
 70 427 l 1,25,-1
 131 598 l 1,26,-1
 427 598 l 1,27,-1
 516 849 l 1,28,-1
 202 849 l 1,29,-1
 263 1020 l 1,30,-1
 578 1020 l 1,31,-1
 732 1455 l 1,4,-1
EndSplineSet
Validated: 1
EndChar

StartChar: dollar
Encoding: 36 36 5
Width: 1204
Flags: W
LayerCount: 2
Fore
SplineSet
357 861 m 1,0,-1
 392 886 l 1,1,2
 433 805 433 805 606 752 c 0,3,4
 643 741 643 741 664 734 c 0,5,6
 823 682 823 682 881 618 c 128,-1,7
 939 554 939 554 939 442 c 0,8,9
 939 326 939 326 858.5 244 c 128,-1,10
 778 162 778 162 637 137 c 1,11,-1
 610 173 l 1,12,13
 742 191 742 191 820 264.5 c 128,-1,14
 898 338 898 338 898 442 c 0,15,16
 898 540 898 540 846.5 594.5 c 128,-1,17
 795 649 795 649 649 696 c 0,18,19
 631 702 631 702 596 713 c 0,20,21
 410 768 410 768 357 861 c 1,0,-1
853 1243 m 1,22,23
 807 1256 807 1256 760 1262 c 128,-1,24
 713 1268 713 1268 664 1268 c 1,25,-1
 680 1305 l 1,26,27
 725 1305 725 1305 768.5 1299 c 128,-1,28
 812 1293 812 1293 853 1282 c 1,29,-1
 853 1243 l 1,22,23
490 1558 m 1,30,-1
 490 1377 l 1,31,32
 309 1350 309 1350 204.5 1247 c 128,-1,33
 100 1144 100 1144 100 994 c 0,34,35
 100 863 100 863 171.5 770.5 c 128,-1,36
 243 678 243 678 382 631 c 0,37,38
 408 622 408 622 456 606 c 0,39,40
 664 540 664 540 664 433 c 0,41,42
 664 354 664 354 595 310.5 c 128,-1,43
 526 267 526 267 402 267 c 0,44,45
 332 267 332 267 256.5 281 c 128,-1,46
 181 295 181 295 100 323 c 1,47,-1
 100 88 l 1,48,49
 166 66 166 66 254.5 55.5 c 128,-1,50
 343 45 343 45 457 45 c 2,51,-1
 490 45 l 1,52,-1
 490 -161 l 1,53,-1
 653 -161 l 1,54,-1
 653 57 l 1,55,56
 828 88 828 88 926 191 c 128,-1,57
 1024 294 1024 294 1024 447 c 0,58,59
 1024 591 1024 591 952 672.5 c 128,-1,60
 880 754 880 754 692 814 c 0,61,62
 675 820 675 820 643 830 c 0,63,64
 453 891 453 891 453 992 c 0,65,66
 453 1067 453 1067 520.5 1111 c 128,-1,67
 588 1155 588 1155 705 1155 c 0,68,69
 753 1155 753 1155 814 1142 c 128,-1,70
 875 1129 875 1129 949 1102 c 1,71,-1
 949 1332 l 1,72,73
 880 1355 880 1355 806 1366 c 128,-1,74
 732 1377 732 1377 653 1377 c 1,75,-1
 653 1558 l 1,76,-1
 490 1558 l 1,30,-1
447 1601 m 1,77,-1
 696 1601 l 1,78,-1
 696 1482 l 1,79,-1
 771 1482 l 1,80,-1
 771 1413 l 1,81,82
 816 1409 816 1409 871 1397 c 128,-1,83
 926 1385 926 1385 994 1363 c 1,84,-1
 994 1270 l 1,85,-1
 1069 1245 l 1,86,-1
 1069 925 l 1,87,88
 967 962 967 962 899.5 978 c 128,-1,89
 832 994 832 994 781 994 c 0,90,91
 693 994 693 994 639 968.5 c 128,-1,92
 585 943 585 943 576 896 c 1,93,94
 808 829 808 829 911 763 c 128,-1,95
 1014 697 1014 697 1045 600 c 1,96,97
 1093 556 1093 556 1118 488.5 c 128,-1,98
 1143 421 1143 421 1143 331 c 0,99,100
 1143 168 1143 168 1044 54.5 c 128,-1,101
 945 -59 945 -59 771 -94 c 1,102,-1
 771 -323 l 1,103,-1
 522 -323 l 1,104,-1
 522 -204 l 1,105,-1
 447 -204 l 1,106,-1
 447 -115 l 1,107,108
 375 -115 375 -115 296 -102 c 128,-1,109
 217 -89 217 -89 133 -63 c 1,110,-1
 133 35 l 1,111,-1
 57 55 l 1,112,-1
 57 386 l 1,113,114
 145 348 145 348 234 329 c 128,-1,115
 323 310 323 310 415 310 c 0,116,117
 500 310 500 310 556 339 c 128,-1,118
 612 368 612 368 619 415 c 1,119,120
 400 476 400 476 302.5 543 c 128,-1,121
 205 610 205 610 163 715 c 1,122,123
 111 770 111 770 84 841 c 128,-1,124
 57 912 57 912 57 996 c 0,125,126
 57 1153 57 1153 162.5 1266 c 128,-1,127
 268 1379 268 1379 447 1412 c 1,128,-1
 447 1601 l 1,77,-1
EndSplineSet
Validated: 1
EndChar

StartChar: percent
Encoding: 37 37 6
Width: 2261
Flags: W
LayerCount: 2
Fore
SplineSet
1963 551 m 2,0,-1
 1963 592 l 1,1,2
 1998 553 1998 553 2014.5 501 c 128,-1,3
 2031 449 2031 449 2031 380 c 0,4,5
 2031 306 2031 306 2012.5 251 c 128,-1,6
 1994 196 1994 196 1957 159 c 1,7,-1
 1957 181 l 2,8,9
 1957 198 1957 198 1973.5 262.5 c 128,-1,10
 1990 327 1990 327 1990 380 c 0,11,12
 1990 431 1990 431 1976.5 487 c 128,-1,13
 1963 543 1963 543 1963 551 c 2,0,-1
662 1208 m 2,14,-1
 662 1247 l 1,15,16
 697 1207 697 1207 713.5 1155.5 c 128,-1,17
 730 1104 730 1104 730 1036 c 0,18,19
 730 964 730 964 712 908.5 c 128,-1,20
 694 853 694 853 657 816 c 1,21,-1
 657 839 l 2,22,23
 657 855 657 855 673.5 919.5 c 128,-1,24
 690 984 690 984 690 1036 c 256,25,26
 690 1088 690 1088 676 1144 c 128,-1,27
 662 1200 662 1200 662 1208 c 2,14,-1
1412 1284 m 1,28,-1
 1303 1284 l 1,29,-1
 1312 1324 l 1,30,-1
 1476 1324 l 1,31,-1
 857 92 l 1,32,-1
 810 92 l 1,33,-1
 1412 1284 l 1,28,-1
820 1221 m 1,34,35
 873 1166 873 1166 900 1090.5 c 128,-1,36
 927 1015 927 1015 927 919 c 0,37,38
 927 730 927 730 811.5 616 c 128,-1,39
 696 502 696 502 506 502 c 0,40,41
 378 502 378 502 283 562.5 c 128,-1,42
 188 623 188 623 141 736 c 1,43,44
 87 793 87 793 61 867 c 128,-1,45
 35 941 35 941 35 1036 c 0,46,47
 35 1228 35 1228 142 1340.5 c 128,-1,48
 249 1453 249 1453 431 1453 c 0,49,50
 572 1453 572 1453 677.5 1388.5 c 128,-1,51
 783 1324 783 1324 820 1221 c 1,34,35
1601 1334 m 1,52,-1
 1731 1334 l 1,53,-1
 984 -157 l 1,54,-1
 711 -157 l 1,55,-1
 769 -35 l 1,56,-1
 524 -35 l 1,57,-1
 1276 1453 l 1,58,-1
 1661 1453 l 1,59,-1
 1601 1334 l 1,52,-1
524 1116 m 1,60,61
 519 1116 519 1116 513.5 1117 c 128,-1,62
 508 1118 508 1118 506 1118 c 0,63,64
 453 1118 453 1118 431 1071.5 c 128,-1,65
 409 1025 409 1025 409 917 c 0,66,67
 409 879 409 879 409.5 862.5 c 128,-1,68
 410 846 410 846 411 835 c 0,69,70
 415 833 415 833 418 833 c 128,-1,71
 421 833 421 833 429 833 c 0,72,73
 481 833 481 833 504.5 880 c 128,-1,74
 528 927 528 927 528 1034 c 0,75,76
 528 1052 528 1052 527.5 1069.5 c 128,-1,77
 527 1087 527 1087 524 1116 c 1,60,61
431 1410 m 0,78,79
 268 1410 268 1410 173 1309.5 c 128,-1,80
 78 1209 78 1209 78 1036 c 0,81,82
 78 865 78 865 173.5 764.5 c 128,-1,83
 269 664 269 664 431 664 c 0,84,85
 606 664 606 664 707 763.5 c 128,-1,86
 808 863 808 863 808 1036 c 0,87,88
 808 1213 808 1213 708 1311.5 c 128,-1,89
 608 1410 608 1410 431 1410 c 0,78,79
1303 1410 m 1,90,-1
 596 -4 l 1,91,-1
 886 -4 l 1,92,-1
 1590 1410 l 1,93,-1
 1303 1410 l 1,90,-1
431 1280 m 256,94,95
 505 1280 505 1280 538 1222.5 c 128,-1,96
 571 1165 571 1165 571 1032 c 0,97,98
 571 907 571 907 536.5 848.5 c 128,-1,99
 502 790 502 790 429 790 c 0,100,101
 355 790 355 790 321.5 848 c 128,-1,102
 288 906 288 906 288 1034 c 256,103,104
 288 1162 288 1162 322.5 1221 c 128,-1,105
 357 1280 357 1280 431 1280 c 256,94,95
1731 623 m 256,106,107
 1806 623 1806 623 1839 566 c 128,-1,108
 1872 509 1872 509 1872 378 c 0,109,110
 1872 250 1872 250 1838 191.5 c 128,-1,111
 1804 133 1804 133 1731 133 c 0,112,113
 1656 133 1656 133 1622 191.5 c 128,-1,114
 1588 250 1588 250 1588 378 c 0,115,116
 1588 505 1588 505 1622 564 c 128,-1,117
 1656 623 1656 623 1731 623 c 256,106,107
1731 753 m 0,118,119
 1568 753 1568 753 1472.5 652.5 c 128,-1,120
 1377 552 1377 552 1377 380 c 256,121,122
 1377 208 1377 208 1473 107 c 128,-1,123
 1569 6 1569 6 1731 6 c 0,124,125
 1906 6 1906 6 2007.5 106 c 128,-1,126
 2109 206 2109 206 2109 380 c 0,127,128
 2109 556 2109 556 2008.5 654.5 c 128,-1,129
 1908 753 1908 753 1731 753 c 0,118,119
1825 461 m 1,130,131
 1819 461 1819 461 1813 462 c 128,-1,132
 1807 463 1807 463 1806 463 c 0,133,134
 1754 463 1754 463 1731 416.5 c 128,-1,135
 1708 370 1708 370 1708 259 c 0,136,137
 1708 221 1708 221 1708.5 205.5 c 128,-1,138
 1709 190 1709 190 1710 178 c 0,139,140
 1714 176 1714 176 1717.5 175.5 c 128,-1,141
 1721 175 1721 175 1731 175 c 0,142,143
 1783 175 1783 175 1806 221.5 c 128,-1,144
 1829 268 1829 268 1829 378 c 0,145,146
 1829 395 1829 395 1828 415.5 c 128,-1,147
 1827 436 1827 436 1825 461 c 1,130,131
2121 563 m 1,148,149
 2174 509 2174 509 2200 433 c 128,-1,150
 2226 357 2226 357 2226 261 c 0,151,152
 2226 74 2226 74 2111.5 -39.5 c 128,-1,153
 1997 -153 1997 -153 1806 -153 c 0,154,155
 1677 -153 1677 -153 1583 -92.5 c 128,-1,156
 1489 -32 1489 -32 1443 80 c 1,157,158
 1388 138 1388 138 1361 212 c 128,-1,159
 1334 286 1334 286 1334 380 c 0,160,161
 1334 570 1334 570 1442 683 c 128,-1,162
 1550 796 1550 796 1731 796 c 0,163,164
 1871 796 1871 796 1974.5 734.5 c 128,-1,165
 2078 673 2078 673 2121 563 c 1,148,149
EndSplineSet
Validated: 1
EndChar

StartChar: ampersand
Encoding: 38 38 7
Width: 1841
Flags: W
LayerCount: 2
Fore
SplineSet
951 931 m 1,0,-1
 976 998 l 1,1,2
 1022 1029 1022 1029 1045.5 1067 c 128,-1,3
 1069 1105 1069 1105 1069 1147 c 0,4,5
 1069 1190 1069 1190 1040.5 1217.5 c 128,-1,6
 1012 1245 1012 1245 945 1264 c 1,7,-1
 937 1309 l 1,8,9
 1024 1289 1024 1289 1067 1248.5 c 128,-1,10
 1110 1208 1110 1208 1110 1145 c 0,11,12
 1110 1085 1110 1085 1072.5 1035 c 128,-1,13
 1035 985 1035 985 951 931 c 1,0,-1
715 717 m 1,14,-1
 751 740 l 1,15,-1
 1061 479 l 1,16,-1
 1030 455 l 1,17,-1
 715 717 l 1,14,-1
1301 688 m 1,18,-1
 1506 688 l 1,19,20
 1460 589 1460 589 1389 505.5 c 128,-1,21
 1318 422 1318 422 1219 347 c 1,22,-1
 1453 146 l 1,23,-1
 1384 146 l 1,24,-1
 1157 345 l 1,25,26
 1262 428 1262 428 1328 501 c 128,-1,27
 1394 574 1394 574 1433 647 c 1,28,-1
 1320 647 l 1,29,-1
 1301 688 l 1,18,-1
1120 600 m 1,30,31
 1156 631 1156 631 1181.5 682.5 c 128,-1,32
 1207 734 1207 734 1221 804 c 1,33,34
 1175 762 1175 762 1127.5 730.5 c 128,-1,35
 1080 699 1080 699 1028 676 c 1,36,-1
 1120 600 l 1,30,31
582 614 m 1,37,-1
 919 321 l 1,38,39
 860 272 860 272 801.5 249 c 128,-1,40
 743 226 743 226 682 226 c 0,41,42
 590 226 590 226 527.5 282 c 128,-1,43
 465 338 465 338 465 419 c 0,44,45
 465 470 465 470 494 519 c 128,-1,46
 523 568 523 568 582 614 c 1,37,-1
833 783 m 1,47,48
 1026 866 1026 866 1111 950.5 c 128,-1,49
 1196 1035 1196 1035 1196 1145 c 0,50,51
 1196 1277 1196 1277 1078.5 1344.5 c 128,-1,52
 961 1412 961 1412 732 1412 c 0,53,54
 476 1412 476 1412 335 1322.5 c 128,-1,55
 194 1233 194 1233 194 1071 c 0,56,57
 194 986 194 986 240 916.5 c 128,-1,58
 286 847 286 847 417 749 c 1,59,60
 243 679 243 679 168.5 593.5 c 128,-1,61
 94 508 94 508 94 384 c 0,62,63
 94 209 94 209 238 107.5 c 128,-1,64
 382 6 382 6 631 6 c 0,65,66
 780 6 780 6 899.5 43.5 c 128,-1,67
 1019 81 1019 81 1116 157 c 1,68,-1
 1247 43 l 1,69,-1
 1704 43 l 1,70,-1
 1345 351 l 1,71,72
 1444 437 1444 437 1510.5 540.5 c 128,-1,73
 1577 644 1577 644 1614 771 c 1,74,-1
 1258 771 l 1,75,76
 1243 701 1243 701 1209.5 644 c 128,-1,77
 1176 587 1176 587 1122 541 c 1,78,-1
 833 783 l 1,47,48
709 892 m 1,79,80
 609 953 609 953 568.5 1002 c 128,-1,81
 528 1051 528 1051 528 1110 c 0,82,83
 528 1179 528 1179 574.5 1220.5 c 128,-1,84
 621 1262 621 1262 698 1262 c 0,85,86
 781 1262 781 1262 830.5 1219 c 128,-1,87
 880 1176 880 1176 880 1104 c 0,88,89
 880 1040 880 1040 837 987.5 c 128,-1,90
 794 935 794 935 709 892 c 1,79,80
1667 814 m 1,91,92
 1659 778 1659 778 1651 750 c 128,-1,93
 1643 722 1643 722 1634 696 c 1,94,-1
 1743 696 l 1,95,96
 1717 569 1717 569 1658.5 459 c 128,-1,97
 1600 349 1600 349 1513 263 c 1,98,-1
 1821 0 l 1,99,-1
 1759 0 l 1,100,-1
 1896 -119 l 1,101,-1
 1307 -119 l 1,102,-1
 1188 -14 l 1,103,104
 1095 -85 1095 -85 976.5 -119 c 128,-1,105
 858 -153 858 -153 707 -153 c 0,106,107
 494 -153 494 -153 347.5 -79 c 128,-1,108
 201 -5 201 -5 151 127 c 1,109,110
 101 178 101 178 76 242 c 128,-1,111
 51 306 51 306 51 382 c 0,112,113
 51 512 51 512 121.5 605.5 c 128,-1,114
 192 699 192 699 337 759 c 1,115,116
 237 833 237 833 194 906 c 128,-1,117
 151 979 151 979 151 1071 c 0,118,119
 151 1252 151 1252 305 1353.5 c 128,-1,120
 459 1455 459 1455 732 1455 c 0,121,122
 947 1455 947 1455 1070.5 1397.5 c 128,-1,123
 1194 1340 1194 1340 1229 1225 c 1,124,125
 1273 1184 1273 1184 1294.5 1134.5 c 128,-1,126
 1316 1085 1316 1085 1316 1026 c 0,127,128
 1316 968 1316 968 1294.5 913.5 c 128,-1,129
 1273 859 1273 859 1231 814 c 1,130,-1
 1667 814 l 1,91,92
660 437 m 1,131,132
 622 409 622 409 604 373.5 c 128,-1,133
 586 338 586 338 586 294 c 1,134,135
 606 282 606 282 630.5 275.5 c 128,-1,136
 655 269 655 269 684 269 c 0,137,138
 722 269 722 269 755.5 277.5 c 128,-1,139
 789 286 789 286 814 302 c 1,140,-1
 660 437 l 1,131,132
837 1092 m 1,141,142
 824 1096 824 1096 809 1098 c 128,-1,143
 794 1100 794 1100 775 1100 c 0,144,145
 716 1100 716 1100 682.5 1071.5 c 128,-1,146
 649 1043 649 1043 649 994 c 2,147,-1
 649 986 l 1,148,149
 657 980 657 980 672.5 969.5 c 128,-1,150
 688 959 688 959 711 943 c 1,151,152
 769 974 769 974 800.5 1011 c 128,-1,153
 832 1048 832 1048 837 1092 c 1,141,142
EndSplineSet
Validated: 1
EndChar

StartChar: quotesingle
Encoding: 39 39 8
Width: 333
Flags: W
LayerCount: 2
Fore
SplineSet
86 1431 m 1,0,-1
 249 1431 l 1,1,-1
 249 876 l 1,2,-1
 86 876 l 1,3,-1
 86 1431 l 1,0,-1
EndSplineSet
Validated: 1
EndChar

StartChar: parenleft
Encoding: 40 40 9
Width: 906
Flags: W
LayerCount: 2
Fore
SplineSet
471 1412 m 1,0,-1
 569 1412 l 1,1,2
 496 1251 496 1251 459.5 1055 c 128,-1,3
 423 859 423 859 423 635 c 0,4,5
 423 415 423 415 459 222.5 c 128,-1,6
 495 30 495 30 569 -143 c 1,7,-1
 524 -143 l 1,8,9
 451 23 451 23 415.5 216.5 c 128,-1,10
 380 410 380 410 380 635 c 0,11,12
 380 846 380 846 411 1030 c 128,-1,13
 442 1214 442 1214 506 1371 c 1,14,-1
 451 1371 l 1,15,-1
 471 1412 l 1,0,-1
449 1498 m 1,16,17
 314 1289 314 1289 249.5 1078 c 128,-1,18
 185 867 185 867 185 635 c 256,19,20
 185 403 185 403 249.5 192 c 128,-1,21
 314 -19 314 -19 449 -228 c 1,22,-1
 698 -228 l 1,23,24
 604 -42 604 -42 557 174 c 128,-1,25
 510 390 510 390 510 635 c 256,26,27
 510 880 510 880 557 1095 c 128,-1,28
 604 1310 604 1310 698 1498 c 1,29,-1
 449 1498 l 1,16,17
709 1422 m 1,30,-1
 847 1422 l 1,31,32
 738 1235 738 1235 683.5 1007 c 128,-1,33
 629 779 629 779 629 516 c 256,34,35
 629 253 629 253 683.5 25.5 c 128,-1,36
 738 -202 738 -202 847 -390 c 1,37,-1
 520 -390 l 1,38,39
 506 -366 506 -366 483 -329 c 0,40,41
 453 -279 453 -279 449 -271 c 1,42,-1
 425 -271 l 1,43,44
 279 -49 279 -49 210 172.5 c 128,-1,45
 141 394 141 394 141 635 c 256,46,47
 141 876 141 876 210 1097 c 128,-1,48
 279 1318 279 1318 425 1541 c 1,49,-1
 771 1541 l 1,50,51
 752 1510 752 1510 736.5 1480 c 128,-1,52
 721 1450 721 1450 709 1422 c 1,30,-1
EndSplineSet
Validated: 1
EndChar

StartChar: parenright
Encoding: 41 41 10
Width: 906
Flags: W
LayerCount: 2
Fore
SplineSet
306 1371 m 1,0,-1
 261 1371 l 1,1,-1
 241 1412 l 1,2,-1
 333 1412 l 1,3,4
 448 1225 448 1225 503.5 1035 c 128,-1,5
 559 845 559 845 559 635 c 0,6,7
 559 426 559 426 504 236.5 c 128,-1,8
 449 47 449 47 333 -143 c 1,9,-1
 284 -143 l 1,10,11
 404 52 404 52 460 240.5 c 128,-1,12
 516 429 516 429 516 635 c 0,13,14
 516 835 516 835 465 1015 c 128,-1,15
 414 1195 414 1195 306 1371 c 1,0,-1
135 1498 m 1,16,17
 229 1312 229 1312 276 1096 c 128,-1,18
 323 880 323 880 323 635 c 256,19,20
 323 390 323 390 276 175 c 128,-1,21
 229 -40 229 -40 135 -228 c 1,22,-1
 382 -228 l 1,23,24
 517 -18 517 -18 582 194 c 128,-1,25
 647 406 647 406 647 635 c 0,26,27
 647 862 647 862 581.5 1075 c 128,-1,28
 516 1288 516 1288 382 1498 c 1,29,-1
 135 1498 l 1,16,17
61 1541 m 1,30,-1
 407 1541 l 1,31,32
 433 1500 433 1500 451 1469 c 128,-1,33
 469 1438 469 1438 477 1422 c 1,34,-1
 506 1422 l 1,35,36
 633 1225 633 1225 699 992.5 c 128,-1,37
 765 760 765 760 765 516 c 0,38,39
 765 276 765 276 696 55.5 c 128,-1,40
 627 -165 627 -165 481 -390 c 1,41,-1
 137 -390 l 1,42,43
 151 -365 151 -365 166.5 -335.5 c 128,-1,44
 182 -306 182 -306 198 -271 c 1,45,-1
 61 -271 l 1,46,47
 169 -84 169 -84 224.5 144 c 128,-1,48
 280 372 280 372 280 635 c 256,49,50
 280 898 280 898 224.5 1125.5 c 128,-1,51
 169 1353 169 1353 61 1541 c 1,30,-1
EndSplineSet
Validated: 1
EndChar

StartChar: asterisk
Encoding: 42 42 11
Width: 1077
Flags: W
LayerCount: 2
Fore
SplineSet
137 1237 m 1,0,-1
 333 1141 l 1,1,-1
 308 1110 l 1,2,-1
 121 1188 l 1,3,-1
 137 1237 l 1,0,-1
290 721 m 1,4,-1
 251 753 l 1,5,-1
 370 927 l 1,6,-1
 407 912 l 1,7,-1
 290 721 l 1,4,-1
734 796 m 1,8,-1
 692 769 l 1,9,-1
 563 935 l 1,10,-1
 590 964 l 1,11,-1
 734 796 l 1,8,-1
824 1110 m 1,12,-1
 783 1104 l 1,13,-1
 767 1165 l 1,14,-1
 608 1108 l 1,15,-1
 588 1141 l 1,16,-1
 792 1227 l 1,17,-1
 824 1110 l 1,12,-1
402 1431 m 1,18,-1
 522 1431 l 1,19,-1
 498 1213 l 1,20,-1
 461 1223 l 1,21,-1
 471 1390 l 1,22,-1
 409 1390 l 1,23,-1
 402 1431 l 1,18,-1
341 1486 m 1,24,-1
 382 1186 l 1,25,-1
 106 1316 l 1,26,-1
 27 1073 l 1,27,-1
 327 1020 l 1,28,-1
 117 800 l 1,29,-1
 323 651 l 1,30,-1
 467 919 l 1,31,-1
 612 651 l 1,32,-1
 818 800 l 1,33,-1
 608 1020 l 1,34,-1
 908 1073 l 1,35,-1
 828 1316 l 1,36,-1
 555 1186 l 1,37,-1
 594 1486 l 1,38,-1
 341 1486 l 1,24,-1
290 1529 m 1,39,-1
 645 1529 l 1,40,-1
 631 1410 l 1,41,-1
 721 1410 l 1,42,-1
 707 1309 l 1,43,-1
 853 1377 l 1,44,-1
 896 1245 l 1,45,-1
 929 1260 l 1,46,-1
 1038 921 l 1,47,-1
 804 880 l 1,48,-1
 886 796 l 1,49,-1
 863 779 l 1,50,-1
 962 678 l 1,51,-1
 672 467 l 1,52,-1
 604 592 l 1,53,-1
 596 586 l 1,54,-1
 537 696 l 1,55,-1
 415 467 l 1,56,-1
 127 678 l 1,57,-1
 161 715 l 1,58,-1
 51 796 l 1,59,-1
 153 902 l 1,60,-1
 47 921 l 1,61,-1
 78 1020 l 1,62,-1
 -29 1038 l 1,63,-1
 82 1377 l 1,64,-1
 325 1260 l 1,65,-1
 290 1529 l 1,39,-1
EndSplineSet
Validated: 1
EndChar

StartChar: plus
Encoding: 43 43 12
Width: 1700
Flags: W
LayerCount: 2
Fore
SplineSet
765 1217 m 1,0,-1
 935 1217 l 1,1,-1
 935 692 l 1,2,-1
 1447 692 l 1,3,-1
 1447 526 l 1,4,-1
 935 526 l 1,5,-1
 935 0 l 1,6,-1
 765 0 l 1,7,-1
 765 526 l 1,8,-1
 253 526 l 1,9,-1
 253 692 l 1,10,-1
 765 692 l 1,11,-1
 765 1217 l 1,0,-1
EndSplineSet
Validated: 1
EndChar

StartChar: comma
Encoding: 44 44 13
Width: 843
Flags: W
LayerCount: 2
Fore
SplineSet
290 218 m 1,0,-1
 302 259 l 1,1,-1
 451 259 l 1,2,-1
 300 -127 l 1,3,-1
 271 -86 l 1,4,-1
 390 218 l 1,5,-1
 290 218 l 1,0,-1
232 345 m 1,6,-1
 113 -212 l 1,7,-1
 359 -212 l 1,8,-1
 576 345 l 1,9,-1
 232 345 l 1,6,-1
594 269 m 1,10,-1
 715 269 l 1,11,-1
 465 -374 l 1,12,-1
 135 -374 l 1,13,-1
 159 -255 l 1,14,-1
 59 -255 l 1,15,-1
 196 388 l 1,16,-1
 639 388 l 1,17,-1
 594 269 l 1,10,-1
EndSplineSet
Validated: 1
EndChar

StartChar: hyphen
Encoding: 45 45 14
Width: 783
Flags: W
LayerCount: 2
Fore
SplineSet
463 510 m 1,0,-1
 463 549 l 1,1,-1
 245 549 l 1,2,-1
 204 590 l 1,3,-1
 504 590 l 1,4,-1
 504 485 l 1,5,-1
 463 510 l 1,0,-1
117 676 m 1,6,-1
 117 421 l 1,7,-1
 592 421 l 1,8,-1
 592 676 l 1,9,-1
 117 676 l 1,6,-1
635 600 m 1,10,-1
 711 600 l 1,11,-1
 711 259 l 1,12,-1
 149 259 l 1,13,-1
 149 378 l 1,14,-1
 74 378 l 1,15,-1
 74 719 l 1,16,-1
 635 719 l 1,17,-1
 635 600 l 1,10,-1
EndSplineSet
Validated: 1
EndChar

StartChar: period
Encoding: 46 46 15
Width: 843
Flags: W
LayerCount: 2
Fore
SplineSet
335 218 m 1,0,-1
 294 259 l 1,1,-1
 473 259 l 1,2,-1
 473 127 l 1,3,-1
 433 169 l 1,4,-1
 433 218 l 1,5,-1
 335 218 l 1,0,-1
206 345 m 1,6,-1
 206 43 l 1,7,-1
 561 43 l 1,8,-1
 561 345 l 1,9,-1
 206 345 l 1,6,-1
604 269 m 1,10,-1
 680 269 l 1,11,-1
 680 -119 l 1,12,-1
 239 -119 l 1,13,-1
 239 0 l 1,14,-1
 163 0 l 1,15,-1
 163 388 l 1,16,-1
 604 388 l 1,17,-1
 604 269 l 1,10,-1
EndSplineSet
Validated: 1
EndChar

StartChar: slash
Encoding: 47 47 16
Width: 816
Flags: W
LayerCount: 2
Fore
SplineSet
602 1324 m 1,0,-1
 255 -61 l 1,1,-1
 212 -61 l 1,2,-1
 549 1284 l 1,3,-1
 421 1284 l 1,4,-1
 431 1324 l 1,5,-1
 602 1324 l 1,0,-1
384 1410 m 1,6,-1
 -6 -146 l 1,7,-1
 312 -146 l 1,8,-1
 711 1410 l 1,9,-1
 384 1410 l 1,6,-1
736 1334 m 1,10,-1
 841 1334 l 1,11,-1
 421 -306 l 1,12,-1
 12 -306 l 1,13,-1
 43 -189 l 1,14,-1
 -63 -189 l 1,15,-1
 349 1453 l 1,16,-1
 765 1453 l 1,17,-1
 736 1334 l 1,10,-1
EndSplineSet
Validated: 1
EndChar

StartChar: zero
Encoding: 48 48 17
Width: 1610
Flags: W
LayerCount: 2
Fore
SplineSet
390 623 m 1,0,-1
 431 621 l 1,1,2
 441 483 441 483 491 395.5 c 128,-1,3
 541 308 541 308 631 271 c 1,4,-1
 621 235 l 1,5,6
 517 274 517 274 460 371 c 128,-1,7
 403 468 403 468 390 623 c 1,0,-1
767 1284 m 1,8,-1
 767 1324 l 1,9,10
 1049 1321 1049 1321 1192.5 1166 c 128,-1,11
 1336 1011 1336 1011 1336 709 c 0,12,13
 1336 410 1336 410 1191 253 c 128,-1,14
 1046 96 1046 96 767 93 c 1,15,-1
 767 133 l 1,16,17
 1027 135 1027 135 1161.5 281 c 128,-1,18
 1296 427 1296 427 1296 709 c 0,19,20
 1296 993 1296 993 1162.5 1138.5 c 128,-1,21
 1029 1284 1029 1284 767 1284 c 1,8,-1
767 1083 m 256,22,23
 884 1083 884 1083 951.5 983 c 128,-1,24
 1019 883 1019 883 1019 709 c 0,25,26
 1019 533 1019 533 951.5 433 c 128,-1,27
 884 333 884 333 767 333 c 256,28,29
 650 333 650 333 583 432 c 128,-1,30
 516 531 516 531 516 709 c 0,31,32
 516 885 516 885 583 984 c 128,-1,33
 650 1083 650 1083 767 1083 c 256,22,23
767 1410 m 0,34,35
 454 1410 454 1410 283.5 1226.5 c 128,-1,36
 113 1043 113 1043 113 709 c 0,37,38
 113 376 113 376 285.5 191 c 128,-1,39
 458 6 458 6 767 6 c 0,40,41
 1079 6 1079 6 1250.5 190 c 128,-1,42
 1422 374 1422 374 1422 709 c 0,43,44
 1422 1046 1422 1046 1252 1228 c 128,-1,45
 1082 1410 1082 1410 767 1410 c 0,34,35
1388 1106 m 1,46,47
 1465 1016 1465 1016 1504 886.5 c 128,-1,48
 1543 757 1543 757 1543 590 c 0,49,50
 1543 238 1543 238 1358.5 42.5 c 128,-1,51
 1174 -153 1174 -153 843 -153 c 0,52,53
 626 -153 626 -153 468.5 -64 c 128,-1,54
 311 25 311 25 222 198 c 1,55,56
 146 289 146 289 108 418 c 128,-1,57
 70 547 70 547 70 709 c 0,58,59
 70 1062 70 1062 253 1257.5 c 128,-1,60
 436 1453 436 1453 767 1453 c 0,61,62
 988 1453 988 1453 1144.5 1365.5 c 128,-1,63
 1301 1278 1301 1278 1388 1106 c 1,46,47
949 886 m 1,64,65
 926 906 926 906 899.5 915.5 c 128,-1,66
 873 925 873 925 841 925 c 0,67,68
 743 925 743 925 689 836.5 c 128,-1,69
 635 748 635 748 635 590 c 0,70,71
 635 536 635 536 641.5 491.5 c 128,-1,72
 648 447 648 447 662 410 c 1,73,74
 681 392 681 392 705 384 c 128,-1,75
 729 376 729 376 765 376 c 0,76,77
 863 376 863 376 919.5 464 c 128,-1,78
 976 552 976 552 976 709 c 0,79,80
 976 761 976 761 969.5 805.5 c 128,-1,81
 963 850 963 850 949 886 c 1,64,65
EndSplineSet
Validated: 1
EndChar

StartChar: one
Encoding: 49 49 18
Width: 1182
Flags: W
LayerCount: 2
Fore
SplineSet
592 1249 m 1,0,-1
 580 1290 l 1,1,-1
 810 1290 l 1,2,-1
 810 127 l 1,3,-1
 769 169 l 1,4,-1
 769 1249 l 1,5,-1
 592 1249 l 1,0,-1
553 1375 m 1,6,-1
 68 1036 l 1,7,-1
 222 798 l 1,8,-1
 510 988 l 1,9,-1
 510 43 l 1,10,-1
 896 43 l 1,11,-1
 896 1375 l 1,12,-1
 553 1375 l 1,6,-1
539 1416 m 1,13,-1
 941 1416 l 1,14,-1
 941 1301 l 1,15,-1
 1017 1301 l 1,16,-1
 1017 -119 l 1,17,-1
 543 -119 l 1,18,-1
 543 0 l 1,19,-1
 467 0 l 1,20,-1
 467 755 l 1,21,-1
 314 655 l 1,22,-1
 245 761 l 1,23,-1
 208 738 l 1,24,-1
 8 1049 l 1,25,-1
 539 1416 l 1,13,-1
EndSplineSet
Validated: 1
EndChar

StartChar: two
Encoding: 50 50 19
Width: 1292
Flags: W
LayerCount: 2
Fore
SplineSet
247 1262 m 1,0,-1
 206 1296 l 1,1,2
 308 1312 308 1312 396.5 1319 c 128,-1,3
 485 1326 485 1326 555 1326 c 0,4,5
 776 1326 776 1326 895.5 1234.5 c 128,-1,6
 1015 1143 1015 1143 1015 974 c 0,7,8
 1015 846 1015 846 938.5 741.5 c 128,-1,9
 862 637 862 637 700 543 c 1,10,-1
 727 610 l 1,11,12
 852 689 852 689 913 778 c 128,-1,13
 974 867 974 867 974 974 c 0,14,15
 974 1125 974 1125 864 1206.5 c 128,-1,16
 754 1288 754 1288 549 1288 c 0,17,18
 482 1288 482 1288 406.5 1281.5 c 128,-1,19
 331 1275 331 1275 247 1262 c 1,0,-1
429 212 m 1,20,-1
 1015 212 l 1,21,-1
 1015 109 l 1,22,-1
 974 137 l 1,23,-1
 974 171 l 1,24,-1
 457 171 l 1,25,-1
 429 212 l 1,20,-1
429 298 m 1,26,27
 808 482 808 482 956 633.5 c 128,-1,28
 1104 785 1104 785 1104 974 c 0,29,30
 1104 1181 1104 1181 958 1295.5 c 128,-1,31
 812 1410 812 1410 549 1410 c 0,32,33
 430 1410 430 1410 321.5 1397.5 c 128,-1,34
 213 1385 213 1385 119 1361 c 1,35,-1
 119 1040 l 1,36,37
 177 1064 177 1064 244 1076 c 128,-1,38
 311 1088 311 1088 386 1088 c 0,39,40
 533 1088 533 1088 616.5 1028.5 c 128,-1,41
 700 969 700 969 700 863 c 0,42,43
 700 758 700 758 593.5 664.5 c 128,-1,44
 487 571 487 571 90 374 c 1,45,-1
 90 43 l 1,46,-1
 1102 43 l 1,47,-1
 1102 298 l 1,48,-1
 429 298 l 1,26,27
1145 341 m 1,49,-1
 1145 222 l 1,50,-1
 1221 222 l 1,51,-1
 1221 -119 l 1,52,-1
 123 -119 l 1,53,-1
 123 0 l 1,54,-1
 47 0 l 1,55,-1
 47 398 l 1,56,-1
 55 402 l 2,57,58
 655 706 655 706 655 863 c 2,59,-1
 655 884 l 1,60,61
 619 906 619 906 575 916.5 c 128,-1,62
 531 927 531 927 469 927 c 0,63,64
 388 927 388 927 309 911 c 128,-1,65
 230 895 230 895 151 863 c 1,66,-1
 151 1009 l 1,67,-1
 76 982 l 1,68,-1
 76 1392 l 1,69,70
 182 1422 182 1422 302.5 1437.5 c 128,-1,71
 423 1453 423 1453 551 1453 c 0,72,73
 767 1453 767 1453 903.5 1382.5 c 128,-1,74
 1040 1312 1040 1312 1108 1165 c 1,75,76
 1165 1101 1165 1101 1194 1023 c 128,-1,77
 1223 945 1223 945 1223 855 c 0,78,79
 1223 703 1223 703 1137 574.5 c 128,-1,80
 1051 446 1051 446 880 341 c 1,81,-1
 1145 341 l 1,49,-1
EndSplineSet
Validated: 1
EndChar

StartChar: three
Encoding: 51 51 20
Width: 1260
Flags: W
LayerCount: 2
Fore
SplineSet
777 551 m 1,0,-1
 740 606 l 1,1,2
 880 575 880 575 935 526 c 128,-1,3
 990 477 990 477 990 388 c 0,4,5
 990 250 990 250 871.5 171 c 128,-1,6
 753 92 753 92 545 92 c 1,7,-1
 545 133 l 1,8,9
 736 133 736 133 842.5 201 c 128,-1,10
 949 269 949 269 949 390 c 0,11,12
 949 455 949 455 910 492 c 128,-1,13
 871 529 871 529 777 551 c 1,0,-1
508 1324 m 1,14,-1
 516 1324 l 2,15,16
 732 1324 732 1324 851 1246.5 c 128,-1,17
 970 1169 970 1169 970 1028 c 0,18,19
 970 949 970 949 917 900.5 c 128,-1,20
 864 852 864 852 740 820 c 1,21,-1
 775 874 l 1,22,23
 862 900 862 900 895.5 935 c 128,-1,24
 929 970 929 970 929 1032 c 0,25,26
 929 1149 929 1149 821.5 1216.5 c 128,-1,27
 714 1284 714 1284 524 1284 c 2,28,-1
 508 1284 l 1,29,-1
 508 1324 l 1,14,-1
738 692 m 1,30,-1
 738 734 l 1,31,32
 902 770 902 770 979.5 842 c 128,-1,33
 1057 914 1057 914 1057 1028 c 0,34,35
 1057 1208 1057 1208 912 1309 c 128,-1,36
 767 1410 767 1410 510 1410 c 0,37,38
 387 1410 387 1410 284 1397 c 128,-1,39
 181 1384 181 1384 102 1359 c 1,40,-1
 102 1096 l 1,41,42
 193 1122 193 1122 269.5 1135.5 c 128,-1,43
 346 1149 346 1149 405 1149 c 0,44,45
 522 1149 522 1149 587.5 1104 c 128,-1,46
 653 1059 653 1059 653 980 c 0,47,48
 653 899 653 899 583.5 854.5 c 128,-1,49
 514 810 514 810 386 810 c 0,50,51
 360 810 360 810 331 811.5 c 128,-1,52
 302 813 302 813 272 816 c 1,53,-1
 272 598 l 1,54,55
 312 603 312 603 346.5 605.5 c 128,-1,56
 381 608 381 608 415 608 c 0,57,58
 531 608 531 608 601.5 561 c 128,-1,59
 672 514 672 514 672 438 c 0,60,61
 672 359 672 359 604 314 c 128,-1,62
 536 269 536 269 413 269 c 0,63,64
 349 269 349 269 268.5 282.5 c 128,-1,65
 188 296 188 296 90 323 c 1,66,-1
 90 53 l 1,67,68
 190 30 190 30 289 18 c 128,-1,69
 388 6 388 6 485 6 c 0,70,71
 775 6 775 6 925 103.5 c 128,-1,72
 1075 201 1075 201 1075 390 c 0,73,74
 1075 513 1075 513 994 586.5 c 128,-1,75
 913 660 913 660 738 692 c 1,30,-1
47 18 m 1,76,-1
 47 378 l 1,77,78
 154 345 154 345 246.5 328.5 c 128,-1,79
 339 312 339 312 413 312 c 0,80,81
 510 312 510 312 563.5 339.5 c 128,-1,82
 617 367 617 367 629 423 c 1,83,84
 602 435 602 435 566 441 c 128,-1,85
 530 447 530 447 487 447 c 0,86,87
 451 447 451 447 407.5 443.5 c 128,-1,88
 364 440 364 440 302 433 c 1,89,-1
 302 559 l 1,90,91
 286 559 286 559 243 553 c 0,92,93
 233 552 233 552 226 551 c 1,94,-1
 226 861 l 1,95,96
 267 857 267 857 311 855 c 128,-1,97
 355 853 355 853 407 853 c 0,98,99
 496 853 496 853 547.5 882 c 128,-1,100
 599 911 599 911 608 968 c 1,101,102
 586 979 586 979 557.5 984.5 c 128,-1,103
 529 990 529 990 494 990 c 0,104,105
 421 990 421 990 332.5 973.5 c 128,-1,106
 244 957 244 957 135 923 c 1,107,-1
 135 1061 l 1,108,109
 129 1059 129 1059 116 1055 c 0,110,111
 81 1044 81 1044 59 1038 c 1,112,-1
 59 1390 l 1,113,114
 149 1421 149 1421 262.5 1437 c 128,-1,115
 376 1453 376 1453 512 1453 c 0,116,117
 735 1453 735 1453 876 1382.5 c 128,-1,118
 1017 1312 1017 1312 1071 1174 c 1,119,120
 1123 1115 1123 1115 1149.5 1049.5 c 128,-1,121
 1176 984 1176 984 1176 910 c 0,122,123
 1176 817 1176 817 1134 751 c 128,-1,124
 1092 685 1092 685 1005 637 c 1,125,126
 1042 604 1042 604 1067 570 c 128,-1,127
 1092 536 1092 536 1104 498 c 1,128,129
 1151 453 1151 453 1173.5 397.5 c 128,-1,130
 1196 342 1196 342 1196 273 c 0,131,132
 1196 65 1196 65 1033 -45 c 128,-1,133
 870 -155 870 -155 561 -155 c 0,134,135
 451 -155 451 -155 342 -141.5 c 128,-1,136
 233 -128 233 -128 123 -100 c 1,137,-1
 123 2 l 1,138,-1
 47 18 l 1,76,-1
EndSplineSet
Validated: 1
EndChar

StartChar: four
Encoding: 52 52 21
Width: 1560
Flags: W
LayerCount: 2
Fore
SplineSet
738 459 m 1,0,-1
 333 459 l 1,1,-1
 300 500 l 1,2,-1
 738 500 l 1,3,-1
 738 459 l 1,0,-1
1034 280 m 1,4,-1
 1034 119 l 1,5,-1
 992 151 l 1,6,-1
 992 316 l 1,7,-1
 1034 280 l 1,4,-1
992 1249 m 1,8,-1
 767 1249 l 1,9,-1
 751 1290 l 1,10,-1
 1034 1290 l 1,11,-1
 1034 500 l 1,12,-1
 1284 500 l 1,13,-1
 1284 370 l 1,14,-1
 1243 388 l 1,15,-1
 1243 459 l 1,16,-1
 992 459 l 1,17,-1
 992 1249 l 1,8,-1
734 1053 m 1,18,-1
 734 571 l 1,19,-1
 300 571 l 1,20,-1
 734 1053 l 1,18,-1
713 1375 m 1,21,-1
 117 719 l 1,22,-1
 117 316 l 1,23,-1
 734 316 l 1,24,-1
 734 43 l 1,25,-1
 1120 43 l 1,26,-1
 1120 316 l 1,27,-1
 1371 316 l 1,28,-1
 1371 571 l 1,29,-1
 1120 571 l 1,30,-1
 1120 1375 l 1,31,-1
 713 1375 l 1,21,-1
692 745 m 1,32,-1
 573 614 l 1,33,-1
 692 614 l 1,34,-1
 692 745 l 1,32,-1
692 1416 m 1,35,-1
 1165 1416 l 1,36,-1
 1165 1301 l 1,37,-1
 1241 1301 l 1,38,-1
 1241 614 l 1,39,-1
 1414 614 l 1,40,-1
 1414 496 l 1,41,-1
 1490 496 l 1,42,-1
 1490 155 l 1,43,-1
 1241 155 l 1,44,-1
 1241 -119 l 1,45,-1
 767 -119 l 1,46,-1
 767 0 l 1,47,-1
 692 0 l 1,48,-1
 692 155 l 1,49,-1
 149 155 l 1,50,-1
 149 273 l 1,51,-1
 74 273 l 1,52,-1
 74 734 l 1,53,-1
 692 1416 l 1,35,-1
EndSplineSet
Validated: 1
EndChar

StartChar: five
Encoding: 53 53 22
Width: 1253
Flags: W
LayerCount: 2
Fore
SplineSet
631 700 m 1,0,-1
 631 740 l 1,1,-1
 657 740 l 2,2,3
 816 740 816 740 904 657 c 128,-1,4
 992 574 992 574 992 425 c 0,5,6
 992 269 992 269 878.5 182 c 128,-1,7
 765 95 765 95 559 93 c 1,8,-1
 560 133 l 1,9,10
 747 136 747 136 849 212 c 128,-1,11
 951 288 951 288 951 427 c 0,12,13
 951 558 951 558 875 629 c 128,-1,14
 799 700 799 700 660 700 c 2,15,-1
 631 700 l 1,0,-1
228 1290 m 1,16,-1
 933 1290 l 1,17,-1
 933 1176 l 1,18,-1
 892 1204 l 1,19,-1
 892 1249 l 1,20,-1
 269 1249 l 1,21,-1
 228 1290 l 1,16,-1
421 1104 m 1,22,-1
 421 837 l 1,23,-1
 380 798 l 1,24,-1
 380 1137 l 1,25,-1
 421 1104 l 1,22,-1
143 1375 m 1,26,-1
 144 660 l 1,27,28
 193 671 193 671 246 676.5 c 128,-1,29
 299 682 299 682 353 682 c 0,30,31
 510 682 510 682 593 625.5 c 128,-1,32
 676 569 676 569 676 463 c 0,33,34
 676 363 676 363 597 310 c 128,-1,35
 518 257 518 257 370 257 c 0,36,37
 312 257 312 257 249 265.5 c 128,-1,38
 186 274 186 274 119 292 c 1,39,-1
 119 55 l 1,40,41
 215 31 215 31 314 18.5 c 128,-1,42
 413 6 413 6 510 6 c 0,43,44
 784 6 784 6 931.5 114.5 c 128,-1,45
 1079 223 1079 223 1079 423 c 0,46,47
 1079 611 1079 611 965 718.5 c 128,-1,48
 851 826 851 826 649 826 c 0,49,50
 625 826 625 826 553 821 c 0,51,52
 522 819 522 819 506 819 c 1,53,-1
 506 1120 l 1,54,-1
 1020 1120 l 1,55,-1
 1020 1375 l 1,56,-1
 143 1375 l 1,26,-1
100 1416 m 1,57,-1
 1063 1416 l 1,58,-1
 1063 1301 l 1,59,-1
 1139 1301 l 1,60,-1
 1139 960 l 1,61,-1
 627 960 l 1,62,-1
 627 867 l 1,63,-1
 633 867 l 2,64,65
 808 867 808 867 920 804.5 c 128,-1,66
 1032 742 1032 742 1086 614 c 1,67,68
 1144 548 1144 548 1171 474 c 128,-1,69
 1198 400 1198 400 1198 304 c 0,70,71
 1198 86 1198 86 1036.5 -34.5 c 128,-1,72
 875 -155 875 -155 582 -155 c 0,73,74
 481 -155 481 -155 374 -140.5 c 128,-1,75
 267 -126 267 -126 151 -96 c 1,76,-1
 151 4 l 1,77,78
 121 12 121 12 105.5 15.5 c 128,-1,79
 90 19 90 19 76 23 c 1,80,-1
 76 345 l 1,81,82
 157 323 157 323 231 311.5 c 128,-1,83
 305 300 305 300 370 300 c 0,84,85
 498 300 498 300 564.5 342 c 128,-1,86
 631 384 631 384 631 465 c 2,87,-1
 631 479 l 1,88,89
 593 501 593 501 541.5 511.5 c 128,-1,90
 490 522 490 522 421 522 c 0,91,92
 364 522 364 522 303 513.5 c 128,-1,93
 242 505 242 505 175 487 c 1,94,-1
 175 623 l 1,95,96
 171 622 171 622 161 620 c 0,97,98
 125 613 125 613 100 606 c 1,99,-1
 100 1416 l 1,57,-1
EndSplineSet
Validated: 1
EndChar

StartChar: six
Encoding: 54 54 23
Width: 1474
Flags: W
LayerCount: 2
Fore
SplineSet
845 753 m 1,0,-1
 845 794 l 1,1,-1
 851 794 l 2,2,3
 1020 794 1020 794 1118.5 704.5 c 128,-1,4
 1217 615 1217 615 1217 461 c 0,5,6
 1217 291 1217 291 1094.5 191.5 c 128,-1,7
 972 92 972 92 759 92 c 1,8,-1
 759 133 l 1,9,10
 953 133 953 133 1064.5 221.5 c 128,-1,11
 1176 310 1176 310 1176 461 c 0,12,13
 1176 596 1176 596 1090 674.5 c 128,-1,14
 1004 753 1004 753 855 753 c 2,15,-1
 845 753 l 1,0,-1
1104 1306 m 1,16,-1
 1104 1219 l 1,17,-1
 1063 1219 l 1,18,-1
 1063 1272 l 1,19,20
 1026 1278 1026 1278 983.5 1281 c 128,-1,21
 941 1284 941 1284 892 1284 c 2,22,-1
 851 1284 l 1,23,-1
 851 1324 l 1,24,-1
 888 1324 l 2,25,26
 950 1324 950 1324 1004 1319.5 c 128,-1,27
 1058 1315 1058 1315 1104 1306 c 1,16,-1
729 672 m 256,28,29
 823 672 823 672 880 617.5 c 128,-1,30
 937 563 937 563 937 473 c 0,31,32
 937 384 937 384 880 329.5 c 128,-1,33
 823 275 823 275 729 275 c 256,34,35
 635 275 635 275 577.5 329.5 c 128,-1,36
 520 384 520 384 520 473 c 0,37,38
 520 563 520 563 577.5 617.5 c 128,-1,39
 635 672 635 672 729 672 c 256,28,29
1190 1377 m 1,40,41
 1112 1394 1112 1394 1026.5 1402 c 128,-1,42
 941 1410 941 1410 845 1410 c 0,43,44
 491 1410 491 1410 302 1218 c 128,-1,45
 113 1026 113 1026 113 672 c 0,46,47
 113 357 113 357 279 181.5 c 128,-1,48
 445 6 445 6 745 6 c 0,49,50
 1004 6 1004 6 1153.5 128.5 c 128,-1,51
 1303 251 1303 251 1303 461 c 0,52,53
 1303 651 1303 651 1179 765.5 c 128,-1,54
 1055 880 1055 880 849 880 c 0,55,56
 743 880 743 880 660.5 849 c 128,-1,57
 578 818 578 818 494 749 c 1,58,-1
 494 757 l 2,59,60
 494 965 494 965 590 1055 c 128,-1,61
 686 1145 686 1145 906 1145 c 0,62,63
 976 1145 976 1145 1045.5 1136 c 128,-1,64
 1115 1127 1115 1127 1190 1108 c 1,65,-1
 1190 1377 l 1,40,41
1233 1414 m 1,66,-1
 1233 1309 l 1,67,-1
 1309 1296 l 1,68,-1
 1309 933 l 1,69,70
 1219 960 1219 960 1138 973 c 128,-1,71
 1057 986 1057 986 984 986 c 0,72,73
 885 986 885 986 810.5 965 c 128,-1,74
 736 944 736 944 692 904 c 1,75,76
 732 914 732 914 771 918.5 c 128,-1,77
 810 923 810 923 849 923 c 0,78,79
 1015 923 1015 923 1132 853.5 c 128,-1,80
 1249 784 1249 784 1309 651 c 1,81,82
 1366 586 1366 586 1394 511 c 128,-1,83
 1422 436 1422 436 1422 345 c 0,84,85
 1422 121 1422 121 1262.5 -16 c 128,-1,86
 1103 -153 1103 -153 837 -153 c 0,87,88
 606 -153 606 -153 458 -71.5 c 128,-1,89
 310 10 310 10 218 187 c 1,90,91
 143 282 143 282 105.5 401 c 128,-1,92
 68 520 68 520 68 666 c 0,93,94
 68 1048 68 1048 272 1250.5 c 128,-1,95
 476 1453 476 1453 865 1453 c 0,96,97
 959 1453 959 1453 1050 1443.5 c 128,-1,98
 1141 1434 1141 1434 1233 1414 c 1,66,-1
892 492 m 1,99,100
 874 502 874 502 852.5 507 c 128,-1,101
 831 512 831 512 804 512 c 0,102,103
 728 512 728 512 683.5 469 c 128,-1,104
 639 426 639 426 639 349 c 2,105,-1
 639 339 l 1,106,107
 660 328 660 328 682 323 c 128,-1,108
 704 318 704 318 729 318 c 0,109,110
 805 318 805 318 848.5 360 c 128,-1,111
 892 402 892 402 892 473 c 2,112,-1
 892 492 l 1,99,100
EndSplineSet
Validated: 1
EndChar

StartChar: seven
Encoding: 55 55 24
Width: 1229
Flags: W
LayerCount: 2
Fore
SplineSet
189 1249 m 1,0,-1
 149 1290 l 1,1,-1
 980 1290 l 1,2,-1
 980 1053 l 1,3,-1
 524 127 l 1,4,-1
 500 169 l 1,5,-1
 939 1065 l 1,6,-1
 939 1249 l 1,7,-1
 189 1249 l 1,0,-1
61 1375 m 1,8,-1
 61 1081 l 1,9,-1
 727 1081 l 1,10,-1
 127 43 l 1,11,-1
 580 43 l 1,12,-1
 1067 1034 l 1,13,-1
 1067 1375 l 1,14,-1
 61 1375 l 1,8,-1
18 1416 m 1,15,-1
 1110 1416 l 1,16,-1
 1110 1301 l 1,17,-1
 1186 1301 l 1,18,-1
 1186 906 l 1,19,-1
 682 -119 l 1,20,-1
 129 -119 l 1,21,-1
 196 0 l 1,22,-1
 53 0 l 1,23,-1
 584 921 l 1,24,-1
 94 921 l 1,25,-1
 94 1038 l 1,26,-1
 18 1038 l 1,27,-1
 18 1416 l 1,15,-1
EndSplineSet
Validated: 1
EndChar

StartChar: eight
Encoding: 56 56 25
Width: 1416
Flags: W
LayerCount: 2
Fore
SplineSet
1020 537 m 1,0,-1
 1036 576 l 1,1,2
 1098 557 1098 557 1130.5 506.5 c 128,-1,3
 1163 456 1163 456 1163 380 c 0,4,5
 1163 236 1163 236 1045.5 164 c 128,-1,6
 928 92 928 92 692 92 c 2,7,-1
 672 92 l 1,8,-1
 672 133 l 1,9,10
 912 135 912 135 1017 194.5 c 128,-1,11
 1122 254 1122 254 1122 388 c 0,12,13
 1122 445 1122 445 1094.5 485.5 c 128,-1,14
 1067 526 1067 526 1020 537 c 1,0,-1
806 1318 m 1,15,16
 965 1307 965 1307 1056 1229 c 128,-1,17
 1147 1151 1147 1151 1147 1028 c 0,18,19
 1147 962 1147 962 1120 916 c 128,-1,20
 1093 870 1093 870 1045 855 c 1,21,-1
 1028 894 l 1,22,23
 1065 903 1065 903 1085.5 938 c 128,-1,24
 1106 973 1106 973 1106 1026 c 0,25,26
 1106 1131 1106 1131 1027.5 1197 c 128,-1,27
 949 1263 949 1263 806 1278 c 1,28,-1
 806 1318 l 1,15,16
672 647 m 0,29,30
 765 647 765 647 822.5 588.5 c 128,-1,31
 880 530 880 530 880 433 c 0,32,33
 880 335 880 335 822.5 275.5 c 128,-1,34
 765 216 765 216 672 216 c 0,35,36
 578 216 578 216 520.5 275.5 c 128,-1,37
 463 335 463 335 463 433 c 0,38,39
 463 530 463 530 520 588.5 c 128,-1,40
 577 647 577 647 672 647 c 0,29,30
361 694 m 1,41,42
 225 653 225 653 158.5 575 c 128,-1,43
 92 497 92 497 92 380 c 0,44,45
 92 200 92 200 242.5 103 c 128,-1,46
 393 6 393 6 672 6 c 0,47,48
 961 6 961 6 1106 99.5 c 128,-1,49
 1251 193 1251 193 1251 380 c 0,50,51
 1251 507 1251 507 1180.5 583 c 128,-1,52
 1110 659 1110 659 960 694 c 1,53,-1
 960 734 l 1,54,55
 1101 765 1101 765 1168 837 c 128,-1,56
 1235 909 1235 909 1235 1028 c 0,57,58
 1235 1212 1235 1212 1088.5 1311 c 128,-1,59
 942 1410 942 1410 672 1410 c 0,60,61
 407 1410 407 1410 256.5 1307.5 c 128,-1,62
 106 1205 106 1205 106 1024 c 0,63,64
 106 913 106 913 169 841.5 c 128,-1,65
 232 770 232 770 361 734 c 1,66,-1
 361 694 l 1,41,42
672 1217 m 256,67,68
 757 1217 757 1217 810 1162.5 c 128,-1,69
 863 1108 863 1108 863 1020 c 0,70,71
 863 935 863 935 810 881.5 c 128,-1,72
 757 828 757 828 672 828 c 256,73,74
 587 828 587 828 533 882 c 128,-1,75
 479 936 479 936 479 1020 c 0,76,77
 479 1107 479 1107 533 1162 c 128,-1,78
 587 1217 587 1217 672 1217 c 256,67,68
835 465 m 0,79,80
 816 476 816 476 794.5 481.5 c 128,-1,81
 773 487 773 487 747 487 c 0,82,83
 671 487 671 487 626.5 440 c 128,-1,84
 582 393 582 393 582 310 c 0,85,86
 582 305 582 305 583 295 c 128,-1,87
 584 285 584 285 584 280 c 1,88,89
 601 269 601 269 622 264 c 128,-1,90
 643 259 643 259 672 259 c 0,91,92
 748 259 748 259 792.5 307 c 128,-1,93
 837 355 837 355 837 438 c 0,94,95
 837 442 837 442 836 451.5 c 128,-1,96
 835 461 835 461 835 465 c 0,79,80
1194 631 m 1,97,98
 1220 606 1220 606 1239.5 576 c 128,-1,99
 1259 546 1259 546 1272 510 c 1,100,101
 1318 468 1318 468 1343.5 403 c 128,-1,102
 1369 338 1369 338 1369 261 c 0,103,104
 1369 58 1369 58 1211 -47.5 c 128,-1,105
 1053 -153 1053 -153 747 -153 c 0,106,107
 503 -153 503 -153 349.5 -81.5 c 128,-1,108
 196 -10 196 -10 146 127 c 1,109,110
 97 180 97 180 72 242.5 c 128,-1,111
 47 305 47 305 47 380 c 0,112,113
 47 482 47 482 93 559.5 c 128,-1,114
 139 637 139 637 228 686 c 1,115,116
 200 715 200 715 181 742 c 128,-1,117
 162 769 162 769 153 795 c 1,118,119
 108 840 108 840 85.5 896.5 c 128,-1,120
 63 953 63 953 63 1024 c 0,121,122
 63 1223 63 1223 226 1338 c 128,-1,123
 389 1453 389 1453 672 1453 c 0,124,125
 904 1453 904 1453 1048 1384.5 c 128,-1,126
 1192 1316 1192 1316 1247 1180 c 1,127,128
 1299 1122 1299 1122 1326 1052.5 c 128,-1,129
 1353 983 1353 983 1353 908 c 0,130,131
 1353 812 1353 812 1311.5 739 c 128,-1,132
 1270 666 1270 666 1194 631 c 1,97,98
818 1038 m 1,133,134
 803 1047 803 1047 785.5 1051 c 128,-1,135
 768 1055 768 1055 747 1055 c 0,136,137
 681 1055 681 1055 640.5 1014 c 128,-1,138
 600 973 600 973 600 904 c 2,139,-1
 600 886 l 1,140,141
 617 878 617 878 634.5 874.5 c 128,-1,142
 652 871 652 871 672 871 c 0,143,144
 739 871 739 871 778.5 912.5 c 128,-1,145
 818 954 818 954 818 1024 c 2,146,-1
 818 1038 l 1,133,134
EndSplineSet
Validated: 1
EndChar

StartChar: nine
Encoding: 57 57 26
Width: 1474
Flags: W
LayerCount: 2
Fore
SplineSet
637 1324 m 1,0,-1
 666 1324 l 2,1,2
 917 1324 917 1324 1056.5 1172 c 128,-1,3
 1196 1020 1196 1020 1196 745 c 0,4,5
 1196 427 1196 427 1032.5 259.5 c 128,-1,6
 869 92 869 92 555 92 c 2,7,-1
 545 92 l 1,8,-1
 545 133 l 1,9,-1
 561 133 l 2,10,11
 852 133 852 133 1004.5 289 c 128,-1,12
 1157 445 1157 445 1157 745 c 0,13,14
 1157 1003 1157 1003 1029 1143.5 c 128,-1,15
 901 1284 901 1284 666 1284 c 2,16,-1
 637 1284 l 1,17,-1
 637 1324 l 1,0,-1
206 39 m 1,18,19
 284 22 284 22 369.5 14 c 128,-1,20
 455 6 455 6 551 6 c 0,21,22
 903 6 903 6 1093.5 198.5 c 128,-1,23
 1284 391 1284 391 1284 747 c 0,24,25
 1284 1061 1284 1061 1117.5 1235.5 c 128,-1,26
 951 1410 951 1410 651 1410 c 0,27,28
 393 1410 393 1410 243.5 1288 c 128,-1,29
 94 1166 94 1166 94 955 c 0,30,31
 94 765 94 765 217 652 c 128,-1,32
 340 539 340 539 547 539 c 0,33,34
 654 539 654 539 736.5 569 c 128,-1,35
 819 599 819 599 902 668 c 1,36,-1
 902 649 l 2,37,38
 902 453 902 453 806.5 362 c 128,-1,39
 711 271 711 271 504 271 c 0,40,41
 427 271 427 271 352 281 c 128,-1,42
 277 291 277 291 206 310 c 1,43,-1
 206 39 l 1,18,19
668 1141 m 0,44,45
 761 1141 761 1141 818.5 1086.5 c 128,-1,46
 876 1032 876 1032 876 943 c 0,47,48
 876 853 876 853 818.5 799 c 128,-1,49
 761 745 761 745 668 745 c 0,50,51
 573 745 573 745 516 799 c 128,-1,52
 459 853 459 853 459 943 c 0,53,54
 459 1032 459 1032 516 1086.5 c 128,-1,55
 573 1141 573 1141 668 1141 c 0,44,45
161 4 m 1,56,-1
 161 366 l 1,57,58
 248 340 248 340 329.5 327 c 128,-1,59
 411 314 411 314 485 314 c 0,60,61
 590 314 590 314 665.5 335.5 c 128,-1,62
 741 357 741 357 779 396 c 1,63,64
 747 387 747 387 712.5 382.5 c 128,-1,65
 678 378 678 378 639 378 c 0,66,67
 461 378 461 378 343 444.5 c 128,-1,68
 225 511 225 511 161 649 c 1,69,70
 105 713 105 713 77 789.5 c 128,-1,71
 49 866 49 866 49 955 c 0,72,73
 49 1180 49 1180 209 1316.5 c 128,-1,74
 369 1453 369 1453 635 1453 c 0,75,76
 863 1453 863 1453 1011.5 1371.5 c 128,-1,77
 1160 1290 1160 1290 1249 1114 c 1,78,79
 1325 1020 1325 1020 1363.5 897.5 c 128,-1,80
 1402 775 1402 775 1402 627 c 0,81,82
 1402 247 1402 247 1198 47 c 128,-1,83
 994 -153 994 -153 606 -153 c 0,84,85
 512 -153 512 -153 420 -143.5 c 128,-1,86
 328 -134 328 -134 237 -115 c 1,87,-1
 236 -10 l 1,88,89
 206 -5 206 -5 190.5 -2 c 128,-1,90
 175 1 175 1 161 4 c 1,56,-1
833 960 m 1,91,92
 814 971 814 971 792 976.5 c 128,-1,93
 770 982 770 982 742 982 c 0,94,95
 665 982 665 982 622.5 939.5 c 128,-1,96
 580 897 580 897 580 820 c 2,97,-1
 580 806 l 1,98,99
 598 797 598 797 619.5 792.5 c 128,-1,100
 641 788 641 788 668 788 c 0,101,102
 744 788 744 788 788.5 830.5 c 128,-1,103
 833 873 833 873 833 949 c 2,104,-1
 833 960 l 1,91,92
EndSplineSet
Validated: 1
EndChar

StartChar: colon
Encoding: 58 58 27
Width: 935
Flags: W
LayerCount: 2
Fore
SplineSet
651 949 m 1,0,-1
 727 949 l 1,1,-1
 727 561 l 1,2,-1
 286 561 l 1,3,-1
 286 680 l 1,4,-1
 210 680 l 1,5,-1
 210 1067 l 1,6,-1
 651 1067 l 1,7,-1
 651 949 l 1,0,-1
253 1024 m 1,8,-1
 253 723 l 1,9,-1
 606 723 l 1,10,-1
 606 1024 l 1,11,-1
 253 1024 l 1,8,-1
380 900 m 1,12,-1
 339 941 l 1,13,-1
 520 941 l 1,14,-1
 520 808 l 1,15,-1
 479 851 l 1,16,-1
 479 900 l 1,17,-1
 380 900 l 1,12,-1
651 269 m 1,18,-1
 727 269 l 1,19,-1
 727 -119 l 1,20,-1
 286 -119 l 1,21,-1
 286 0 l 1,22,-1
 210 0 l 1,23,-1
 210 388 l 1,24,-1
 651 388 l 1,25,-1
 651 269 l 1,18,-1
253 345 m 1,26,-1
 253 43 l 1,27,-1
 606 43 l 1,28,-1
 606 345 l 1,29,-1
 253 345 l 1,26,-1
380 218 m 1,30,-1
 339 259 l 1,31,-1
 520 259 l 1,32,-1
 520 127 l 1,33,-1
 479 169 l 1,34,-1
 479 218 l 1,35,-1
 380 218 l 1,30,-1
EndSplineSet
Validated: 1
EndChar

StartChar: semicolon
Encoding: 59 59 28
Width: 935
Flags: W
LayerCount: 2
Fore
SplineSet
625 269 m 1,0,-1
 747 269 l 1,1,-1
 496 -374 l 1,2,-1
 165 -374 l 1,3,-1
 189 -255 l 1,4,-1
 90 -255 l 1,5,-1
 226 388 l 1,6,-1
 670 388 l 1,7,-1
 625 269 l 1,0,-1
263 345 m 1,8,-1
 143 -212 l 1,9,-1
 390 -212 l 1,10,-1
 606 345 l 1,11,-1
 263 345 l 1,8,-1
321 218 m 1,12,-1
 333 259 l 1,13,-1
 481 259 l 1,14,-1
 331 -127 l 1,15,-1
 302 -86 l 1,16,-1
 421 218 l 1,17,-1
 321 218 l 1,12,-1
651 949 m 1,18,-1
 727 949 l 1,19,-1
 727 561 l 1,20,-1
 286 561 l 1,21,-1
 286 680 l 1,22,-1
 210 680 l 1,23,-1
 210 1067 l 1,24,-1
 651 1067 l 1,25,-1
 651 949 l 1,18,-1
253 1024 m 1,26,-1
 253 723 l 1,27,-1
 606 723 l 1,28,-1
 606 1024 l 1,29,-1
 253 1024 l 1,26,-1
380 900 m 1,30,-1
 339 941 l 1,31,-1
 520 941 l 1,32,-1
 520 808 l 1,33,-1
 479 851 l 1,34,-1
 479 900 l 1,35,-1
 380 900 l 1,30,-1
EndSplineSet
Validated: 1
EndChar

StartChar: less
Encoding: 60 60 29
Width: 1700
Flags: W
LayerCount: 2
Fore
SplineSet
1437 1172 m 1,0,-1
 1437 988 l 1,1,-1
 506 608 l 1,2,-1
 1437 228 l 1,3,-1
 1437 47 l 1,4,-1
 263 528 l 1,5,-1
 263 688 l 1,6,-1
 1437 1172 l 1,0,-1
EndSplineSet
Validated: 1
EndChar

StartChar: equal
Encoding: 61 61 30
Width: 1700
Flags: W
LayerCount: 2
Fore
SplineSet
253 485 m 1,0,-1
 1447 485 l 1,1,-1
 1447 321 l 1,2,-1
 253 321 l 1,3,-1
 253 485 l 1,0,-1
253 898 m 1,4,-1
 1447 898 l 1,5,-1
 1447 730 l 1,6,-1
 253 730 l 1,7,-1
 253 898 l 1,4,-1
EndSplineSet
Validated: 1
EndChar

StartChar: greater
Encoding: 62 62 31
Width: 1700
Flags: W
LayerCount: 2
Fore
SplineSet
263 1172 m 1,0,-1
 1437 688 l 1,1,-1
 1437 528 l 1,2,-1
 263 47 l 1,3,-1
 263 228 l 1,4,-1
 1194 608 l 1,5,-1
 263 988 l 1,6,-1
 263 1172 l 1,0,-1
EndSplineSet
Validated: 1
EndChar

StartChar: question
Encoding: 63 63 32
Width: 1219
Flags: W
LayerCount: 2
Fore
SplineSet
598 639 m 1,0,-1
 559 664 l 1,1,2
 569 709 569 709 612 760 c 128,-1,3
 655 811 655 811 732 871 c 0,4,5
 749 885 749 885 781 908 c 0,6,7
 915 1006 915 1006 915 1086 c 0,8,9
 915 1175 915 1175 816 1230.5 c 128,-1,10
 717 1286 717 1286 555 1286 c 0,11,12
 537 1286 537 1286 525 1285.5 c 128,-1,13
 513 1285 513 1285 502 1285 c 1,14,-1
 502 1324 l 1,15,-1
 543 1324 l 2,16,17
 736 1324 736 1324 845.5 1261 c 128,-1,18
 955 1198 955 1198 955 1086 c 0,19,20
 955 988 955 988 802 870 c 0,21,22
 774 849 774 849 759 837 c 0,23,24
 682 776 682 776 646 731 c 128,-1,25
 610 686 610 686 598 639 c 1,0,-1
459 218 m 1,26,-1
 419 259 l 1,27,-1
 598 259 l 1,28,-1
 598 127 l 1,29,-1
 557 169 l 1,30,-1
 557 218 l 1,31,-1
 459 218 l 1,26,-1
729 245 m 1,32,-1
 804 245 l 1,33,-1
 804 -119 l 1,34,-1
 364 -119 l 1,35,-1
 364 0 l 1,36,-1
 288 0 l 1,37,-1
 288 364 l 1,38,-1
 729 364 l 1,39,-1
 729 245 l 1,32,-1
331 321 m 1,40,-1
 331 43 l 1,41,-1
 684 43 l 1,42,-1
 684 321 l 1,43,-1
 331 321 l 1,40,-1
666 578 m 1,44,45
 666 618 666 618 688 655 c 128,-1,46
 710 692 710 692 755 727 c 0,47,48
 780 746 780 746 828 782 c 0,49,50
 1040 942 1040 942 1040 1083 c 0,51,52
 1040 1237 1040 1237 906 1323.5 c 128,-1,53
 772 1410 772 1410 533 1410 c 0,54,55
 424 1410 424 1410 322.5 1393 c 128,-1,56
 221 1376 221 1376 137 1343 c 1,57,-1
 137 1094 l 1,58,59
 209 1122 209 1122 281 1136.5 c 128,-1,60
 353 1151 353 1151 419 1151 c 0,61,62
 516 1151 516 1151 571.5 1111 c 128,-1,63
 627 1071 627 1071 627 1001 c 0,64,65
 627 921 627 921 517 837 c 0,66,67
 466 798 466 798 442 773 c 0,68,69
 396 725 396 725 374.5 681.5 c 128,-1,70
 353 638 353 638 353 590 c 2,71,-1
 353 578 l 1,72,-1
 666 578 l 1,44,45
390 534 m 1,73,-1
 308 535 l 1,74,75
 308 541 308 541 307 551.5 c 128,-1,76
 306 562 306 562 306 567 c 0,77,78
 306 636 306 636 330 689.5 c 128,-1,79
 354 743 354 743 411 802 c 0,80,81
 435 827 435 827 505 881.5 c 128,-1,82
 575 936 575 936 582 978 c 1,83,84
 562 984 562 984 539.5 987 c 128,-1,85
 517 990 517 990 494 990 c 0,86,87
 421 990 421 990 338.5 971 c 128,-1,88
 256 952 256 952 169 915 c 1,89,-1
 169 1061 l 1,90,91
 167 1060 167 1060 141.5 1050 c 128,-1,92
 116 1040 116 1040 94 1032 c 1,93,-1
 94 1371 l 1,94,95
 188 1412 188 1412 300 1432.5 c 128,-1,96
 412 1453 412 1453 533 1453 c 0,97,98
 745 1453 745 1453 882 1386.5 c 128,-1,99
 1019 1320 1019 1320 1065 1194 c 1,100,101
 1112 1147 1112 1147 1136.5 1088.5 c 128,-1,102
 1161 1030 1161 1030 1161 966 c 0,103,104
 1161 858 1161 858 1091.5 772 c 128,-1,105
 1022 686 1022 686 845 580 c 0,106,107
 817 563 817 563 800 524.5 c 128,-1,108
 783 486 783 486 783 438 c 2,109,-1
 783 419 l 1,110,-1
 384 419 l 1,111,-1
 384 453 l 2,112,113
 384 477 384 477 385.5 498 c 128,-1,114
 387 519 387 519 390 534 c 1,73,-1
EndSplineSet
Validated: 1
EndChar

StartChar: at
Encoding: 64 64 33
Width: 2041
Flags: W
LayerCount: 2
Fore
SplineSet
1170 282 m 1,0,1
 1115 195 1115 195 1042.5 155 c 128,-1,2
 970 115 970 115 867 115 c 0,3,4
 716 115 716 115 635.5 201 c 128,-1,5
 555 287 555 287 555 449 c 0,6,7
 555 682 555 682 692.5 843.5 c 128,-1,8
 830 1005 830 1005 1024 1005 c 0,9,10
 1113 1005 1113 1005 1173 970.5 c 128,-1,11
 1233 936 1233 936 1272 863 c 1,12,-1
 1326 970 l 1,13,-1
 1480 970 l 1,14,-1
 1332 386 l 2,15,16
 1331 381 1331 381 1330 374 c 0,17,18
 1324 346 1324 346 1324 337 c 0,19,20
 1324 299 1324 299 1350.5 276 c 128,-1,21
 1377 253 1377 253 1420 253 c 0,22,23
 1471 253 1471 253 1527.5 283.5 c 128,-1,24
 1584 314 1584 314 1632 368 c 0,25,26
 1704 443 1704 443 1742 544.5 c 128,-1,27
 1780 646 1780 646 1780 759 c 0,28,29
 1780 1012 1780 1012 1593.5 1169 c 128,-1,30
 1407 1326 1407 1326 1106 1326 c 0,31,32
 969 1326 969 1326 851 1295.5 c 128,-1,33
 733 1265 733 1265 637 1202 c 0,34,35
 456 1089 456 1089 358.5 911.5 c 128,-1,36
 261 734 261 734 261 518 c 0,37,38
 261 207 261 207 470 21 c 128,-1,39
 679 -165 679 -165 1026 -165 c 0,40,41
 1192 -165 1192 -165 1349 -116.5 c 128,-1,42
 1506 -68 1506 -68 1639 25 c 1,43,-1
 1706 -74 l 1,44,45
 1558 -186 1558 -186 1389 -243 c 128,-1,46
 1220 -300 1220 -300 1034 -300 c 0,47,48
 843 -300 843 -300 684.5 -252 c 128,-1,49
 526 -204 526 -204 405 -111 c 0,50,51
 250 7 250 7 174 164 c 128,-1,52
 98 321 98 321 98 520 c 0,53,54
 98 685 98 685 149.5 833 c 128,-1,55
 201 981 201 981 302 1104 c 0,56,57
 448 1283 448 1283 654 1375.5 c 128,-1,58
 860 1468 860 1468 1112 1468 c 0,59,60
 1278 1468 1278 1468 1426.5 1422.5 c 128,-1,61
 1575 1377 1575 1377 1680 1296 c 0,62,63
 1812 1194 1812 1194 1877.5 1061 c 128,-1,64
 1943 928 1943 928 1943 761 c 0,65,66
 1943 600 1943 600 1878.5 460.5 c 128,-1,67
 1814 321 1814 321 1694 224 c 0,68,69
 1625 169 1625 169 1544.5 141 c 128,-1,70
 1464 113 1464 113 1377 113 c 0,71,72
 1272 113 1272 113 1221 153 c 128,-1,73
 1170 193 1170 193 1170 278 c 2,74,-1
 1170 282 l 1,0,1
1229 705 m 1,75,76
 1215 788 1215 788 1167.5 834 c 128,-1,77
 1120 880 1120 880 1045 880 c 0,78,79
 919 880 919 880 828.5 752 c 128,-1,80
 738 624 738 624 738 442 c 0,81,82
 738 345 738 345 783.5 292 c 128,-1,83
 829 239 829 239 912 239 c 0,84,85
 1002 239 1002 239 1075 305.5 c 128,-1,86
 1148 372 1148 372 1174 477 c 2,87,-1
 1229 705 l 1,75,76
EndSplineSet
Validated: 1
EndChar

StartChar: A
Encoding: 65 65 34
Width: 1634
Flags: W
LayerCount: 2
Back
SplineSet
907 861 m 25,0,-1
 959 641 l 1,1,-1
 827 649 l 1,2,-1
 907 861 l 25,0,-1
EndSplineSet
Fore
SplineSet
621 535 m 1,0,-1
 1036 504 l 1,1,-1
 1047 463 l 1,2,-1
 606 494 l 1,3,-1
 621 535 l 1,0,-1
668 1309 m 1,4,-1
 1129 1276 l 1,5,-1
 1453 88 l 1,6,-1
 1398 135 l 1,7,-1
 1098 1237 l 1,8,-1
 694 1266 l 1,9,-1
 668 1309 l 1,4,-1
1017 592 m 1,10,-1
 653 616 l 1,11,-1
 847 1131 l 1,12,-1
 890 1129 l 1,13,-1
 1017 592 l 1,10,-1
612 1396 m 1,14,-1
 53 100 l 1,15,-1
 444 74 l 1,16,-1
 559 372 l 1,17,-1
 1079 337 l 1,18,-1
 1153 23 l 1,19,-1
 1570 -6 l 1,20,-1
 1198 1355 l 1,21,-1
 612 1396 l 1,14,-1
908 867 m 1,22,-1
 822 647 l 1,23,-1
 962 639 l 1,24,-1
 908 867 l 1,22,-1
584 1441 m 1,25,-1
 1231 1396 l 1,26,-1
 1264 1276 l 1,27,-1
 1312 1272 l 1,28,-1
 1708 -177 l 1,29,-1
 1184 -141 l 1,30,-1
 1159 -20 l 1,31,-1
 1116 -16 l 1,32,-1
 1071 175 l 1,33,-1
 657 204 l 1,34,-1
 541 -96 l 1,35,-1
 57 -61 l 1,36,-1
 109 53 l 1,37,-1
 -10 61 l 1,38,-1
 584 1441 l 1,25,-1
EndSplineSet
Validated: 1
EndChar

StartChar: B
Encoding: 66 66 35
Width: 1482
Flags: W
LayerCount: 2
Fore
SplineSet
1051 496 m 1,0,-1
 1071 533 l 1,1,2
 1128 503 1128 503 1157 456.5 c 128,-1,3
 1186 410 1186 410 1186 347 c 0,4,5
 1186 235 1186 235 1113 174 c 128,-1,6
 1040 113 1040 113 906 113 c 0,7,8
 900 113 900 113 886.5 114 c 128,-1,9
 873 115 873 115 865 115 c 1,10,-1
 865 153 l 1,11,-1
 898 153 l 2,12,13
 1018 153 1018 153 1081.5 203 c 128,-1,14
 1145 253 1145 253 1145 347 c 0,15,16
 1145 400 1145 400 1121.5 437.5 c 128,-1,17
 1098 475 1098 475 1051 496 c 1,0,-1
471 1227 m 1,18,-1
 504 1180 l 1,19,-1
 453 800 l 1,20,-1
 635 773 l 1,21,-1
 631 732 l 1,22,-1
 407 765 l 1,23,-1
 471 1227 l 1,18,-1
555 196 m 1,24,-1
 549 155 l 1,25,-1
 325 187 l 1,26,-1
 394 674 l 1,27,-1
 427 625 l 1,28,-1
 372 222 l 1,29,-1
 555 196 l 1,24,-1
343 1361 m 1,30,-1
 843 1292 l 2,31,32
 1068 1262 1068 1262 1154.5 1206 c 128,-1,33
 1241 1150 1241 1150 1241 1045 c 0,34,35
 1241 956 1241 956 1203.5 899.5 c 128,-1,36
 1166 843 1166 843 1092 822 c 1,37,-1
 1079 861 l 1,38,39
 1141 878 1141 878 1170.5 924.5 c 128,-1,40
 1200 971 1200 971 1200 1049 c 0,41,42
 1200 1132 1200 1132 1124.5 1176.5 c 128,-1,43
 1049 1221 1049 1221 837 1251 c 2,44,-1
 378 1314 l 1,45,-1
 343 1361 l 1,30,-1
514 635 m 1,46,-1
 651 614 l 2,47,48
 772 598 772 598 823 557 c 128,-1,49
 874 516 874 516 874 437 c 0,50,51
 874 350 874 350 828 301.5 c 128,-1,52
 782 253 782 253 700 253 c 0,53,54
 676 253 676 253 651.5 255 c 128,-1,55
 627 257 627 257 602 261 c 2,56,-1
 465 280 l 1,57,-1
 514 635 l 1,46,-1
592 1188 m 1,58,-1
 727 1170 l 2,59,60
 853 1152 853 1152 897 1115 c 128,-1,61
 941 1078 941 1078 941 1003 c 0,62,63
 941 922 941 922 898 873 c 128,-1,64
 855 824 855 824 783 824 c 0,65,66
 759 824 759 824 733 826 c 128,-1,67
 707 828 707 828 680 833 c 2,68,-1
 545 851 l 1,69,-1
 592 1188 l 1,58,-1
267 1453 m 1,70,-1
 84 135 l 1,71,-1
 678 51 l 2,72,73
 752 40 752 40 811.5 34.5 c 128,-1,74
 871 29 871 29 906 29 c 0,75,76
 1081 29 1081 29 1176.5 117 c 128,-1,77
 1272 205 1272 205 1272 368 c 0,78,79
 1272 471 1272 471 1197.5 544.5 c 128,-1,80
 1123 618 1123 618 966 670 c 1,81,-1
 972 711 l 1,82,83
 1152 728 1152 728 1240 810 c 128,-1,84
 1328 892 1328 892 1328 1043 c 0,85,86
 1328 1187 1328 1187 1224 1260.5 c 128,-1,87
 1120 1334 1120 1334 855 1371 c 2,88,-1
 267 1453 l 1,70,-1
896 986 m 1,89,90
 883 994 883 994 853 1001.5 c 128,-1,91
 823 1009 823 1009 779 1015 c 2,92,-1
 690 1026 l 1,93,-1
 670 876 l 1,94,-1
 684 874 l 2,95,96
 689 873 689 873 698 872 c 0,97,98
 760 865 760 865 783 865 c 0,99,100
 831 865 831 865 861 897 c 128,-1,101
 891 929 891 929 896 986 c 1,89,90
610 467 m 1,102,-1
 588 306 l 1,103,-1
 609 302 l 2,104,105
 628 299 628 299 648.5 297.5 c 128,-1,106
 669 296 669 296 700 296 c 0,107,108
 760 296 760 296 793 328.5 c 128,-1,109
 826 361 826 361 830 424 c 1,110,111
 816 434 816 434 784.5 441 c 128,-1,112
 753 448 753 448 707 455 c 2,113,-1
 610 467 l 1,102,-1
109 88 m 1,114,-1
 35 98 l 1,115,-1
 230 1500 l 1,116,-1
 861 1412 l 2,117,118
 1118 1376 1118 1376 1228.5 1308.5 c 128,-1,119
 1339 1241 1339 1241 1365 1112 c 1,120,121
 1399 1066 1399 1066 1415 1019.5 c 128,-1,122
 1431 973 1431 973 1431 919 c 0,123,124
 1431 797 1431 797 1377 710 c 128,-1,125
 1323 623 1323 623 1223 582 c 1,126,127
 1258 548 1258 548 1279.5 508.5 c 128,-1,128
 1301 469 1301 469 1309 423 c 1,129,130
 1340 384 1340 384 1355.5 338.5 c 128,-1,131
 1371 293 1371 293 1371 239 c 0,132,133
 1371 59 1371 59 1264.5 -42 c 128,-1,134
 1158 -143 1158 -143 968 -143 c 0,135,136
 928 -143 928 -143 866.5 -137.5 c 128,-1,137
 805 -132 805 -132 730 -121 c 2,138,-1
 92 -31 l 1,139,-1
 109 88 l 1,114,-1
EndSplineSet
Validated: 1
EndChar

StartChar: C
Encoding: 67 67 36
Width: 1381
Flags: W
LayerCount: 2
Fore
SplineSet
1290 1324 m 1,0,-1
 1276 1225 l 1,1,2
 1290 1219 1290 1219 1324 1207 c 0,3,4
 1341 1201 1341 1201 1349 1198 c 1,5,-1
 1296 824 l 1,6,7
 1201 879 1201 879 1113 906 c 128,-1,8
 1025 933 1025 933 941 933 c 0,9,10
 782 933 782 933 685 823.5 c 128,-1,11
 588 714 588 714 588 535 c 0,12,13
 588 518 588 518 589.5 500.5 c 128,-1,14
 591 483 591 483 594 463 c 1,15,16
 651 386 651 386 743 347 c 128,-1,17
 835 308 835 308 962 308 c 0,18,19
 1000 308 1000 308 1047 313.5 c 128,-1,20
 1094 319 1094 319 1151 331 c 1,21,-1
 1131 189 l 1,22,-1
 1210 204 l 1,23,-1
 1157 -171 l 1,24,25
 1110 -180 1110 -180 1055.5 -184.5 c 128,-1,26
 1001 -189 1001 -189 939 -189 c 0,27,28
 637 -189 637 -189 425.5 -64 c 128,-1,29
 214 61 214 61 135 286 c 1,30,31
 87 368 87 368 63 459.5 c 128,-1,32
 39 551 39 551 39 651 c 0,33,34
 39 1014 39 1014 240 1221.5 c 128,-1,35
 441 1429 441 1429 792 1429 c 0,36,37
 912 1429 912 1429 1035.5 1403 c 128,-1,38
 1159 1377 1159 1377 1290 1324 c 1,0,-1
EndSplineSet
Validated: 1
EndChar

StartChar: D
Encoding: 68 68 37
Width: 1614
Flags: W
LayerCount: 2
Fore
SplineSet
380 1328 m 1,0,-1
 345 1373 l 1,1,-1
 703 1324 l 2,2,3
 888 1299 888 1299 999.5 1262 c 128,-1,4
 1111 1225 1111 1225 1176 1170 c 0,5,6
 1265 1092 1265 1092 1308 988.5 c 128,-1,7
 1351 885 1351 885 1351 747 c 0,8,9
 1351 474 1351 474 1223.5 315 c 128,-1,10
 1096 156 1096 156 865 141 c 1,11,-1
 861 179 l 1,12,13
 1078 198 1078 198 1195 345 c 128,-1,14
 1312 492 1312 492 1312 747 c 0,15,16
 1312 874 1312 874 1271.5 970.5 c 128,-1,17
 1231 1067 1231 1067 1147 1139 c 0,18,19
 1088 1190 1088 1190 981 1224.5 c 128,-1,20
 874 1259 874 1259 696 1284 c 2,21,-1
 380 1328 l 1,0,-1
490 1182 m 1,22,-1
 524 1135 l 1,23,-1
 409 302 l 1,24,-1
 567 280 l 1,25,-1
 561 241 l 1,26,-1
 361 269 l 1,27,-1
 490 1182 l 1,22,-1
614 1143 m 1,28,-1
 771 1120 l 2,29,30
 905 1102 905 1102 970.5 1018.5 c 128,-1,31
 1036 935 1036 935 1036 783 c 0,32,33
 1036 575 1036 575 954.5 455 c 128,-1,34
 873 335 873 335 732 335 c 0,35,36
 720 335 720 335 694 338 c 0,37,38
 690 339 690 339 688 339 c 2,39,-1
 504 366 l 1,40,-1
 614 1143 l 1,28,-1
269 1461 m 1,41,-1
 84 141 l 1,42,-1
 380 100 l 2,43,44
 405 97 405 97 451 91 c 0,45,46
 708 55 708 55 812 55 c 0,47,48
 1105 55 1105 55 1272 239 c 128,-1,49
 1439 423 1439 423 1439 747 c 0,50,51
 1439 902 1439 902 1387.5 1022 c 128,-1,52
 1336 1142 1336 1142 1233 1233 c 0,53,54
 1164 1293 1164 1293 1050.5 1330 c 128,-1,55
 937 1367 937 1367 713 1398 c 2,56,-1
 269 1461 l 1,41,-1
711 972 m 1,57,-1
 629 392 l 1,58,-1
 695 382 l 2,59,60
 702 381 702 381 710 380.5 c 128,-1,61
 718 380 718 380 732 380 c 0,62,63
 854 380 854 380 924 487 c 128,-1,64
 994 594 994 594 994 783 c 0,65,66
 994 806 994 806 991 831 c 128,-1,67
 988 856 988 856 982 886 c 1,68,69
 959 913 959 913 920.5 930.5 c 128,-1,70
 882 948 882 948 826 955 c 2,71,-1
 711 972 l 1,57,-1
111 96 m 1,72,-1
 35 106 l 1,73,-1
 232 1511 l 1,74,-1
 719 1441 l 2,75,76
 1067 1392 1067 1392 1221.5 1292 c 128,-1,77
 1376 1192 1376 1192 1445 990 c 1,78,79
 1493 916 1493 916 1517 823.5 c 128,-1,80
 1541 731 1541 731 1541 619 c 0,81,82
 1541 277 1541 277 1362 81 c 128,-1,83
 1183 -115 1183 -115 869 -115 c 0,84,85
 800 -115 800 -115 711.5 -106 c 128,-1,86
 623 -97 623 -97 433 -70 c 2,87,-1
 94 -23 l 1,88,-1
 111 96 l 1,72,-1
EndSplineSet
Validated: 1
EndChar

StartChar: E
Encoding: 69 69 38
Width: 1294
Flags: W
LayerCount: 2
Fore
SplineSet
230 1484 m 1,0,-1
 1196 1347 l 1,1,-1
 1180 1231 l 1,2,-1
 1256 1221 l 1,3,-1
 1206 880 l 1,4,-1
 709 951 l 1,5,-1
 700 894 l 1,6,-1
 1122 835 l 1,7,-1
 1108 719 l 1,8,-1
 1182 709 l 1,9,-1
 1135 370 l 1,10,-1
 637 438 l 1,11,-1
 629 382 l 1,12,-1
 1051 323 l 1,13,-1
 1034 206 l 1,14,-1
 1110 196 l 1,15,-1
 1057 -183 l 1,16,-1
 92 -49 l 1,17,-1
 109 70 l 1,18,-1
 33 80 l 1,19,-1
 230 1484 l 1,0,-1
EndSplineSet
Validated: 1
EndChar

StartChar: F
Encoding: 70 70 39
Width: 1276
Flags: W
LayerCount: 2
Fore
SplineSet
372 1292 m 1,0,-1
 337 1336 l 1,1,-1
 1045 1239 l 1,2,-1
 1026 1116 l 1,3,-1
 992 1163 l 1,4,-1
 998 1204 l 1,5,-1
 372 1292 l 1,0,-1
483 1147 m 1,6,-1
 516 1100 l 1,7,-1
 467 749 l 1,8,-1
 966 680 l 1,9,-1
 949 559 l 1,10,-1
 915 602 l 1,11,-1
 919 645 l 1,12,-1
 423 715 l 1,13,-1
 483 1147 l 1,6,-1
405 592 m 1,14,-1
 438 543 l 1,15,-1
 384 157 l 1,16,-1
 349 200 l 1,17,-1
 405 592 l 1,14,-1
261 1435 m 1,18,-1
 78 115 l 1,19,-1
 463 59 l 1,20,-1
 533 551 l 1,21,-1
 1011 483 l 1,22,-1
 1049 755 l 1,23,-1
 571 822 l 1,24,-1
 610 1108 l 1,25,-1
 1090 1040 l 1,26,-1
 1126 1312 l 1,27,-1
 261 1435 l 1,18,-1
1159 1231 m 1,28,-1
 1235 1221 l 1,29,-1
 1186 865 l 1,30,-1
 707 933 l 1,31,-1
 694 849 l 1,32,-1
 1098 792 l 1,33,-1
 1081 676 l 1,34,-1
 1157 664 l 1,35,-1
 1106 308 l 1,36,-1
 629 376 l 1,37,-1
 559 -115 l 1,38,-1
 86 -49 l 1,39,-1
 102 68 l 1,40,-1
 29 78 l 1,41,-1
 224 1482 l 1,42,-1
 1176 1349 l 1,43,-1
 1159 1231 l 1,28,-1
EndSplineSet
Validated: 1
EndChar

StartChar: G
Encoding: 71 71 40
Width: 1566
Flags: W
LayerCount: 2
Fore
SplineSet
1241 1213 m 1,0,1
 1196 1228 1196 1228 1141.5 1239.5 c 128,-1,2
 1087 1251 1087 1251 1017 1260 c 1,3,-1
 1020 1301 l 1,4,5
 1094 1293 1094 1293 1161.5 1277.5 c 128,-1,6
 1229 1262 1229 1262 1288 1239 c 1,7,-1
 1270 1112 l 1,8,-1
 1233 1147 l 1,9,-1
 1241 1213 l 1,0,1
1047 533 m 1,10,-1
 1239 506 l 1,11,-1
 1178 74 l 1,12,-1
 1141 113 l 1,13,-1
 1192 471 l 1,14,-1
 1081 485 l 1,15,-1
 1047 533 l 1,10,-1
492 382 m 1,16,17
 545 287 545 287 639 233.5 c 128,-1,18
 733 180 733 180 874 165 c 1,19,-1
 904 123 l 1,20,21
 737 132 737 132 625 191.5 c 128,-1,22
 513 251 513 251 455 361 c 1,23,-1
 492 382 l 1,16,17
1381 1294 m 1,24,25
 1248 1343 1248 1343 1108.5 1368.5 c 128,-1,26
 969 1394 969 1394 826 1394 c 0,27,28
 496 1394 496 1394 304.5 1204 c 128,-1,29
 113 1014 113 1014 113 686 c 0,30,31
 113 370 113 370 365.5 172.5 c 128,-1,32
 618 -25 618 -25 1030 -25 c 0,33,34
 1083 -25 1083 -25 1139.5 -19.5 c 128,-1,35
 1196 -14 1196 -14 1256 -4 c 1,36,-1
 1336 578 l 1,37,-1
 974 629 l 1,38,-1
 920 249 l 1,39,40
 726 251 726 251 619 354 c 128,-1,41
 512 457 512 457 512 643 c 0,42,43
 512 863 512 863 628 989.5 c 128,-1,44
 744 1116 744 1116 945 1116 c 0,45,46
 1030 1116 1030 1116 1132 1089.5 c 128,-1,47
 1234 1063 1234 1063 1343 1013 c 1,48,-1
 1381 1294 l 1,24,25
1431 1322 m 1,49,-1
 1416 1221 l 1,50,-1
 1488 1196 l 1,51,-1
 1435 820 l 1,52,53
 1312 882 1312 882 1203 913.5 c 128,-1,54
 1094 945 1094 945 1003 945 c 0,55,56
 821 945 821 945 717.5 830 c 128,-1,57
 614 715 614 715 614 514 c 0,58,59
 614 485 614 485 616.5 461 c 128,-1,60
 619 437 619 437 625 412 c 1,61,62
 669 356 669 356 732 327.5 c 128,-1,63
 795 299 795 299 881 296 c 1,64,-1
 937 678 l 1,65,-1
 1386 614 l 1,66,-1
 1369 498 l 1,67,-1
 1443 485 l 1,68,-1
 1351 -169 l 1,69,70
 1277 -181 1277 -181 1211 -187.5 c 128,-1,71
 1145 -194 1145 -194 1090 -194 c 0,72,73
 734 -194 734 -194 493 -53 c 128,-1,74
 252 88 252 88 159 347 c 1,75,76
 115 418 115 418 92.5 504.5 c 128,-1,77
 70 591 70 591 70 692 c 0,78,79
 70 1034 70 1034 274.5 1235.5 c 128,-1,80
 479 1437 479 1437 826 1437 c 0,81,82
 973 1437 973 1437 1125 1408 c 128,-1,83
 1277 1379 1277 1379 1431 1322 c 1,49,-1
EndSplineSet
Validated: 1
EndChar

StartChar: H
Encoding: 72 72 41
Width: 1616
Flags: W
LayerCount: 2
Fore
SplineSet
1200 1200 m 1,0,-1
 1167 1245 l 1,1,-1
 1375 1217 l 1,2,-1
 1215 66 l 1,3,-1
 1180 113 l 1,4,-1
 1330 1182 l 1,5,-1
 1200 1200 l 1,0,-1
343 1361 m 1,6,-1
 553 1332 l 1,7,-1
 487 863 l 1,8,-1
 984 794 l 1,9,-1
 1019 749 l 1,10,-1
 440 828 l 1,11,-1
 506 1299 l 1,12,-1
 378 1314 l 1,13,-1
 343 1361 l 1,6,-1
449 590 m 1,14,-1
 390 181 l 1,15,-1
 357 228 l 1,16,-1
 415 639 l 1,17,-1
 449 590 l 1,14,-1
269 1457 m 1,18,-1
 84 139 l 1,19,-1
 465 84 l 1,20,-1
 537 600 l 1,21,-1
 980 537 l 1,22,-1
 906 23 l 1,23,-1
 1288 -31 l 1,24,-1
 1474 1288 l 1,25,-1
 1092 1343 l 1,26,-1
 1026 874 l 1,27,-1
 586 937 l 1,28,-1
 651 1404 l 1,29,-1
 269 1457 l 1,18,-1
230 1506 m 1,30,-1
 700 1441 l 1,31,-1
 684 1322 l 1,32,-1
 757 1312 l 1,33,-1
 709 962 l 1,34,-1
 990 923 l 1,35,-1
 1055 1390 l 1,36,-1
 1523 1324 l 1,37,-1
 1506 1208 l 1,38,-1
 1582 1196 l 1,39,-1
 1384 -206 l 1,40,-1
 917 -141 l 1,41,-1
 933 -25 l 1,42,-1
 857 -12 l 1,43,-1
 915 384 l 1,44,-1
 633 425 l 1,45,-1
 561 -90 l 1,46,-1
 92 -25 l 1,47,-1
 109 92 l 1,48,-1
 35 102 l 1,49,-1
 230 1506 l 1,30,-1
EndSplineSet
Validated: 1
EndChar

StartChar: I
Encoding: 73 73 42
Width: 783
Flags: W
LayerCount: 2
Fore
SplineSet
374 1258 m 1,0,-1
 339 1305 l 1,1,-1
 549 1274 l 1,2,-1
 388 123 l 1,3,-1
 353 171 l 1,4,-1
 502 1239 l 1,5,-1
 374 1258 l 1,0,-1
265 1400 m 1,6,-1
 80 80 l 1,7,-1
 461 27 l 1,8,-1
 647 1345 l 1,9,-1
 265 1400 l 1,6,-1
680 1266 m 1,10,-1
 753 1256 l 1,11,-1
 557 -149 l 1,12,-1
 90 -84 l 1,13,-1
 106 35 l 1,14,-1
 31 45 l 1,15,-1
 228 1447 l 1,16,-1
 696 1381 l 1,17,-1
 680 1266 l 1,10,-1
EndSplineSet
Validated: 1
EndChar

StartChar: J
Encoding: 74 74 43
Width: 1038
Flags: W
LayerCount: 2
Fore
SplineSet
949 1243 m 1,0,-1
 1024 1233 l 1,1,-1
 896 316 l 2,2,3
 862 75 862 75 761 -38 c 128,-1,4
 660 -151 660 -151 479 -151 c 0,5,6
 376 -151 376 -151 264 -124.5 c 128,-1,7
 152 -98 152 -98 41 -47 c 1,8,-1
 53 49 l 1,9,10
 42 53 42 53 23.5 61 c 128,-1,11
 5 69 5 69 -18 80 c 1,12,-1
 35 455 l 1,13,14
 89 432 89 432 132.5 420.5 c 128,-1,15
 176 409 176 409 212 409 c 0,16,17
 293 409 293 409 331 456.5 c 128,-1,18
 369 504 369 504 392 666 c 2,19,-1
 498 1425 l 1,20,-1
 966 1359 l 1,21,-1
 949 1243 l 1,0,-1
EndSplineSet
Validated: 1
EndChar

StartChar: K
Encoding: 75 75 44
Width: 1549
Flags: W
LayerCount: 2
Fore
SplineSet
155 1494 m 1,0,-1
 625 1445 l 1,1,-1
 612 1326 l 1,2,-1
 688 1318 l 1,3,-1
 662 1061 l 1,4,-1
 964 1408 l 1,5,-1
 1513 1351 l 1,6,-1
 1406 1243 l 1,7,-1
 1574 1225 l 1,8,-1
 1017 666 l 1,9,-1
 1527 -194 l 1,10,-1
 937 -133 l 1,11,-1
 874 -6 l 1,12,-1
 828 -2 l 1,13,-1
 598 453 l 1,14,-1
 541 -90 l 1,15,-1
 70 -41 l 1,16,-1
 82 76 l 1,17,-1
 6 84 l 1,18,-1
 155 1494 l 1,0,-1
EndSplineSet
EndChar

StartChar: L
Encoding: 76 76 45
Width: 1167
Flags: W
LayerCount: 2
Fore
SplineSet
405 1292 m 1,0,-1
 370 1338 l 1,1,-1
 584 1309 l 1,2,-1
 444 316 l 1,3,-1
 931 247 l 1,4,-1
 908 90 l 1,5,-1
 874 137 l 1,6,-1
 886 212 l 1,7,-1
 398 282 l 1,8,-1
 537 1274 l 1,9,-1
 405 1292 l 1,0,-1
294 1435 m 1,10,-1
 111 115 l 1,11,-1
 982 -8 l 1,12,-1
 1028 321 l 1,13,-1
 543 388 l 1,14,-1
 682 1379 l 1,15,-1
 294 1435 l 1,10,-1
257 1482 m 1,16,-1
 730 1416 l 1,17,-1
 715 1301 l 1,18,-1
 790 1288 l 1,19,-1
 666 415 l 1,20,-1
 1077 355 l 1,21,-1
 1061 239 l 1,22,-1
 1137 228 l 1,23,-1
 1077 -183 l 1,24,-1
 119 -49 l 1,25,-1
 135 70 l 1,26,-1
 61 80 l 1,27,-1
 257 1482 l 1,16,-1
EndSplineSet
Validated: 1
EndChar

StartChar: M
Encoding: 77 77 46
Width: 2170
Flags: W
LayerCount: 2
Fore
SplineSet
1088 127 m 1,0,-1
 1059 163 l 1,1,-1
 1418 816 l 1,2,-1
 1453 798 l 1,3,-1
 1088 127 l 1,0,-1
455 839 m 1,4,-1
 409 173 l 1,5,-1
 372 218 l 1,6,-1
 413 802 l 1,7,-1
 455 839 l 1,4,-1
333 1303 m 1,8,-1
 296 1347 l 1,9,-1
 639 1322 l 1,10,-1
 941 504 l 1,11,-1
 894 508 l 1,12,-1
 610 1284 l 1,13,-1
 333 1303 l 1,8,-1
1543 1260 m 1,14,-1
 1888 1235 l 1,15,-1
 1806 76 l 1,16,-1
 1770 121 l 1,17,-1
 1845 1198 l 1,18,-1
 1566 1217 l 1,19,-1
 1543 1260 l 1,14,-1
214 1437 m 1,20,-1
 121 109 l 1,21,-1
 490 84 l 1,22,-1
 541 816 l 1,23,-1
 582 826 l 1,24,-1
 869 57 l 1,25,-1
 1139 37 l 1,26,-1
 1531 761 l 1,27,-1
 1570 742 l 1,28,-1
 1519 10 l 1,29,-1
 1888 -14 l 1,30,-1
 1980 1314 l 1,31,-1
 1492 1347 l 1,32,-1
 1034 498 l 1,33,-1
 703 1402 l 1,34,-1
 214 1437 l 1,20,-1
173 1484 m 1,35,-1
 732 1443 l 1,36,-1
 777 1322 l 1,37,-1
 800 1320 l 1,38,-1
 1055 629 l 1,39,-1
 1468 1392 l 1,40,-1
 2027 1353 l 1,41,-1
 2018 1235 l 1,42,-1
 2094 1231 l 1,43,-1
 1996 -183 l 1,44,-1
 1541 -151 l 1,45,-1
 1549 -35 l 1,46,-1
 1474 -29 l 1,47,-1
 1500 368 l 1,48,-1
 1231 -131 l 1,49,-1
 906 -109 l 1,50,-1
 861 14 l 1,51,-1
 839 16 l 1,52,-1
 641 545 l 1,53,-1
 598 -86 l 1,54,-1
 143 -55 l 1,55,-1
 151 63 l 1,56,-1
 76 70 l 1,57,-1
 173 1484 l 1,35,-1
EndSplineSet
Validated: 1
EndChar

StartChar: N
Encoding: 78 78 47
Width: 1731
Flags: W
LayerCount: 2
Fore
SplineSet
378 1322 m 1,0,-1
 343 1369 l 1,1,-1
 633 1328 l 1,2,-1
 1036 465 l 1,3,-1
 1001 444 l 1,4,-1
 604 1292 l 1,5,-1
 378 1322 l 1,0,-1
1292 1237 m 1,6,-1
 1492 1208 l 1,7,-1
 1328 57 l 1,8,-1
 1294 104 l 1,9,-1
 1445 1174 l 1,10,-1
 1326 1190 l 1,11,-1
 1292 1237 l 1,6,-1
475 853 m 1,12,-1
 382 189 l 1,13,-1
 347 239 l 1,14,-1
 435 859 l 1,15,-1
 475 853 l 1,12,-1
269 1465 m 1,16,-1
 84 146 l 1,17,-1
 457 94 l 1,18,-1
 559 824 l 1,19,-1
 600 835 l 1,20,-1
 982 20 l 1,21,-1
 1404 -39 l 1,22,-1
 1590 1280 l 1,23,-1
 1217 1332 l 1,24,-1
 1114 602 l 1,25,-1
 1071 594 l 1,26,-1
 692 1406 l 1,27,-1
 269 1465 l 1,16,-1
232 1515 m 1,28,-1
 721 1445 l 1,29,-1
 1081 678 l 1,30,-1
 1180 1381 l 1,31,-1
 1639 1316 l 1,32,-1
 1622 1200 l 1,33,-1
 1696 1188 l 1,34,-1
 1498 -214 l 1,35,-1
 1038 -149 l 1,36,-1
 980 -23 l 1,37,-1
 951 -18 l 1,38,-1
 651 623 l 1,39,-1
 551 -82 l 1,40,-1
 94 -16 l 1,41,-1
 111 100 l 1,42,-1
 35 111 l 1,43,-1
 232 1515 l 1,28,-1
EndSplineSet
Validated: 1
EndChar

StartChar: O
Encoding: 79 79 48
Width: 1747
Flags: W
LayerCount: 2
Fore
SplineSet
645 314 m 1,0,-1
 627 278 l 1,1,2
 513 339 513 339 454 440.5 c 128,-1,3
 395 542 395 542 392 679 c 1,4,-1
 433 682 l 1,5,6
 435 557 435 557 488 465 c 128,-1,7
 541 373 541 373 645 314 c 1,0,-1
925 1284 m 1,8,-1
 931 1324 l 1,9,10
 1194 1284 1194 1284 1340 1127.5 c 128,-1,11
 1486 971 1486 971 1486 729 c 0,12,13
 1486 445 1486 445 1318.5 269.5 c 128,-1,14
 1151 94 1151 94 884 94 c 0,15,16
 855 94 855 94 823 96 c 128,-1,17
 791 98 791 98 759 102 c 1,18,-1
 765 143 l 1,19,20
 795 139 795 139 824 137 c 128,-1,21
 853 135 853 135 882 135 c 0,22,23
 1132 135 1132 135 1288.5 299 c 128,-1,24
 1445 463 1445 463 1445 729 c 0,25,26
 1445 956 1445 956 1309.5 1100.5 c 128,-1,27
 1174 1245 1174 1245 925 1284 c 1,8,-1
851 1073 m 0,28,29
 989 1073 989 1073 1078 977.5 c 128,-1,30
 1167 882 1167 882 1167 732 c 0,31,32
 1167 561 1167 561 1076.5 456 c 128,-1,33
 986 351 986 351 841 351 c 0,34,35
 701 351 701 351 610.5 444 c 128,-1,36
 520 537 520 537 520 682 c 0,37,38
 520 855 520 855 613.5 964 c 128,-1,39
 707 1073 707 1073 851 1073 c 0,28,29
1572 729 m 0,40,41
 1572 853 1572 853 1536.5 958.5 c 128,-1,42
 1501 1064 1501 1064 1431 1151 c 0,43,44
 1325 1281 1325 1281 1166.5 1348.5 c 128,-1,45
 1008 1416 1008 1416 808 1416 c 0,46,47
 691 1416 691 1416 590.5 1386 c 128,-1,48
 490 1356 490 1356 402 1296 c 0,49,50
 265 1200 265 1200 191 1044 c 128,-1,51
 117 888 117 888 117 698 c 0,52,53
 117 575 117 575 152.5 469 c 128,-1,54
 188 363 188 363 261 273 c 0,55,56
 365 146 365 146 523.5 78 c 128,-1,57
 682 10 682 10 878 10 c 0,58,59
 996 10 996 10 1098 40.5 c 128,-1,60
 1200 71 1200 71 1286 131 c 0,61,62
 1423 226 1423 226 1497.5 381 c 128,-1,63
 1572 536 1572 536 1572 729 c 0,40,41
1118 806 m 1,64,65
 1073 856 1073 856 1022.5 880 c 128,-1,66
 972 904 972 904 912 904 c 0,67,68
 785 904 785 904 703 805.5 c 128,-1,69
 621 707 621 707 621 551 c 0,70,71
 621 536 621 536 624 499 c 0,72,73
 624 494 624 494 625 492 c 0,74,75
 669 443 669 443 723.5 418.5 c 128,-1,76
 778 394 778 394 843 394 c 0,77,78
 970 394 970 394 1047 487.5 c 128,-1,79
 1124 581 1124 581 1124 734 c 0,80,81
 1124 751 1124 751 1122.5 768.5 c 128,-1,82
 1121 786 1121 786 1118 806 c 1,64,65
1578 972 m 1,83,84
 1625 892 1625 892 1649 801 c 128,-1,85
 1673 710 1673 710 1673 610 c 0,86,87
 1673 457 1673 457 1630.5 327 c 128,-1,88
 1588 197 1588 197 1502 90 c 0,89,90
 1404 -32 1404 -32 1258 -96.5 c 128,-1,91
 1112 -161 1112 -161 937 -161 c 0,92,93
 658 -161 658 -161 455.5 -32.5 c 128,-1,94
 253 96 253 96 171 325 c 1,95,96
 122 406 122 406 98 497.5 c 128,-1,97
 74 589 74 589 74 696 c 0,98,99
 74 844 74 844 117.5 974 c 128,-1,100
 161 1104 161 1104 247 1210 c 0,101,102
 345 1330 345 1330 490 1394.5 c 128,-1,103
 635 1459 635 1459 810 1459 c 0,104,105
 1091 1459 1091 1459 1294 1330.5 c 128,-1,106
 1497 1202 1497 1202 1578 972 c 1,83,84
EndSplineSet
Validated: 1
EndChar

StartChar: P
Encoding: 80 80 49
Width: 1570
Flags: W
LayerCount: 2
Fore
SplineSet
982 920 m 1,0,1
 964 937 964 937 922 949.5 c 128,-1,2
 880 962 880 962 798 974 c 2,3,-1
 713 986 l 1,4,-1
 684 779 l 1,5,-1
 694 777 l 2,6,7
 730 771 730 771 762 768 c 128,-1,8
 794 765 794 765 820 765 c 0,9,10
 898 765 898 765 939 804.5 c 128,-1,11
 980 844 980 844 982 920 c 1,0,1
109 92 m 1,12,-1
 35 104 l 1,13,-1
 232 1506 l 1,14,-1
 886 1414 l 2,15,16
 1159 1376 1159 1376 1285 1296 c 128,-1,17
 1411 1216 1411 1216 1455 1059 c 1,18,19
 1494 1002 1494 1002 1513.5 934.5 c 128,-1,20
 1533 867 1533 867 1533 792 c 0,21,22
 1533 551 1533 551 1396 410 c 128,-1,23
 1259 269 1259 269 1024 269 c 0,24,25
 989 269 989 269 951 272.5 c 128,-1,26
 913 276 913 276 876 282 c 2,27,-1
 619 316 l 1,28,-1
 561 -90 l 1,29,-1
 94 -25 l 1,30,-1
 109 92 l 1,12,-1
EndSplineSet
Validated: 1
EndChar

StartChar: Q
Encoding: 81 81 50
Width: 1747
Flags: W
LayerCount: 2
Fore
SplineSet
788 261 m 1,0,-1
 781 218 l 1,1,2
 604 249 604 249 503 367 c 128,-1,3
 402 485 402 485 396 670 c 1,4,-1
 437 672 l 1,5,6
 441 504 441 504 534 395.5 c 128,-1,7
 627 287 627 287 788 261 c 1,0,-1
929 1274 m 1,8,-1
 935 1312 l 1,9,10
 1199 1272 1199 1272 1344.5 1116.5 c 128,-1,11
 1490 961 1490 961 1490 719 c 0,12,13
 1490 474 1490 474 1364 309 c 128,-1,14
 1238 144 1238 144 1017 96 c 1,15,-1
 1215 -230 l 1,16,-1
 1133 -177 l 1,17,-1
 949 129 l 1,18,19
 1180 154 1180 154 1314.5 312 c 128,-1,20
 1449 470 1449 470 1449 717 c 0,21,22
 1449 944 1449 944 1313.5 1089 c 128,-1,23
 1178 1234 1178 1234 929 1274 c 1,8,-1
1122 796 m 1,24,25
 1079 845 1079 845 1027.5 869.5 c 128,-1,26
 976 894 976 894 917 894 c 0,27,28
 789 894 789 894 707 794.5 c 128,-1,29
 625 695 625 695 625 539 c 0,30,31
 625 527 625 527 627 499 c 0,32,33
 628 488 628 488 629 481 c 0,34,35
 673 433 673 433 727.5 408.5 c 128,-1,36
 782 384 782 384 847 384 c 0,37,38
 974 384 974 384 1051.5 477 c 128,-1,39
 1129 570 1129 570 1129 725 c 0,40,41
 1129 739 1129 739 1127 758 c 128,-1,42
 1125 777 1125 777 1122 796 c 1,24,25
855 1063 m 0,43,44
 993 1063 993 1063 1082.5 967 c 128,-1,45
 1172 871 1172 871 1172 723 c 0,46,47
 1172 551 1172 551 1081.5 446 c 128,-1,48
 991 341 991 341 845 341 c 0,49,50
 705 341 705 341 614.5 433 c 128,-1,51
 524 525 524 525 524 670 c 0,52,53
 524 843 524 843 617.5 953 c 128,-1,54
 711 1063 711 1063 855 1063 c 0,43,44
1147 43 m 1,55,56
 1350 121 1350 121 1463 298.5 c 128,-1,57
 1576 476 1576 476 1576 719 c 0,58,59
 1576 842 1576 842 1540.5 947 c 128,-1,60
 1505 1052 1505 1052 1433 1141 c 0,61,62
 1329 1269 1329 1269 1170 1337.5 c 128,-1,63
 1011 1406 1011 1406 814 1406 c 0,64,65
 697 1406 697 1406 595.5 1376 c 128,-1,66
 494 1346 494 1346 409 1286 c 0,67,68
 270 1190 270 1190 195.5 1034 c 128,-1,69
 121 878 121 878 121 686 c 0,70,71
 121 413 121 413 287 241.5 c 128,-1,72
 453 70 453 70 763 25 c 1,73,-1
 910 -273 l 1,74,-1
 1381 -341 l 1,75,-1
 1147 43 l 1,55,56
880 -312 m 1,76,-1
 796 -141 l 1,77,78
 549 -103 549 -103 393 14 c 128,-1,79
 237 131 237 131 171 325 c 1,80,81
 124 404 124 404 100 490.5 c 128,-1,82
 76 577 76 577 76 666 c 0,83,84
 76 822 76 822 120 957.5 c 128,-1,85
 164 1093 164 1093 251 1200 c 0,86,87
 349 1320 349 1320 494 1384.5 c 128,-1,88
 639 1449 639 1449 814 1449 c 0,89,90
 1093 1449 1093 1449 1296.5 1320.5 c 128,-1,91
 1500 1192 1500 1192 1582 964 c 1,92,93
 1629 884 1629 884 1653 793 c 128,-1,94
 1677 702 1677 702 1677 600 c 0,95,96
 1677 377 1677 377 1589 205 c 128,-1,97
 1501 33 1501 33 1332 -72 c 1,98,-1
 1616 -535 l 1,99,-1
 1028 -453 l 1,100,-1
 966 -325 l 1,101,-1
 880 -312 l 1,76,-1
EndSplineSet
Validated: 1
EndChar

StartChar: R
Encoding: 82 82 51
Width: 1578
Flags: W
LayerCount: 2
Fore
SplineSet
1061 447 m 1,0,-1
 1079 483 l 1,1,2
 1142 461 1142 461 1170 420 c 128,-1,3
 1198 379 1198 379 1204 294 c 2,4,-1
 1223 68 l 1,5,-1
 1178 117 l 1,6,-1
 1163 290 l 2,7,8
 1158 368 1158 368 1135.5 399 c 128,-1,9
 1113 430 1113 430 1061 447 c 1,0,-1
343 1363 m 1,10,-1
 964 1278 l 2,11,12
 1172 1248 1172 1248 1255 1187 c 128,-1,13
 1338 1126 1338 1126 1338 1011 c 0,14,15
 1338 905 1338 905 1290.5 843 c 128,-1,16
 1243 781 1243 781 1145 761 c 1,17,-1
 1135 802 l 1,18,19
 1219 818 1219 818 1259 868.5 c 128,-1,20
 1299 919 1299 919 1299 1011 c 0,21,22
 1299 1108 1299 1108 1224 1159 c 128,-1,23
 1149 1210 1149 1210 958 1237 c 2,24,-1
 378 1318 l 1,25,-1
 343 1363 l 1,10,-1
366 187 m 1,26,-1
 331 235 l 1,27,-1
 384 606 l 1,28,-1
 419 559 l 1,29,-1
 366 187 l 1,26,-1
469 1223 m 1,30,-1
 504 1176 l 1,31,-1
 442 736 l 1,32,-1
 627 713 l 1,33,-1
 621 672 l 1,34,-1
 396 703 l 1,35,-1
 469 1223 l 1,30,-1
619 1180 m 1,36,-1
 742 1163 l 2,37,38
 892 1142 892 1142 952.5 1094.5 c 128,-1,39
 1013 1047 1013 1047 1013 958 c 0,40,41
 1013 866 1013 866 958.5 812.5 c 128,-1,42
 904 759 904 759 810 759 c 0,43,44
 788 759 788 759 759 761.5 c 128,-1,45
 730 764 730 764 689 769 c 2,46,-1
 563 788 l 1,47,-1
 619 1180 l 1,36,-1
269 1461 m 1,48,-1
 84 141 l 1,49,-1
 465 88 l 1,50,-1
 533 565 l 1,51,-1
 682 543 l 2,52,53
 800 527 800 527 844 473 c 128,-1,54
 888 419 888 419 890 257 c 2,55,-1
 894 27 l 1,56,-1
 1316 -33 l 1,57,-1
 1292 300 l 2,58,59
 1282 434 1282 434 1215 501 c 128,-1,60
 1148 568 1148 568 982 610 c 1,61,-1
 988 653 l 1,62,63
 1208 660 1208 660 1317.5 747.5 c 128,-1,64
 1427 835 1427 835 1427 1007 c 0,65,66
 1427 1161 1427 1161 1321.5 1244 c 128,-1,67
 1216 1327 1216 1327 974 1361 c 2,68,-1
 269 1461 l 1,48,-1
715 1005 m 1,69,-1
 688 812 l 1,70,-1
 695 812 l 1,71,72
 727 807 727 807 755.5 804.5 c 128,-1,73
 784 802 784 802 812 802 c 0,74,75
 883 802 883 802 923.5 838.5 c 128,-1,76
 964 875 964 875 970 945 c 1,77,78
 951 961 951 961 910 972.5 c 128,-1,79
 869 984 869 984 796 994 c 2,80,-1
 715 1005 l 1,69,-1
1260 516 m 1,81,82
 1285 486 1285 486 1301 452.5 c 128,-1,83
 1317 419 1317 419 1325 381 c 1,84,85
 1354 348 1354 348 1370.5 298 c 128,-1,86
 1387 248 1387 248 1392 175 c 2,87,-1
 1422 -210 l 1,88,-1
 908 -137 l 1,89,-1
 906 -18 l 1,90,-1
 851 -10 l 1,91,-1
 845 339 l 1,92,93
 825 352 825 352 797.5 360.5 c 128,-1,94
 770 369 770 369 732 374 c 2,95,-1
 629 390 l 1,96,-1
 561 -88 l 1,97,-1
 94 -23 l 1,98,-1
 111 94 l 1,99,-1
 35 104 l 1,100,-1
 232 1508 l 1,101,-1
 980 1404 l 2,102,103
 1206 1373 1206 1373 1316.5 1301 c 128,-1,104
 1427 1229 1427 1229 1461 1092 c 1,105,106
 1495 1046 1495 1046 1512 992.5 c 128,-1,107
 1529 939 1529 939 1529 878 c 0,108,109
 1529 738 1529 738 1458 643.5 c 128,-1,110
 1387 549 1387 549 1260 516 c 1,81,82
EndSplineSet
Validated: 1
EndChar

StartChar: S
Encoding: 83 83 52
Width: 1198
Flags: W
LayerCount: 2
Fore
SplineSet
1011 1379 m 1,0,-1
 996 1276 l 1,1,-1
 1069 1251 l 1,2,-1
 1019 888 l 1,3,4
 961 906 961 906 910 915.5 c 128,-1,5
 859 925 859 925 816 925 c 0,6,7
 771 925 771 925 744.5 914 c 128,-1,8
 718 903 718 903 705 880 c 1,9,10
 858 805 858 805 934.5 730.5 c 128,-1,11
 1011 656 1011 656 1030 561 c 1,12,13
 1066 505 1066 505 1083 449 c 128,-1,14
 1100 393 1100 393 1100 331 c 0,15,16
 1100 114 1100 114 962.5 -16 c 128,-1,17
 825 -146 825 -146 596 -146 c 0,18,19
 477 -146 477 -146 356 -120 c 128,-1,20
 235 -94 235 -94 111 -41 c 1,21,-1
 125 57 l 1,22,23
 97 68 97 68 63 82 c 0,24,25
 56 85 56 85 53 86 c 2,26,-1
 104 453 l 1,27,28
 206 397 206 397 292 368 c 128,-1,29
 378 339 378 339 442 339 c 0,30,31
 492 339 492 339 521 357.5 c 128,-1,32
 550 376 550 376 561 415 c 1,33,34
 382 535 382 535 313 610.5 c 128,-1,35
 244 686 244 686 228 767 c 1,36,37
 196 810 196 810 179.5 861.5 c 128,-1,38
 163 913 163 913 163 974 c 0,39,40
 163 1187 163 1187 295.5 1318 c 128,-1,41
 428 1449 428 1449 643 1449 c 0,42,43
 735 1449 735 1449 826.5 1432 c 128,-1,44
 918 1415 918 1415 1011 1379 c 1,0,-1
EndSplineSet
Validated: 1
EndChar

StartChar: T
Encoding: 84 84 53
Width: 1541
Flags: W
LayerCount: 2
Fore
SplineSet
194 1322 m 1,0,-1
 159 1369 l 1,1,-1
 1305 1208 l 1,2,-1
 1282 1049 l 1,3,-1
 1247 1096 l 1,4,-1
 1260 1174 l 1,5,-1
 194 1322 l 1,0,-1
800 1011 m 1,6,-1
 676 123 l 1,7,-1
 465 153 l 1,8,-1
 510 187 l 1,9,-1
 641 169 l 1,10,-1
 765 1057 l 1,11,-1
 800 1011 l 1,6,-1
86 1465 m 1,12,-1
 39 1139 l 1,13,-1
 506 1071 l 1,14,-1
 368 80 l 1,15,-1
 749 27 l 1,16,-1
 888 1019 l 1,17,-1
 1357 953 l 1,18,-1
 1402 1280 l 1,19,-1
 86 1465 l 1,12,-1
1435 1200 m 1,20,-1
 1511 1190 l 1,21,-1
 1453 777 l 1,22,-1
 984 843 l 1,23,-1
 845 -149 l 1,24,-1
 378 -84 l 1,25,-1
 394 35 l 1,26,-1
 318 45 l 1,27,-1
 440 919 l 1,28,-1
 49 976 l 1,29,-1
 66 1092 l 1,30,-1
 -10 1102 l 1,31,-1
 49 1515 l 1,32,-1
 1451 1316 l 1,33,-1
 1435 1200 l 1,20,-1
EndSplineSet
Validated: 1
EndChar

StartChar: U
Encoding: 85 85 54
Width: 1597
Flags: W
LayerCount: 2
Fore
SplineSet
958 623 m 1026,0,1
204 1504 m 1,2,-1
 672 1439 l 1,3,-1
 655 1322 l 1,4,-1
 730 1312 l 1,5,-1
 623 551 l 2,6,7
 617 511 617 511 614.5 481 c 128,-1,8
 612 451 612 451 612 427 c 1,9,10
 635 407 635 407 665 396.5 c 128,-1,11
 695 386 695 386 729 386 c 0,12,13
 810 386 810 386 851 436.5 c 128,-1,14
 892 487 892 487 912 629 c 2,15,-1
 1020 1390 l 1,16,-1
 1488 1324 l 1,17,-1
 1472 1208 l 1,18,-1
 1547 1198 l 1,19,-1
 1431 380 l 2,20,21
 1411 243 1411 243 1374 153 c 128,-1,22
 1337 63 1337 63 1278 2 c 0,23,24
 1197 -80 1197 -80 1095 -123.5 c 128,-1,25
 993 -167 993 -167 882 -167 c 0,26,27
 589 -167 589 -167 407.5 -63 c 128,-1,28
 226 41 226 41 161 245 c 1,29,30
 119 314 119 314 98.5 389 c 128,-1,31
 78 464 78 464 78 553 c 0,32,33
 78 589 78 589 81 627 c 128,-1,34
 84 665 84 665 90 705 c 2,35,-1
 204 1504 l 1,2,-1
EndSplineSet
EndChar

StartChar: V
Encoding: 86 86 55
Width: 1624
Flags: W
LayerCount: 2
Fore
SplineSet
153 1292 m 1,0,-1
 106 1334 l 1,1,-1
 318 1320 l 1,2,-1
 565 394 l 1,3,-1
 522 396 l 1,4,-1
 286 1282 l 1,5,-1
 153 1292 l 1,0,-1
1165 1262 m 1,6,-1
 1375 1247 l 1,7,-1
 861 117 l 1,8,-1
 837 161 l 1,9,-1
 1314 1210 l 1,10,-1
 1190 1219 l 1,11,-1
 1165 1262 l 1,6,-1
-12 1429 m 1,12,-1
 390 66 l 1,13,-1
 917 29 l 1,14,-1
 1506 1322 l 1,15,-1
 1108 1351 l 1,16,-1
 698 384 l 1,17,-1
 655 388 l 1,18,-1
 386 1400 l 1,19,-1
 -12 1429 l 1,12,-1
-72 1476 m 1,20,-1
 421 1441 l 1,21,-1
 453 1320 l 1,22,-1
 487 1318 l 1,23,-1
 703 506 l 1,24,-1
 1079 1396 l 1,25,-1
 1572 1361 l 1,26,-1
 1519 1245 l 1,27,-1
 1639 1237 l 1,28,-1
 1013 -139 l 1,29,-1
 425 -98 l 1,30,-1
 388 23 l 1,31,-1
 357 25 l 1,32,-1
 -72 1476 l 1,20,-1
EndSplineSet
Validated: 1
EndChar

StartChar: W
Encoding: 87 87 56
Width: 2347
Flags: W
LayerCount: 2
Fore
SplineSet
1961 1192 m 1,0,-1
 1932 1237 l 1,1,-1
 2129 1223 l 1,2,-1
 1778 82 l 1,3,-1
 1747 127 l 1,4,-1
 2074 1186 l 1,5,-1
 1961 1192 l 1,0,-1
159 1359 m 1,6,-1
 355 1345 l 1,7,-1
 477 390 l 1,8,-1
 435 394 l 1,9,-1
 318 1309 l 1,10,-1
 208 1316 l 1,11,-1
 159 1359 l 1,6,-1
984 1303 m 1,12,-1
 1305 1280 l 1,13,-1
 1457 323 l 1,14,-1
 1418 325 l 1,15,-1
 1270 1241 l 1,16,-1
 1013 1260 l 1,17,-1
 984 1303 l 1,12,-1
55 1453 m 1,18,-1
 271 102 l 1,19,-1
 792 66 l 1,20,-1
 1106 1065 l 1,21,-1
 1149 1063 l 1,22,-1
 1320 29 l 1,23,-1
 1841 -8 l 1,24,-1
 2243 1301 l 1,25,-1
 1868 1326 l 1,26,-1
 1588 312 l 1,27,-1
 1545 316 l 1,28,-1
 1377 1359 l 1,29,-1
 919 1392 l 1,30,-1
 610 382 l 1,31,-1
 567 384 l 1,32,-1
 431 1427 l 1,33,-1
 55 1453 l 1,18,-1
4 1498 m 1,34,-1
 469 1465 l 1,35,-1
 485 1347 l 1,36,-1
 537 1343 l 1,37,-1
 633 606 l 1,38,-1
 888 1437 l 1,39,-1
 1416 1400 l 1,40,-1
 1435 1280 l 1,41,-1
 1484 1276 l 1,42,-1
 1603 528 l 1,43,-1
 1835 1371 l 1,44,-1
 2300 1338 l 1,45,-1
 2263 1223 l 1,46,-1
 2368 1215 l 1,47,-1
 1939 -175 l 1,48,-1
 1351 -135 l 1,49,-1
 1330 -14 l 1,50,-1
 1284 -12 l 1,51,-1
 1155 753 l 1,52,-1
 890 -102 l 1,53,-1
 302 -61 l 1,54,-1
 282 57 l 1,55,-1
 235 61 l 1,56,-1
 4 1498 l 1,34,-1
EndSplineSet
Validated: 1
EndChar

StartChar: X
Encoding: 88 88 57
Width: 1653
Flags: W
LayerCount: 2
Fore
SplineSet
1217 1229 m 1,0,-1
 1194 1270 l 1,1,-1
 1373 1258 l 1,2,-1
 988 723 l 1,3,-1
 1345 94 l 1,4,-1
 1270 143 l 1,5,-1
 941 725 l 1,6,-1
 1299 1225 l 1,7,-1
 1217 1229 l 1,0,-1
668 557 m 1,8,-1
 421 159 l 1,9,-1
 398 204 l 1,10,-1
 623 561 l 1,11,-1
 668 557 l 1,8,-1
347 1328 m 1,12,-1
 559 1314 l 1,13,-1
 745 931 l 1,14,-1
 698 935 l 1,15,-1
 535 1278 l 1,16,-1
 421 1286 l 1,17,-1
 347 1328 l 1,12,-1
194 1425 m 1,18,-1
 557 773 l 1,19,-1
 55 100 l 1,20,-1
 465 70 l 1,21,-1
 765 551 l 1,22,-1
 808 549 l 1,23,-1
 1071 29 l 1,24,-1
 1498 -2 l 1,25,-1
 1092 717 l 1,26,-1
 1533 1330 l 1,27,-1
 1147 1359 l 1,28,-1
 886 921 l 1,29,-1
 843 925 l 1,30,-1
 616 1396 l 1,31,-1
 194 1425 l 1,18,-1
119 1474 m 1,32,-1
 645 1437 l 1,33,-1
 705 1314 l 1,34,-1
 759 1311 l 1,35,-1
 898 1024 l 1,36,-1
 1122 1402 l 1,37,-1
 1614 1369 l 1,38,-1
 1533 1256 l 1,39,-1
 1680 1245 l 1,40,-1
 1241 633 l 1,41,-1
 1702 -177 l 1,42,-1
 1172 -141 l 1,43,-1
 1110 -16 l 1,44,-1
 1043 -12 l 1,45,-1
 847 378 l 1,46,-1
 557 -96 l 1,47,-1
 41 -61 l 1,48,-1
 125 51 l 1,49,-1
 -27 63 l 1,50,-1
 506 777 l 1,51,-1
 119 1474 l 1,32,-1
EndSplineSet
Validated: 1
EndChar

StartChar: Y
Encoding: 89 89 58
Width: 1606
Flags: W
LayerCount: 2
Fore
SplineSet
1129 1223 m 1,0,-1
 1108 1264 l 1,1,-1
 1299 1251 l 1,2,-1
 777 541 l 1,3,-1
 749 125 l 1,4,-1
 711 169 l 1,5,-1
 738 557 l 1,6,-1
 1221 1217 l 1,7,-1
 1129 1223 l 1,0,-1
181 1288 m 1,8,-1
 151 1330 l 1,9,-1
 341 1318 l 1,10,-1
 602 763 l 1,11,-1
 567 745 l 1,12,-1
 314 1280 l 1,13,-1
 181 1288 l 1,8,-1
2 1427 m 1,14,-1
 477 539 l 1,15,-1
 444 59 l 1,16,-1
 828 33 l 1,17,-1
 863 510 l 1,18,-1
 1459 1324 l 1,19,-1
 1063 1353 l 1,20,-1
 713 816 l 1,21,-1
 670 820 l 1,22,-1
 398 1398 l 1,23,-1
 2 1427 l 1,14,-1
-74 1474 m 1,24,-1
 427 1439 l 1,25,-1
 483 1316 l 1,26,-1
 522 1314 l 1,27,-1
 717 902 l 1,28,-1
 1038 1396 l 1,29,-1
 1541 1361 l 1,30,-1
 1457 1249 l 1,31,-1
 1608 1239 l 1,32,-1
 972 374 l 1,33,-1
 937 -135 l 1,34,-1
 465 -102 l 1,35,-1
 473 16 l 1,36,-1
 398 20 l 1,37,-1
 435 528 l 1,38,-1
 -74 1474 l 1,24,-1
EndSplineSet
Validated: 1
EndChar

StartChar: Z
Encoding: 90 90 59
Width: 1441
Flags: W
LayerCount: 2
Fore
SplineSet
555 210 m 1,0,-1
 545 253 l 1,1,-1
 1139 210 l 1,2,-1
 1129 80 l 1,3,-1
 1092 115 l 1,4,-1
 1096 173 l 1,5,-1
 555 210 l 1,0,-1
310 1280 m 1,6,-1
 273 1322 l 1,7,-1
 1188 1260 l 1,8,-1
 1170 1001 l 1,9,-1
 494 469 l 1,10,-1
 477 508 l 1,11,-1
 1131 1022 l 1,12,-1
 1145 1223 l 1,13,-1
 310 1280 l 1,6,-1
192 1414 m 1,14,-1
 173 1145 l 1,15,-1
 853 1098 l 1,16,-1
 865 1057 l 1,17,-1
 92 447 l 1,18,-1
 66 88 l 1,19,-1
 1213 6 l 1,20,-1
 1231 290 l 1,21,-1
 530 339 l 1,22,-1
 518 382 l 1,23,-1
 1256 955 l 1,24,-1
 1282 1338 l 1,25,-1
 192 1414 l 1,14,-1
151 1459 m 1,26,-1
 1326 1377 l 1,27,-1
 1320 1260 l 1,28,-1
 1394 1256 l 1,29,-1
 1363 812 l 1,30,-1
 792 364 l 1,31,-1
 1278 331 l 1,32,-1
 1270 212 l 1,33,-1
 1345 206 l 1,34,-1
 1318 -161 l 1,35,-1
 88 -76 l 1,36,-1
 96 43 l 1,37,-1
 20 47 l 1,38,-1
 49 469 l 1,39,-1
 662 951 l 1,40,-1
 194 984 l 1,41,-1
 202 1102 l 1,42,-1
 127 1106 l 1,43,-1
 151 1459 l 1,26,-1
EndSplineSet
Validated: 1
EndChar

StartChar: bracketleft
Encoding: 91 91 60
Width: 906
Flags: W
LayerCount: 2
Fore
SplineSet
374 1371 m 1,0,-1
 333 1412 l 1,1,-1
 668 1412 l 1,2,-1
 668 1320 l 1,3,-1
 627 1341 l 1,4,-1
 627 1371 l 1,5,-1
 374 1371 l 1,0,-1
442 1241 m 1,6,-1
 442 -80 l 1,7,-1
 668 -80 l 1,8,-1
 627 -121 l 1,9,-1
 402 -121 l 1,10,-1
 402 1282 l 1,11,-1
 442 1241 l 1,6,-1
247 1498 m 1,12,-1
 247 -230 l 1,13,-1
 755 -230 l 1,14,-1
 755 4 l 1,15,-1
 530 4 l 1,16,-1
 530 1262 l 1,17,-1
 755 1262 l 1,18,-1
 755 1498 l 1,19,-1
 247 1498 l 1,12,-1
202 1541 m 1,20,-1
 798 1541 l 1,21,-1
 798 1422 l 1,22,-1
 874 1422 l 1,23,-1
 874 1100 l 1,24,-1
 649 1100 l 1,25,-1
 649 47 l 1,26,-1
 798 47 l 1,27,-1
 798 -72 l 1,28,-1
 874 -72 l 1,29,-1
 874 -392 l 1,30,-1
 278 -392 l 1,31,-1
 278 -273 l 1,32,-1
 202 -273 l 1,33,-1
 202 1541 l 1,20,-1
EndSplineSet
Validated: 1
EndChar

StartChar: backslash
Encoding: 92 92 61
Width: 816
Flags: W
LayerCount: 2
Fore
SplineSet
119 1324 m 1,0,-1
 306 1324 l 1,1,-1
 666 -61 l 1,2,-1
 610 -23 l 1,3,-1
 275 1284 l 1,4,-1
 146 1284 l 1,5,-1
 119 1324 l 1,0,-1
31 1410 m 1,6,-1
 431 -146 l 1,7,-1
 749 -146 l 1,8,-1
 357 1410 l 1,9,-1
 31 1410 l 1,6,-1
423 1334 m 1,10,-1
 467 1334 l 1,11,-1
 880 -306 l 1,12,-1
 471 -306 l 1,13,-1
 440 -189 l 1,14,-1
 396 -189 l 1,15,-1
 -25 1453 l 1,16,-1
 392 1453 l 1,17,-1
 423 1334 l 1,10,-1
EndSplineSet
Validated: 1
EndChar

StartChar: bracketright
Encoding: 93 93 62
Width: 906
Flags: W
LayerCount: 2
Fore
SplineSet
204 -121 m 1,0,-1
 163 -80 l 1,1,-1
 302 -80 l 1,2,-1
 302 -121 l 1,3,-1
 204 -121 l 1,0,-1
204 1371 m 1,4,-1
 163 1412 l 1,5,-1
 498 1412 l 1,6,-1
 498 -146 l 1,7,-1
 457 -104 l 1,8,-1
 457 1371 l 1,9,-1
 204 1371 l 1,4,-1
76 1498 m 1,10,-1
 76 1262 l 1,11,-1
 302 1262 l 1,12,-1
 302 4 l 1,13,-1
 76 4 l 1,14,-1
 76 -230 l 1,15,-1
 586 -230 l 1,16,-1
 586 1498 l 1,17,-1
 76 1498 l 1,10,-1
33 1541 m 1,18,-1
 629 1541 l 1,19,-1
 629 1422 l 1,20,-1
 705 1422 l 1,21,-1
 705 -392 l 1,22,-1
 109 -392 l 1,23,-1
 109 -273 l 1,24,-1
 33 -273 l 1,25,-1
 33 47 l 1,26,-1
 257 47 l 1,27,-1
 257 1100 l 1,28,-1
 109 1100 l 1,29,-1
 109 1219 l 1,30,-1
 33 1219 l 1,31,-1
 33 1541 l 1,18,-1
EndSplineSet
Validated: 1
EndChar

StartChar: asciicircum
Encoding: 94 94 63
Width: 2041
Flags: W
LayerCount: 2
Fore
SplineSet
912 1455 m 1,0,-1
 1129 1455 l 1,1,-1
 1622 896 l 1,2,-1
 1416 896 l 1,3,-1
 1020 1292 l 1,4,-1
 623 896 l 1,5,-1
 417 896 l 1,6,-1
 912 1455 l 1,0,-1
EndSplineSet
Validated: 1
EndChar

StartChar: underscore
Encoding: 95 95 64
Width: 1020
Flags: W
LayerCount: 2
Fore
SplineSet
0 -310 m 1,0,-1
 1020 -310 l 1,1,-1
 1020 -481 l 1,2,-1
 0 -481 l 1,3,-1
 0 -310 l 1,0,-1
EndSplineSet
Validated: 1
EndChar

StartChar: grave
Encoding: 96 96 65
Width: 1020
Flags: W
LayerCount: 2
Fore
SplineSet
368 1749 m 1,0,-1
 316 1776 l 1,1,-1
 461 1796 l 1,2,-1
 602 1657 l 1,3,-1
 508 1704 l 1,4,-1
 438 1759 l 1,5,-1
 368 1749 l 1,0,-1
-66 1837 m 1,6,-1
 512 1918 l 1,7,-1
 606 1813 l 1,8,-1
 637 1817 l 1,9,-1
 937 1478 l 1,10,-1
 619 1433 l 1,11,-1
 59 1735 l 1,12,-1
 111 1741 l 1,13,-1
 -66 1837 l 1,6,-1
72 1813 m 1,14,-1
 504 1580 l 1,15,-1
 729 1610 l 1,16,-1
 494 1872 l 1,17,-1
 72 1813 l 1,14,-1
EndSplineSet
Validated: 1
EndChar

StartChar: a
Encoding: 97 97 66
Width: 1634
Flags: W
LayerCount: 2
Fore
SplineSet
528 496 m 1,0,-1
 947 526 l 1,1,-1
 964 485 l 1,2,-1
 520 455 l 1,3,-1
 528 496 l 1,0,-1
469 1270 m 1,4,-1
 931 1301 l 1,5,-1
 1416 169 l 1,6,-1
 1355 208 l 1,7,-1
 906 1260 l 1,8,-1
 500 1231 l 1,9,-1
 469 1270 l 1,4,-1
915 608 m 1,10,-1
 551 584 l 1,11,-1
 672 1118 l 1,12,-1
 715 1122 l 1,13,-1
 915 608 l 1,10,-1
402 1349 m 1,14,-1
 29 -12 l 1,15,-1
 421 14 l 1,16,-1
 492 329 l 1,17,-1
 1013 366 l 1,18,-1
 1129 66 l 1,19,-1
 1543 94 l 1,20,-1
 988 1390 l 1,21,-1
 402 1349 l 1,14,-1
767 867 m 1,22,-1
 715 637 l 1,23,-1
 853 647 l 1,24,-1
 767 867 l 1,22,-1
368 1390 m 1,25,-1
 1015 1435 l 1,26,-1
 1063 1320 l 1,27,-1
 1112 1322 l 1,28,-1
 1706 -55 l 1,29,-1
 1182 -92 l 1,30,-1
 1141 23 l 1,31,-1
 1098 20 l 1,32,-1
 1026 204 l 1,33,-1
 612 175 l 1,34,-1
 539 -137 l 1,35,-1
 53 -171 l 1,36,-1
 90 -51 l 1,37,-1
 -31 -59 l 1,38,-1
 368 1390 l 1,25,-1
EndSplineSet
Validated: 1
EndChar

StartChar: b
Encoding: 98 98 67
Width: 1482
Flags: WO
LayerCount: 2
Fore
SplineSet
798 1006 m 1,0,1
 783 1009 783 1009 775.5 1010 c 128,-1,2
 768 1011 768 1011 763 1011 c 0,3,4
 755 1011 755 1011 731.5 1008.5 c 128,-1,5
 708 1006 708 1006 679 1002 c 2,6,-1
 588 988 l 1,7,-1
 610 839 l 1,8,-1
 627 841 l 2,9,10
 734 856 734 856 769 883.5 c 128,-1,11
 804 911 804 911 804 970 c 0,12,13
 804 978 804 978 802.5 986.5 c 128,-1,14
 801 995 801 995 798 1006 c 1,0,1
668 431 m 1,15,-1
 690 267 l 1,16,-1
 711 271 l 2,17,18
 815 287 815 287 854.5 316.5 c 128,-1,19
 894 346 894 346 894 405 c 0,20,21
 894 413 894 413 893 424 c 128,-1,22
 892 435 892 435 890 448 c 1,23,24
 877 451 877 451 870.5 452 c 128,-1,25
 864 453 864 453 859 453 c 0,26,27
 842 453 842 453 815.5 450.5 c 128,-1,28
 789 448 789 448 761 444 c 2,29,-1
 668 431 l 1,15,-1
290 -74 m 1,30,-1
 214 -86 l 1,31,-1
 18 1318 l 1,32,-1
 647 1406 l 2,33,34
 728 1417 728 1417 784.5 1423 c 128,-1,35
 841 1429 841 1429 874 1429 c 0,36,37
 1006 1429 1006 1429 1087 1387.5 c 128,-1,38
 1168 1346 1168 1346 1215 1258 c 1,39,40
 1282 1205 1282 1205 1314.5 1133 c 128,-1,41
 1347 1061 1347 1061 1347 966 c 0,42,43
 1347 886 1347 886 1315.5 820.5 c 128,-1,44
 1284 755 1284 755 1223 709 c 1,45,46
 1269 681 1269 681 1300.5 649.5 c 128,-1,47
 1332 618 1332 618 1351 580 c 1,48,49
 1415 535 1415 535 1447.5 461.5 c 128,-1,50
 1480 388 1480 388 1480 286 c 0,51,52
 1480 121 1480 121 1355.5 29.5 c 128,-1,53
 1231 -62 1231 -62 945 -102 c 2,54,-1
 306 -192 l 1,55,-1
 290 -74 l 1,30,-1
EndSplineSet
EndChar

StartChar: c
Encoding: 99 99 68
Width: 1381
Flags: W
LayerCount: 2
Fore
SplineSet
1112 1475 m 1,0,-1
 1127 1375 l 1,1,2
 1140 1374 1140 1374 1159.5 1372.5 c 128,-1,3
 1179 1371 1179 1371 1204 1369 c 1,4,-1
 1258 996 l 1,5,6
 1198 1011 1198 1011 1146 1017.5 c 128,-1,7
 1094 1024 1094 1024 1049 1024 c 0,8,9
 856 1024 856 1024 746.5 928 c 128,-1,10
 637 832 637 832 637 664 c 0,11,12
 637 602 637 602 647.5 549.5 c 128,-1,13
 658 497 658 497 680 453 c 1,14,15
 729 417 729 417 783 399.5 c 128,-1,16
 837 382 837 382 904 382 c 0,17,18
 990 382 990 382 1077 407 c 128,-1,19
 1164 432 1164 432 1253 481 c 1,20,-1
 1272 341 l 1,21,-1
 1345 376 l 1,22,-1
 1396 0 l 1,23,24
 1266 -61 1266 -61 1139 -92 c 128,-1,25
 1012 -123 1012 -123 892 -123 c 0,26,27
 687 -123 687 -123 538 -53 c 128,-1,28
 389 17 389 17 288 159 c 1,29,30
 173 269 173 269 113 423 c 128,-1,31
 53 577 53 577 53 761 c 0,32,33
 53 1091 53 1091 297 1286.5 c 128,-1,34
 541 1482 541 1482 958 1482 c 0,35,36
 994 1482 994 1482 1033 1480.5 c 128,-1,37
 1072 1479 1072 1479 1112 1475 c 1,0,-1
EndSplineSet
Validated: 1
EndChar

StartChar: d
Encoding: 100 100 69
Width: 1614
Flags: W
LayerCount: 2
Fore
SplineSet
210 1178 m 1,0,-1
 163 1213 l 1,1,-1
 522 1262 l 2,2,3
 617 1275 617 1275 679 1280.5 c 128,-1,4
 741 1286 741 1286 790 1286 c 0,5,6
 1045 1286 1045 1286 1191.5 1114 c 128,-1,7
 1338 942 1338 942 1338 645 c 0,8,9
 1338 471 1338 471 1253.5 350 c 128,-1,10
 1169 229 1169 229 1007 169 c 1,11,-1
 988 204 l 1,12,13
 1140 260 1140 260 1219.5 372.5 c 128,-1,14
 1299 485 1299 485 1299 645 c 0,15,16
 1299 925 1299 925 1162 1085 c 128,-1,17
 1025 1245 1025 1245 788 1245 c 0,18,19
 737 1245 737 1245 673 1239.5 c 128,-1,20
 609 1234 609 1234 526 1223 c 2,21,-1
 210 1178 l 1,0,-1
357 1065 m 1,22,-1
 402 1030 l 1,23,-1
 520 198 l 1,24,-1
 680 222 l 1,25,-1
 686 181 l 1,26,-1
 485 153 l 1,27,-1
 357 1065 l 1,22,-1
485 1063 m 1,28,-1
 646 1086 l 2,29,30
 658 1088 658 1088 670.5 1089 c 128,-1,31
 683 1090 683 1090 709 1090 c 0,32,33
 776 1090 776 1090 827 1064.5 c 128,-1,34
 878 1039 878 1039 917 988 c 0,35,36
 967 919 967 919 994.5 824.5 c 128,-1,37
 1022 730 1022 730 1022 631 c 0,38,39
 1022 494 1022 494 959 411 c 128,-1,40
 896 328 896 328 779 312 c 2,41,-1
 596 286 l 1,42,-1
 485 1063 l 1,28,-1
68 1274 m 1,43,-1
 253 -45 l 1,44,-1
 549 -4 l 2,45,46
 846 37 846 37 973 70.5 c 128,-1,47
 1100 104 1100 104 1167 151 c 0,48,49
 1301 246 1301 246 1364 366.5 c 128,-1,50
 1427 487 1427 487 1427 647 c 0,51,52
 1427 785 1427 785 1391 909 c 128,-1,53
 1355 1033 1355 1033 1290 1126 c 0,54,55
 1202 1251 1202 1251 1083.5 1308 c 128,-1,56
 965 1365 965 1365 794 1365 c 0,57,58
 751 1365 751 1365 677 1357.5 c 128,-1,59
 603 1350 603 1350 510 1336 c 2,60,-1
 68 1274 l 1,43,-1
627 925 m 1,61,-1
 709 345 l 1,62,-1
 773 353 l 2,63,64
 874 367 874 367 927 438 c 128,-1,65
 980 509 980 509 980 631 c 0,66,67
 980 704 980 704 963 776.5 c 128,-1,68
 946 849 946 849 912 919 c 1,69,70
 892 932 892 932 866 938.5 c 128,-1,71
 840 945 840 945 804 945 c 0,72,73
 779 945 779 945 765.5 944 c 128,-1,74
 752 943 752 943 740 941 c 2,75,-1
 627 925 l 1,61,-1
290 -84 m 1,76,-1
 216 -94 l 1,77,-1
 18 1311 l 1,78,-1
 504 1377 l 2,79,80
 643 1396 643 1396 703 1402 c 128,-1,81
 763 1408 763 1408 796 1408 c 0,82,83
 977 1408 977 1408 1104.5 1345.5 c 128,-1,84
 1232 1283 1232 1283 1326 1147 c 1,85,86
 1440 1042 1440 1042 1501 885 c 128,-1,87
 1562 728 1562 728 1562 541 c 0,88,89
 1562 372 1562 372 1493.5 242 c 128,-1,90
 1425 112 1425 112 1284 10 c 0,91,92
 1214 -40 1214 -40 1082 -75.5 c 128,-1,93
 950 -111 950 -111 645 -153 c 2,94,-1
 306 -200 l 1,95,-1
 290 -84 l 1,76,-1
EndSplineSet
Validated: 1
EndChar

StartChar: e
Encoding: 101 101 70
Width: 1266
Flags: W
LayerCount: 2
Fore
SplineSet
16 1336 m 1,0,-1
 982 1474 l 1,1,-1
 998 1355 l 1,2,-1
 1073 1365 l 1,3,-1
 1120 1026 l 1,4,-1
 623 958 l 1,5,-1
 631 900 l 1,6,-1
 1053 960 l 1,7,-1
 1071 843 l 1,8,-1
 1145 853 l 1,9,-1
 1192 514 l 1,10,-1
 696 444 l 1,11,-1
 703 388 l 1,12,-1
 1126 447 l 1,13,-1
 1143 331 l 1,14,-1
 1219 341 l 1,15,-1
 1270 -37 l 1,16,-1
 304 -173 l 1,17,-1
 288 -57 l 1,18,-1
 214 -68 l 1,19,-1
 16 1336 l 1,0,-1
EndSplineSet
Validated: 1
EndChar

StartChar: f
Encoding: 102 102 71
Width: 1219
Flags: W
LayerCount: 2
Fore
SplineSet
210 1194 m 1,0,-1
 163 1231 l 1,1,-1
 871 1328 l 1,2,-1
 888 1208 l 1,3,-1
 841 1243 l 1,4,-1
 835 1284 l 1,5,-1
 210 1194 l 1,0,-1
355 1088 m 1,6,-1
 402 1051 l 1,7,-1
 451 700 l 1,8,-1
 949 769 l 1,9,-1
 966 651 l 1,10,-1
 921 682 l 1,11,-1
 915 725 l 1,12,-1
 417 655 l 1,13,-1
 355 1088 l 1,6,-1
435 530 m 1,14,-1
 479 494 l 1,15,-1
 535 109 l 1,16,-1
 490 141 l 1,17,-1
 435 530 l 1,14,-1
66 1303 m 1,18,-1
 251 -18 l 1,19,-1
 637 37 l 1,20,-1
 567 528 l 1,21,-1
 1047 596 l 1,22,-1
 1009 867 l 1,23,-1
 530 800 l 1,24,-1
 490 1083 l 1,25,-1
 970 1151 l 1,26,-1
 931 1422 l 1,27,-1
 66 1303 l 1,18,-1
984 1355 m 1,28,-1
 1059 1365 l 1,29,-1
 1108 1011 l 1,30,-1
 631 943 l 1,31,-1
 643 857 l 1,32,-1
 1045 915 l 1,33,-1
 1061 798 l 1,34,-1
 1137 808 l 1,35,-1
 1186 453 l 1,36,-1
 709 386 l 1,37,-1
 777 -106 l 1,38,-1
 304 -171 l 1,39,-1
 288 -55 l 1,40,-1
 214 -66 l 1,41,-1
 16 1338 l 1,42,-1
 968 1472 l 1,43,-1
 984 1355 l 1,28,-1
EndSplineSet
Validated: 1
EndChar

StartChar: g
Encoding: 103 103 72
Width: 1572
Flags: W
LayerCount: 2
Fore
SplineSet
1063 1322 m 1,0,-1
 1013 1322 l 2,1,2
 979 1322 979 1322 935.5 1318 c 128,-1,3
 892 1314 892 1314 835 1307 c 1,4,-1
 826 1347 l 1,5,6
 871 1355 871 1355 918 1359 c 128,-1,7
 965 1363 965 1363 1019 1363 c 0,8,9
 1051 1363 1051 1363 1067.5 1362.5 c 128,-1,10
 1084 1362 1084 1362 1097 1361 c 1,11,-1
 1116 1235 l 1,12,-1
 1071 1258 l 1,13,-1
 1063 1322 l 1,0,-1
1063 616 m 1,14,-1
 1256 643 l 1,15,-1
 1316 210 l 1,16,-1
 1272 237 l 1,17,-1
 1221 598 l 1,18,-1
 1110 582 l 1,19,-1
 1063 616 l 1,14,-1
569 318 m 1,20,21
 630 260 630 260 704 231 c 128,-1,22
 778 202 778 202 869 202 c 0,23,24
 894 202 894 202 926.5 205 c 128,-1,25
 959 208 959 208 998 214 c 1,26,-1
 1038 183 l 1,27,28
 979 172 979 172 936.5 166.5 c 128,-1,29
 894 161 894 161 863 161 c 0,30,31
 764 161 764 161 684 193 c 128,-1,32
 604 225 604 225 543 290 c 1,33,-1
 569 318 l 1,20,21
1175 1439 m 1,34,35
 1155 1440 1155 1440 1131 1440.5 c 128,-1,36
 1107 1441 1107 1441 1061 1441 c 0,37,38
 606 1441 606 1441 347 1257 c 128,-1,39
 88 1073 88 1073 88 751 c 0,40,41
 88 583 88 583 141.5 446.5 c 128,-1,42
 195 310 195 310 298 216 c 0,43,44
 403 122 403 122 536.5 72.5 c 128,-1,45
 670 23 670 23 822 23 c 0,46,47
 973 23 973 23 1121 57.5 c 128,-1,48
 1269 92 1269 92 1410 159 c 1,49,-1
 1328 738 l 1,50,-1
 966 688 l 1,51,-1
 1020 308 l 1,52,53
 971 297 971 297 933 291.5 c 128,-1,54
 895 286 895 286 867 286 c 0,55,56
 703 286 703 286 598.5 414 c 128,-1,57
 494 542 494 542 494 747 c 0,58,59
 494 949 494 949 632.5 1061.5 c 128,-1,60
 771 1174 771 1174 1022 1174 c 0,61,62
 1078 1174 1078 1174 1127 1169.5 c 128,-1,63
 1176 1165 1176 1165 1217 1157 c 1,64,-1
 1175 1439 l 1,34,35
1215 1482 m 2,65,-1
 1229 1377 l 1,66,-1
 1307 1375 l 1,67,-1
 1357 1001 l 1,68,69
 1300 1013 1300 1013 1237 1018.5 c 128,-1,70
 1174 1024 1174 1024 1106 1024 c 0,71,72
 879 1024 879 1024 754 924 c 128,-1,73
 629 824 629 824 629 643 c 0,74,75
 629 572 629 572 645 505.5 c 128,-1,76
 661 439 661 439 692 384 c 1,77,78
 730 356 730 356 772 342.5 c 128,-1,79
 814 329 814 329 863 329 c 0,80,81
 889 329 889 329 916 332.5 c 128,-1,82
 943 336 943 336 972 344 c 1,83,-1
 917 725 l 1,84,-1
 1365 788 l 1,85,-1
 1384 670 l 1,86,-1
 1457 682 l 1,87,-1
 1549 27 l 1,88,89
 1395 -50 1395 -50 1235.5 -88.5 c 128,-1,90
 1076 -127 1076 -127 915 -127 c 0,91,92
 708 -127 708 -127 539 -44 c 128,-1,93
 370 39 370 39 261 194 c 1,94,95
 156 291 156 291 100.5 434.5 c 128,-1,96
 45 578 45 578 45 751 c 0,97,98
 45 1093 45 1093 318.5 1289.5 c 128,-1,99
 592 1486 592 1486 1071 1486 c 0,100,101
 1116 1486 1116 1486 1209 1482 c 0,102,103
 1213 1482 1213 1482 1215 1482 c 2,65,-1
EndSplineSet
Validated: 1
EndChar

StartChar: h
Encoding: 104 104 73
Width: 1616
Flags: W
LayerCount: 2
Fore
SplineSet
1034 1288 m 1,0,-1
 988 1320 l 1,1,-1
 1198 1351 l 1,2,-1
 1359 200 l 1,3,-1
 1314 237 l 1,4,-1
 1163 1305 l 1,5,-1
 1034 1288 l 1,0,-1
165 1206 m 1,6,-1
 376 1235 l 1,7,-1
 440 767 l 1,8,-1
 937 837 l 1,9,-1
 984 802 l 1,10,-1
 407 721 l 1,11,-1
 339 1190 l 1,12,-1
 210 1172 l 1,13,-1
 165 1206 l 1,6,-1
477 494 m 1,14,-1
 537 84 l 1,15,-1
 490 121 l 1,16,-1
 433 530 l 1,17,-1
 477 494 l 1,14,-1
68 1278 m 1,18,-1
 253 -41 l 1,19,-1
 635 12 l 1,20,-1
 561 526 l 1,21,-1
 1005 588 l 1,22,-1
 1075 74 l 1,23,-1
 1457 129 l 1,24,-1
 1272 1447 l 1,25,-1
 890 1394 l 1,26,-1
 958 925 l 1,27,-1
 514 863 l 1,28,-1
 449 1330 l 1,29,-1
 68 1278 l 1,18,-1
18 1314 m 1,30,-1
 485 1379 l 1,31,-1
 502 1264 l 1,32,-1
 578 1274 l 1,33,-1
 627 923 l 1,34,-1
 906 962 l 1,35,-1
 841 1429 l 1,36,-1
 1309 1496 l 1,37,-1
 1326 1377 l 1,38,-1
 1400 1390 l 1,39,-1
 1599 -14 l 1,40,-1
 1131 -80 l 1,41,-1
 1114 37 l 1,42,-1
 1038 27 l 1,43,-1
 982 425 l 1,44,-1
 703 384 l 1,45,-1
 773 -131 l 1,46,-1
 306 -196 l 1,47,-1
 290 -80 l 1,48,-1
 216 -90 l 1,49,-1
 18 1314 l 1,30,-1
EndSplineSet
Validated: 1
EndChar

StartChar: i
Encoding: 105 105 74
Width: 783
Flags: W
LayerCount: 2
Fore
SplineSet
498 1320 m 1,0,-1
 573 1330 l 1,1,-1
 771 -72 l 1,2,-1
 302 -139 l 1,3,-1
 286 -20 l 1,4,-1
 210 -33 l 1,5,-1
 14 1371 l 1,6,-1
 481 1437 l 1,7,-1
 498 1320 l 1,0,-1
EndSplineSet
Validated: 1
EndChar

StartChar: j
Encoding: 106 106 75
Width: 992
Flags: W
LayerCount: 2
Fore
SplineSet
407 1251 m 1,0,-1
 359 1286 l 1,1,-1
 569 1314 l 1,2,-1
 680 524 l 2,3,4
 686 480 686 480 689 443.5 c 128,-1,5
 692 407 692 407 692 378 c 0,6,7
 692 242 692 242 626.5 172 c 128,-1,8
 561 102 561 102 417 84 c 1,9,-1
 411 125 l 1,10,11
 538 140 538 140 594.5 199.5 c 128,-1,12
 651 259 651 259 651 380 c 0,13,14
 651 417 651 417 648.5 451.5 c 128,-1,15
 646 486 646 486 641 520 c 2,16,-1
 535 1270 l 1,17,-1
 407 1251 l 1,0,-1
261 1359 m 1,18,-1
 363 642 l 2,19,20
 370 594 370 594 374 556.5 c 128,-1,21
 378 519 378 519 378 502 c 0,22,23
 378 394 378 394 313.5 340 c 128,-1,24
 249 286 249 286 121 286 c 2,25,-1
 86 286 l 1,26,-1
 127 -4 l 1,27,28
 153 -8 153 -8 183 -10 c 128,-1,29
 213 -12 213 -12 251 -12 c 0,30,31
 525 -12 525 -12 652 82 c 128,-1,32
 779 176 779 176 779 380 c 0,33,34
 779 411 779 411 776 450 c 128,-1,35
 773 489 773 489 767 537 c 2,36,-1
 645 1412 l 1,37,-1
 261 1359 l 1,18,-1
698 1343 m 1,38,-1
 771 1353 l 1,39,-1
 900 437 l 2,40,41
 908 373 908 373 911.5 337.5 c 128,-1,42
 915 302 915 302 915 275 c 0,43,44
 915 57 915 57 777 -52 c 128,-1,45
 639 -161 639 -161 361 -161 c 0,46,47
 312 -161 312 -161 267 -157.5 c 128,-1,48
 222 -154 222 -154 179 -146 c 1,49,-1
 165 -51 l 1,50,51
 145 -49 145 -49 126.5 -46.5 c 128,-1,52
 108 -44 108 -44 88 -41 c 1,53,-1
 35 335 l 1,54,55
 42 334 42 334 54 333 c 0,56,57
 107 327 107 327 125 327 c 0,58,59
 232 327 232 327 283.5 370 c 128,-1,60
 335 413 335 413 335 502 c 0,61,62
 335 518 335 518 331 553.5 c 128,-1,63
 327 589 327 589 321 635 c 2,64,-1
 212 1394 l 1,65,-1
 682 1459 l 1,66,-1
 698 1343 l 1,38,-1
EndSplineSet
Validated: 1
EndChar

StartChar: k
Encoding: 107 107 76
Width: 1610
Flags: W
LayerCount: 2
Fore
SplineSet
187 1184 m 1,0,-1
 143 1219 l 1,1,-1
 353 1241 l 1,2,-1
 398 810 l 1,3,-1
 353 849 l 1,4,-1
 318 1196 l 1,5,-1
 187 1184 l 1,0,-1
912 1260 m 1,6,-1
 888 1299 l 1,7,-1
 1104 1320 l 1,8,-1
 749 765 l 1,9,-1
 1290 171 l 1,10,-1
 1204 204 l 1,11,-1
 698 761 l 1,12,-1
 1022 1272 l 1,13,-1
 912 1260 l 1,6,-1
388 535 m 1,14,-1
 423 582 l 1,15,-1
 475 86 l 1,16,-1
 431 125 l 1,17,-1
 388 535 l 1,14,-1
47 1294 m 1,18,-1
 185 -31 l 1,19,-1
 569 10 l 1,20,-1
 510 582 l 1,21,-1
 549 600 l 1,22,-1
 988 53 l 1,23,-1
 1468 104 l 1,24,-1
 857 773 l 1,25,-1
 1272 1422 l 1,26,-1
 835 1377 l 1,27,-1
 524 822 l 1,28,-1
 483 833 l 1,29,-1
 431 1334 l 1,30,-1
 47 1294 l 1,18,-1
0 1332 m 1,31,-1
 469 1381 l 1,32,-1
 481 1266 l 1,33,-1
 557 1272 l 1,34,-1
 584 1015 l 1,35,-1
 808 1416 l 1,36,-1
 1355 1476 l 1,37,-1
 1274 1347 l 1,38,-1
 1443 1365 l 1,39,-1
 1015 703 l 1,40,-1
 1692 -33 l 1,41,-1
 1102 -96 l 1,42,-1
 1015 14 l 1,43,-1
 968 10 l 1,44,-1
 649 407 l 1,45,-1
 707 -137 l 1,46,-1
 235 -185 l 1,47,-1
 222 -70 l 1,48,-1
 146 -78 l 1,49,-1
 0 1332 l 1,31,-1
EndSplineSet
Validated: 1
EndChar

StartChar: l
Encoding: 108 108 77
Width: 1167
Flags: W
LayerCount: 2
Fore
SplineSet
-31 1336 m 1,0,-1
 440 1404 l 1,1,-1
 459 1286 l 1,2,-1
 533 1299 l 1,3,-1
 655 423 l 1,4,-1
 1067 479 l 1,5,-1
 1083 364 l 1,6,-1
 1159 374 l 1,7,-1
 1217 -39 l 1,8,-1
 257 -173 l 1,9,-1
 241 -55 l 1,10,-1
 165 -66 l 1,11,-1
 -31 1336 l 1,0,-1
EndSplineSet
Validated: 1
EndChar

StartChar: m
Encoding: 109 109 78
Width: 2170
Flags: W
LayerCount: 2
Fore
SplineSet
1161 133 m 1,0,-1
 1126 165 l 1,1,-1
 1392 861 l 1,2,-1
 1429 849 l 1,3,-1
 1161 133 l 1,0,-1
435 749 m 1,4,-1
 481 84 l 1,5,-1
 438 125 l 1,6,-1
 398 707 l 1,7,-1
 435 749 l 1,4,-1
249 1192 m 1,8,-1
 206 1231 l 1,9,-1
 551 1253 l 1,10,-1
 964 485 l 1,11,-1
 917 483 l 1,12,-1
 526 1213 l 1,13,-1
 249 1192 l 1,8,-1
1453 1316 m 1,14,-1
 1798 1341 l 1,15,-1
 1880 181 l 1,16,-1
 1837 222 l 1,17,-1
 1761 1299 l 1,18,-1
 1482 1278 l 1,19,-1
 1453 1316 l 1,14,-1
115 1309 m 1,20,-1
 206 -20 l 1,21,-1
 573 6 l 1,22,-1
 522 738 l 1,23,-1
 561 755 l 1,24,-1
 955 33 l 1,25,-1
 1223 51 l 1,26,-1
 1513 822 l 1,27,-1
 1554 810 l 1,28,-1
 1604 78 l 1,29,-1
 1971 102 l 1,30,-1
 1880 1433 l 1,31,-1
 1392 1398 l 1,32,-1
 1057 494 l 1,33,-1
 600 1343 l 1,34,-1
 115 1309 l 1,20,-1
68 1347 m 1,35,-1
 627 1388 l 1,36,-1
 688 1274 l 1,37,-1
 711 1276 l 1,38,-1
 1059 625 l 1,39,-1
 1359 1439 l 1,40,-1
 1920 1478 l 1,41,-1
 1926 1359 l 1,42,-1
 2002 1365 l 1,43,-1
 2102 -49 l 1,44,-1
 1647 -82 l 1,45,-1
 1639 37 l 1,46,-1
 1564 33 l 1,47,-1
 1537 427 l 1,48,-1
 1338 -102 l 1,49,-1
 1015 -125 l 1,50,-1
 953 -10 l 1,51,-1
 931 -12 l 1,52,-1
 660 483 l 1,53,-1
 705 -146 l 1,54,-1
 249 -177 l 1,55,-1
 241 -61 l 1,56,-1
 165 -66 l 1,57,-1
 68 1347 l 1,35,-1
EndSplineSet
Validated: 1
EndChar

StartChar: n
Encoding: 110 110 79
Width: 1731
Flags: W
LayerCount: 2
Fore
SplineSet
210 1163 m 1,0,-1
 165 1198 l 1,1,-1
 455 1239 l 1,2,-1
 1081 520 l 1,3,-1
 1051 490 l 1,4,-1
 438 1194 l 1,5,-1
 210 1163 l 1,0,-1
1112 1330 m 1,6,-1
 1312 1359 l 1,7,-1
 1476 208 l 1,8,-1
 1429 245 l 1,9,-1
 1278 1312 l 1,10,-1
 1159 1296 l 1,11,-1
 1112 1330 l 1,6,-1
435 738 m 1,12,-1
 526 76 l 1,13,-1
 481 113 l 1,14,-1
 394 732 l 1,15,-1
 435 738 l 1,12,-1
68 1270 m 1,16,-1
 253 -49 l 1,17,-1
 625 2 l 1,18,-1
 522 734 l 1,19,-1
 561 753 l 1,20,-1
 1149 76 l 1,21,-1
 1574 137 l 1,22,-1
 1388 1455 l 1,23,-1
 1015 1402 l 1,24,-1
 1118 672 l 1,25,-1
 1079 653 l 1,26,-1
 490 1328 l 1,27,-1
 68 1270 l 1,16,-1
18 1307 m 1,28,-1
 508 1373 l 1,29,-1
 1065 734 l 1,30,-1
 966 1439 l 1,31,-1
 1425 1504 l 1,32,-1
 1441 1386 l 1,33,-1
 1517 1396 l 1,34,-1
 1712 -6 l 1,35,-1
 1251 -72 l 1,36,-1
 1161 35 l 1,37,-1
 1133 31 l 1,38,-1
 668 565 l 1,39,-1
 765 -141 l 1,40,-1
 306 -204 l 1,41,-1
 290 -88 l 1,42,-1
 216 -98 l 1,43,-1
 18 1307 l 1,28,-1
EndSplineSet
Validated: 1
EndChar

StartChar: o
Encoding: 111 111 80
Width: 1747
Flags: W
LayerCount: 2
Fore
SplineSet
747 263 m 1,0,-1
 738 224 l 1,1,2
 613 252 613 252 528 333 c 128,-1,3
 443 414 443 414 402 545 c 1,4,-1
 440 559 l 1,5,6
 476 440 476 440 553 366 c 128,-1,7
 630 292 630 292 747 263 c 1,0,-1
749 1274 m 1,8,-1
 742 1314 l 1,9,10
 774 1318 774 1318 804.5 1320 c 128,-1,11
 835 1322 835 1322 865 1322 c 0,12,13
 1134 1322 1134 1322 1302 1146 c 128,-1,14
 1470 970 1470 970 1470 686 c 0,15,16
 1470 445 1470 445 1324.5 290 c 128,-1,17
 1179 135 1179 135 915 92 c 1,18,-1
 908 133 l 1,19,20
 1156 172 1156 172 1292.5 317 c 128,-1,21
 1429 462 1429 462 1429 688 c 0,22,23
 1429 953 1429 953 1272 1117.5 c 128,-1,24
 1115 1282 1115 1282 863 1282 c 0,25,26
 837 1282 837 1282 808.5 1280 c 128,-1,27
 780 1278 780 1278 749 1274 c 1,8,-1
506 725 m 0,28,29
 506 872 506 872 596 967.5 c 128,-1,30
 686 1063 686 1063 822 1063 c 0,31,32
 968 1063 968 1063 1060.5 954 c 128,-1,33
 1153 845 1153 845 1153 672 c 0,34,35
 1153 527 1153 527 1062.5 434 c 128,-1,36
 972 341 972 341 833 341 c 0,37,38
 687 341 687 341 596.5 446 c 128,-1,39
 506 551 506 551 506 725 c 0,28,29
865 1406 m 0,40,41
 720 1406 720 1406 592.5 1368.5 c 128,-1,42
 465 1331 465 1331 368 1260 c 0,43,44
 237 1164 237 1164 168.5 1026 c 128,-1,45
 100 888 100 888 100 719 c 0,46,47
 100 579 100 579 141.5 456 c 128,-1,48
 183 333 183 333 265 230 c 0,49,50
 356 119 356 119 493 58.5 c 128,-1,51
 630 -2 630 -2 794 -2 c 0,52,53
 936 -2 936 -2 1062.5 36 c 128,-1,54
 1189 74 1189 74 1290 146 c 0,55,56
 1419 240 1419 240 1487.5 377.5 c 128,-1,57
 1556 515 1556 515 1556 686 c 0,58,59
 1556 827 1556 827 1514.5 949.5 c 128,-1,60
 1473 1072 1473 1072 1392 1174 c 0,61,62
 1302 1286 1302 1286 1165 1346 c 128,-1,63
 1028 1406 1028 1406 865 1406 c 0,40,41
1065 867 m 1,64,65
 1028 891 1028 891 990.5 903 c 128,-1,66
 953 915 953 915 912 915 c 0,67,68
 793 915 793 915 717 831.5 c 128,-1,69
 641 748 641 748 641 616 c 0,70,71
 641 563 641 563 650 516.5 c 128,-1,72
 659 470 659 470 678 431 c 1,73,74
 716 407 716 407 753 395.5 c 128,-1,75
 790 384 790 384 828 384 c 0,76,77
 953 384 953 384 1031.5 464 c 128,-1,78
 1110 544 1110 544 1110 672 c 0,79,80
 1110 723 1110 723 1099 772 c 128,-1,81
 1088 821 1088 821 1065 867 c 1,64,65
1461 1153 m 1,82,83
 1573 1046 1573 1046 1631.5 899.5 c 128,-1,84
 1690 753 1690 753 1690 582 c 0,85,86
 1690 450 1690 450 1652 337 c 128,-1,87
 1614 224 1614 224 1539 131 c 0,88,89
 1430 -5 1430 -5 1261.5 -77 c 128,-1,90
 1093 -149 1093 -149 886 -149 c 0,91,92
 693 -149 693 -149 543.5 -76 c 128,-1,93
 394 -3 394 -3 290 143 c 1,94,95
 176 250 176 250 116.5 397 c 128,-1,96
 57 544 57 544 57 719 c 0,97,98
 57 849 57 849 95 961 c 128,-1,99
 133 1073 133 1073 208 1167 c 0,100,101
 318 1304 318 1304 486.5 1376.5 c 128,-1,102
 655 1449 655 1449 861 1449 c 0,103,104
 1056 1449 1056 1449 1207.5 1374.5 c 128,-1,105
 1359 1300 1359 1300 1461 1153 c 1,82,83
EndSplineSet
Validated: 1
EndChar

StartChar: p
Encoding: 112 112 81
Width: 1541
Flags: W
LayerCount: 2
Fore
SplineSet
210 1176 m 1,0,-1
 165 1210 l 1,1,-1
 688 1284 l 2,2,3
 755 1294 755 1294 809.5 1299.5 c 128,-1,4
 864 1305 864 1305 898 1305 c 0,5,6
 1072 1305 1072 1305 1170 1202 c 128,-1,7
 1268 1099 1268 1099 1268 917 c 0,8,9
 1268 785 1268 785 1203 699 c 128,-1,10
 1138 613 1138 613 1015 580 c 1,11,-1
 1005 619 l 1,12,13
 1115 651 1115 651 1172 726 c 128,-1,14
 1229 801 1229 801 1229 917 c 0,15,16
 1229 1080 1229 1080 1141 1172 c 128,-1,17
 1053 1264 1053 1264 896 1264 c 0,18,19
 864 1264 864 1264 812 1258.5 c 128,-1,20
 760 1253 760 1253 694 1243 c 2,21,-1
 210 1176 l 1,0,-1
402 1036 m 1,22,-1
 465 584 l 1,23,-1
 725 621 l 1,24,-1
 730 580 l 1,25,-1
 431 539 l 1,26,-1
 357 1069 l 1,27,-1
 402 1036 l 1,22,-1
494 388 m 1,28,-1
 537 84 l 1,29,-1
 492 115 l 1,30,-1
 447 419 l 1,31,-1
 494 388 l 1,28,-1
485 1069 m 1,32,-1
 615 1086 l 2,33,34
 681 1095 681 1095 706.5 1097.5 c 128,-1,35
 732 1100 732 1100 749 1100 c 0,36,37
 844 1100 844 1100 897.5 1048 c 128,-1,38
 951 996 951 996 951 902 c 0,39,40
 951 812 951 812 890 766.5 c 128,-1,41
 829 721 829 721 670 698 c 2,42,-1
 541 680 l 1,43,-1
 485 1069 l 1,32,-1
68 1278 m 1,44,-1
 253 -43 l 1,45,-1
 635 12 l 1,46,-1
 578 419 l 1,47,-1
 878 459 l 2,48,49
 1116 493 1116 493 1235.5 607.5 c 128,-1,50
 1355 722 1355 722 1355 917 c 0,51,52
 1355 1133 1355 1133 1235 1258.5 c 128,-1,53
 1115 1384 1115 1384 906 1384 c 0,54,55
 867 1384 867 1384 809 1378.5 c 128,-1,56
 751 1373 751 1373 678 1363 c 2,57,-1
 68 1278 l 1,44,-1
902 955 m 1,58,59
 887 961 887 961 869 964.5 c 128,-1,60
 851 968 851 968 833 968 c 0,61,62
 808 968 808 968 776.5 965.5 c 128,-1,63
 745 963 745 963 708 957 c 2,64,-1
 623 945 l 1,65,-1
 651 738 l 1,66,-1
 664 740 l 2,67,68
 807 760 807 760 857.5 795.5 c 128,-1,69
 908 831 908 831 908 902 c 0,70,71
 908 914 908 914 906.5 927 c 128,-1,72
 905 940 905 940 902 955 c 1,58,59
290 -80 m 1,73,-1
 216 -90 l 1,74,-1
 18 1312 l 1,75,-1
 672 1404 l 2,76,77
 758 1416 758 1416 815.5 1421.5 c 128,-1,78
 873 1427 873 1427 906 1427 c 0,79,80
 1048 1427 1048 1427 1149.5 1375 c 128,-1,81
 1251 1323 1251 1323 1316 1219 c 1,82,83
 1401 1144 1401 1144 1445.5 1040 c 128,-1,84
 1490 936 1490 936 1490 808 c 0,85,86
 1490 599 1490 599 1360 473 c 128,-1,87
 1230 347 1230 347 976 312 c 2,88,-1
 717 275 l 1,89,-1
 773 -131 l 1,90,-1
 306 -198 l 1,91,-1
 290 -80 l 1,73,-1
EndSplineSet
Validated: 1
EndChar

StartChar: q
Encoding: 113 113 82
Width: 1772
Flags: W
LayerCount: 2
Fore
SplineSet
891 271 m 1,0,-1
 898 229 l 1,1,2
 868 226 868 226 854 225 c 128,-1,3
 840 224 840 224 831 224 c 0,4,5
 679 224 679 224 565.5 312 c 128,-1,6
 452 400 452 400 405 555 c 1,7,-1
 442 569 l 1,8,9
 485 430 485 430 589 347.5 c 128,-1,10
 693 265 693 265 826 265 c 0,11,12
 842 265 842 265 858.5 266.5 c 128,-1,13
 875 268 875 268 891 271 c 1,0,-1
749 1284 m 1,14,-1
 745 1324 l 1,15,16
 780 1327 780 1327 809.5 1328.5 c 128,-1,17
 839 1330 839 1330 865 1330 c 0,18,19
 1137 1330 1137 1330 1304.5 1155.5 c 128,-1,20
 1472 981 1472 981 1472 696 c 0,21,22
 1472 521 1472 521 1391.5 387 c 128,-1,23
 1311 253 1311 253 1159 175 c 1,24,-1
 1439 -84 l 1,25,-1
 1345 -55 l 1,26,-1
 1083 187 l 1,27,28
 1253 257 1253 257 1342 388 c 128,-1,29
 1431 519 1431 519 1431 698 c 0,30,31
 1431 964 1431 964 1274.5 1128 c 128,-1,32
 1118 1292 1118 1292 865 1292 c 0,33,34
 837 1292 837 1292 808 1290 c 128,-1,35
 779 1288 779 1288 749 1284 c 1,14,-1
1067 878 m 1,36,37
 1027 902 1027 902 990 913.5 c 128,-1,38
 953 925 953 925 915 925 c 0,39,40
 795 925 795 925 718 841.5 c 128,-1,41
 641 758 641 758 641 627 c 0,42,43
 641 577 641 577 650.5 530.5 c 128,-1,44
 660 484 660 484 680 440 c 1,45,46
 718 417 718 417 755 405.5 c 128,-1,47
 792 394 792 394 831 394 c 0,48,49
 955 394 955 394 1032.5 473 c 128,-1,50
 1110 552 1110 552 1110 680 c 0,51,52
 1110 733 1110 733 1099 783 c 128,-1,53
 1088 833 1088 833 1067 878 c 1,36,37
506 734 m 0,54,55
 506 882 506 882 597 977.5 c 128,-1,56
 688 1073 688 1073 824 1073 c 0,57,58
 969 1073 969 1073 1062 963 c 128,-1,59
 1155 853 1155 853 1155 680 c 0,60,61
 1155 535 1155 535 1064.5 443 c 128,-1,62
 974 351 974 351 833 351 c 0,63,64
 688 351 688 351 597 457 c 128,-1,65
 506 563 506 563 506 734 c 0,54,55
1299 161 m 1,66,67
 1427 258 1427 258 1492.5 393.5 c 128,-1,68
 1558 529 1558 529 1558 700 c 0,69,70
 1558 841 1558 841 1516.5 962.5 c 128,-1,71
 1475 1084 1475 1084 1394 1184 c 0,72,73
 1303 1296 1303 1296 1165 1356 c 128,-1,74
 1027 1416 1027 1416 863 1416 c 0,75,76
 721 1416 721 1416 595 1378.5 c 128,-1,77
 469 1341 469 1341 370 1270 c 0,78,79
 239 1176 239 1176 170.5 1037.5 c 128,-1,80
 102 899 102 899 102 729 c 0,81,82
 102 412 102 412 285.5 219.5 c 128,-1,83
 469 27 469 27 771 27 c 0,84,85
 795 27 795 27 830.5 29 c 128,-1,86
 866 31 866 31 935 37 c 1,87,-1
 1157 -210 l 1,88,-1
 1630 -143 l 1,89,-1
 1299 161 l 1,66,67
1141 -255 m 1,90,-1
 1013 -113 l 1,91,92
 953 -118 953 -118 917.5 -120.5 c 128,-1,93
 882 -123 882 -123 859 -123 c 0,94,95
 672 -123 672 -123 526 -50.5 c 128,-1,96
 380 22 380 22 282 163 c 1,97,98
 172 267 172 267 115.5 409.5 c 128,-1,99
 59 552 59 552 59 727 c 0,100,101
 59 859 59 859 97 971 c 128,-1,102
 135 1083 135 1083 210 1178 c 0,103,104
 322 1314 322 1314 490.5 1386.5 c 128,-1,105
 659 1459 659 1459 863 1459 c 0,106,107
 1054 1459 1054 1459 1207.5 1384 c 128,-1,108
 1361 1309 1361 1309 1461 1165 c 1,109,110
 1574 1057 1574 1057 1633 911.5 c 128,-1,111
 1692 766 1692 766 1692 596 c 0,112,113
 1692 450 1692 450 1645.5 326 c 128,-1,114
 1599 202 1599 202 1506 102 c 1,115,-1
 1908 -265 l 1,116,-1
 1322 -349 l 1,117,-1
 1225 -241 l 1,118,-1
 1141 -255 l 1,90,-1
EndSplineSet
Validated: 1
EndChar

StartChar: r
Encoding: 114 114 83
Width: 1578
Flags: W
LayerCount: 2
Fore
SplineSet
1109 520 m 1,0,-1
 1116 561 l 1,1,2
 1182 557 1182 557 1220 525 c 128,-1,3
 1258 493 1258 493 1288 413 c 2,4,-1
 1367 198 l 1,5,-1
 1311 232 l 1,6,-1
 1249 396 l 2,7,8
 1219 473 1219 473 1190 495.5 c 128,-1,9
 1161 518 1161 518 1109 520 c 1,0,-1
165 1202 m 1,10,-1
 783 1290 l 2,11,12
 843 1299 843 1299 885 1303 c 128,-1,13
 927 1307 927 1307 958 1307 c 0,14,15
 1090 1307 1090 1307 1161.5 1238.5 c 128,-1,16
 1233 1170 1233 1170 1233 1043 c 0,17,18
 1233 976 1233 976 1201.5 928 c 128,-1,19
 1170 880 1170 880 1102 845 c 1,20,-1
 1081 882 l 1,21,22
 1140 911 1140 911 1167 950 c 128,-1,23
 1194 989 1194 989 1194 1043 c 0,24,25
 1194 1152 1194 1152 1133.5 1209 c 128,-1,26
 1073 1266 1073 1266 958 1266 c 0,27,28
 931 1266 931 1266 891.5 1262 c 128,-1,29
 852 1258 852 1258 790 1249 c 2,30,-1
 210 1167 l 1,31,-1
 165 1202 l 1,10,-1
510 78 m 1,32,-1
 465 115 l 1,33,-1
 413 485 l 1,34,-1
 459 449 l 1,35,-1
 510 78 l 1,32,-1
325 1102 m 1,36,-1
 372 1065 l 1,37,-1
 433 629 l 1,38,-1
 616 653 l 1,39,-1
 623 612 l 1,40,-1
 398 582 l 1,41,-1
 325 1102 l 1,36,-1
481 1102 m 1,42,-1
 606 1120 l 2,43,44
 639 1125 639 1125 670.5 1128 c 128,-1,45
 702 1131 702 1131 729 1131 c 0,46,47
 822 1131 822 1131 876.5 1077.5 c 128,-1,48
 931 1024 931 1024 931 933 c 256,49,50
 931 842 931 842 870 795 c 128,-1,51
 809 748 809 748 662 727 c 2,52,-1
 535 709 l 1,53,-1
 481 1102 l 1,42,-1
68 1276 m 1,54,-1
 253 -45 l 1,55,-1
 635 10 l 1,56,-1
 567 485 l 1,57,-1
 717 508 l 2,58,59
 729 510 729 510 743 511 c 128,-1,60
 757 512 757 512 781 512 c 0,61,62
 865 512 865 512 909.5 471 c 128,-1,63
 954 430 954 430 996 290 c 2,64,-1
 1063 70 l 1,65,-1
 1486 129 l 1,66,-1
 1369 440 l 2,67,68
 1324 561 1324 561 1250 608 c 128,-1,69
 1176 655 1176 655 1030 655 c 2,70,-1
 988 655 l 1,71,-1
 982 696 l 1,72,73
 1155 751 1155 751 1237.5 836.5 c 128,-1,74
 1320 922 1320 922 1320 1043 c 0,75,76
 1320 1206 1320 1206 1224 1298 c 128,-1,77
 1128 1390 1128 1390 958 1390 c 0,78,79
 926 1390 926 1390 880 1386 c 128,-1,80
 834 1382 834 1382 771 1373 c 2,81,-1
 68 1276 l 1,54,-1
621 960 m 1,82,-1
 647 767 l 1,83,-1
 655 769 l 1,84,85
 787 788 787 788 836.5 824.5 c 128,-1,86
 886 861 886 861 886 933 c 0,87,88
 886 943 886 943 883 966 c 0,89,90
 882 970 882 970 882 972 c 0,91,92
 862 978 862 978 850 980 c 128,-1,93
 838 982 838 982 826 982 c 0,94,95
 802 982 802 982 770 979.5 c 128,-1,96
 738 977 738 977 703 972 c 2,97,-1
 621 960 l 1,82,-1
1280 641 m 1,98,99
 1309 621 1309 621 1332.5 593.5 c 128,-1,100
 1356 566 1356 566 1377 528 c 1,101,102
 1417 502 1417 502 1447.5 458.5 c 128,-1,103
 1478 415 1478 415 1502 349 c 2,104,-1
 1636 -12 l 1,105,-1
 1122 -84 l 1,106,-1
 1088 31 l 1,107,-1
 1030 23 l 1,108,-1
 929 355 l 1,109,110
 914 359 914 359 899.5 361.5 c 128,-1,111
 885 364 885 364 871 364 c 0,112,113
 851 364 851 364 838 363 c 128,-1,114
 825 362 825 362 812 359 c 2,115,-1
 709 345 l 1,116,-1
 773 -133 l 1,117,-1
 306 -198 l 1,118,-1
 290 -82 l 1,119,-1
 216 -92 l 1,120,-1
 18 1311 l 1,121,-1
 765 1416 l 2,122,123
 819 1424 819 1424 867.5 1428.5 c 128,-1,124
 916 1433 916 1433 958 1433 c 0,125,126
 1085 1433 1085 1433 1174 1387 c 128,-1,127
 1263 1341 1263 1341 1314 1249 c 1,128,129
 1383 1196 1383 1196 1419 1116 c 128,-1,130
 1455 1036 1455 1036 1455 937 c 0,131,132
 1455 842 1455 842 1410 767 c 128,-1,133
 1365 692 1365 692 1280 641 c 1,98,99
EndSplineSet
Validated: 1
EndChar

StartChar: s
Encoding: 115 115 84
Width: 1198
Flags: W
LayerCount: 2
Fore
SplineSet
149 743.5 m 1024
637 841.5 m 1024
761 1455 m 1,0,-1
 775 1353 l 1,1,-1
 853 1349 l 1,2,-1
 904 984 l 1,3,-1
 876 984 l 2,4,5
 755 984 755 984 686.5 960.5 c 128,-1,6
 618 937 618 937 607 892 c 1,7,8
 768 865 768 865 863.5 812.5 c 128,-1,9
 959 760 959 760 1007 674 c 1,10,11
 1083 609 1083 609 1121 521.5 c 128,-1,12
 1159 434 1159 434 1159 321 c 0,13,14
 1159 96 1159 96 972.5 -36.5 c 128,-1,15
 786 -169 786 -169 465 -169 c 0,16,17
 429 -169 429 -169 386 -166.5 c 128,-1,18
 343 -164 343 -164 288 -159 c 1,19,-1
 273 -59 l 1,20,21
 257 -58 257 -58 233 -55 c 128,-1,22
 209 -52 209 -52 200 -51 c 1,23,-1
 145 314 l 1,24,25
 210 299 210 299 266 291.5 c 128,-1,26
 322 284 322 284 372 284 c 0,27,28
 480 284 480 284 538 313.5 c 128,-1,29
 596 343 596 343 596 398 c 2,30,-1
 596 405 l 1,31,32
 392 469 392 469 303.5 523.5 c 128,-1,33
 215 578 215 578 179 651 c 1,34,35
 111 704 111 704 74 789 c 128,-1,36
 37 874 37 874 37 984 c 0,37,38
 37 1207 37 1207 204.5 1332 c 128,-1,39
 372 1457 372 1457 672 1457 c 0,40,41
 708 1457 708 1457 726.5 1456.5 c 128,-1,42
 745 1456 745 1456 761 1455 c 1,0,-1
EndSplineSet
EndChar

StartChar: t
Encoding: 116 116 85
Width: 1541
Flags: W
LayerCount: 2
Fore
SplineSet
183 1163 m 1,0,-1
 137 1198 l 1,1,-1
 1282 1359 l 1,2,-1
 1305 1200 l 1,3,-1
 1260 1237 l 1,4,-1
 1247 1312 l 1,5,-1
 183 1163 l 1,0,-1
851 1028 m 1,6,-1
 976 143 l 1,7,-1
 767 113 l 1,8,-1
 802 159 l 1,9,-1
 931 177 l 1,10,-1
 806 1065 l 1,11,-1
 851 1028 l 1,6,-1
39 1270 m 1,12,-1
 86 943 l 1,13,-1
 553 1009 l 1,14,-1
 692 16 l 1,15,-1
 1073 70 l 1,16,-1
 935 1061 l 1,17,-1
 1402 1129 l 1,18,-1
 1357 1455 l 1,19,-1
 39 1270 l 1,12,-1
1410 1386 m 1,20,-1
 1486 1396 l 1,21,-1
 1543 986 l 1,22,-1
 1075 919 l 1,23,-1
 1215 -72 l 1,24,-1
 747 -139 l 1,25,-1
 730 -20 l 1,26,-1
 655 -33 l 1,27,-1
 533 843 l 1,28,-1
 139 788 l 1,29,-1
 123 904 l 1,30,-1
 49 894 l 1,31,-1
 -10 1307 l 1,32,-1
 1394 1504 l 1,33,-1
 1410 1386 l 1,20,-1
EndSplineSet
Validated: 1
EndChar

StartChar: u
Encoding: 117 117 86
Width: 1586
Flags: W
LayerCount: 2
Fore
SplineSet
1026 1286 m 1,0,-1
 982 1320 l 1,1,-1
 1192 1351 l 1,2,-1
 1288 658 l 2,3,4
 1294 620 1294 620 1296.5 590 c 128,-1,5
 1299 560 1299 560 1299 535 c 0,6,7
 1299 336 1299 336 1184 226 c 128,-1,8
 1069 116 1069 116 837 90 c 1,9,-1
 831 131 l 1,10,11
 1047 151 1047 151 1152.5 252 c 128,-1,12
 1258 353 1258 353 1258 539 c 0,13,14
 1258 570 1258 570 1256 598 c 128,-1,15
 1254 626 1254 626 1249 653 c 2,16,-1
 1157 1305 l 1,17,-1
 1026 1286 l 1,0,-1
165 1206 m 1,18,-1
 374 1235 l 1,19,-1
 463 600 l 2,20,21
 486 437 486 437 544.5 358 c 128,-1,22
 603 279 603 279 717 253 c 1,23,-1
 705 212 l 1,24,25
 579 241 579 241 512.5 330.5 c 128,-1,26
 446 420 446 420 423 594 c 2,27,-1
 339 1190 l 1,28,-1
 210 1172 l 1,29,-1
 165 1206 l 1,18,-1
68 1278 m 1,30,-1
 173 518 l 2,31,32
 209 266 209 266 343 130 c 128,-1,33
 477 -6 477 -6 688 -6 c 0,34,35
 1029 -6 1029 -6 1206.5 133.5 c 128,-1,36
 1384 273 1384 273 1384 541 c 0,37,38
 1384 568 1384 568 1381.5 599.5 c 128,-1,39
 1379 631 1379 631 1373 670 c 2,40,-1
 1266 1447 l 1,41,-1
 884 1392 l 1,42,-1
 984 674 l 2,43,44
 986 660 986 660 990 633 c 0,45,46
 998 581 998 581 998 561 c 0,47,48
 998 458 998 458 937.5 395.5 c 128,-1,49
 877 333 877 333 777 333 c 256,50,51
 677 333 677 333 623.5 397 c 128,-1,52
 570 461 570 461 549 612 c 2,53,-1
 449 1332 l 1,54,-1
 68 1278 l 1,30,-1
18 1314 m 1,55,-1
 485 1379 l 1,56,-1
 502 1264 l 1,57,-1
 578 1274 l 1,58,-1
 684 512 l 2,59,60
 689 473 689 473 695 443 c 128,-1,61
 701 413 701 413 709 390 c 1,62,63
 725 383 725 383 740 379.5 c 128,-1,64
 755 376 755 376 773 376 c 0,65,66
 856 376 856 376 904.5 426 c 128,-1,67
 953 476 953 476 953 563 c 0,68,69
 953 585 953 585 945 643 c 0,70,71
 942 660 942 660 941 668 c 2,72,-1
 835 1429 l 1,73,-1
 1303 1494 l 1,74,-1
 1318 1377 l 1,75,-1
 1394 1388 l 1,76,-1
 1508 570 l 2,77,78
 1514 529 1514 529 1516.5 496 c 128,-1,79
 1519 463 1519 463 1519 435 c 0,80,81
 1519 148 1519 148 1328 -3.5 c 128,-1,82
 1137 -155 1137 -155 777 -155 c 0,83,84
 638 -155 638 -155 522 -92.5 c 128,-1,85
 406 -30 406 -30 325 90 c 1,86,87
 245 159 245 159 198 260.5 c 128,-1,88
 151 362 151 362 131 512 c 2,89,-1
 18 1314 l 1,55,-1
EndSplineSet
Validated: 1
EndChar

StartChar: v
Encoding: 118 118 87
Width: 1624
Flags: W
LayerCount: 2
Fore
SplineSet
187 1204 m 1,0,-1
 135 1241 l 1,1,-1
 347 1256 l 1,2,-1
 721 372 l 1,3,-1
 678 370 l 1,4,-1
 321 1213 l 1,5,-1
 187 1204 l 1,0,-1
1192 1314 m 1,6,-1
 1404 1330 l 1,7,-1
 1053 141 l 1,8,-1
 1022 181 l 1,9,-1
 1349 1286 l 1,10,-1
 1225 1276 l 1,11,-1
 1192 1314 l 1,6,-1
4 1316 m 1,12,-1
 592 23 l 1,13,-1
 1120 59 l 1,14,-1
 1523 1422 l 1,15,-1
 1124 1396 l 1,16,-1
 855 382 l 1,17,-1
 810 380 l 1,18,-1
 402 1345 l 1,19,-1
 4 1316 l 1,12,-1
-61 1355 m 1,20,-1
 431 1390 l 1,21,-1
 479 1276 l 1,22,-1
 514 1278 l 1,23,-1
 841 504 l 1,24,-1
 1090 1435 l 1,25,-1
 1582 1470 l 1,26,-1
 1547 1349 l 1,27,-1
 1665 1357 l 1,28,-1
 1237 -94 l 1,29,-1
 649 -135 l 1,30,-1
 596 -18 l 1,31,-1
 565 -23 l 1,32,-1
 -61 1355 l 1,20,-1
EndSplineSet
Validated: 1
EndChar

StartChar: w
Encoding: 119 119 88
Width: 2347
Flags: W
LayerCount: 2
Fore
SplineSet
1949 1303 m 1,0,-1
 1914 1341 l 1,1,-1
 2111 1355 l 1,2,-1
 1920 175 l 1,3,-1
 1886 216 l 1,4,-1
 2061 1311 l 1,5,-1
 1949 1303 l 1,0,-1
141 1217 m 1,6,-1
 337 1231 l 1,7,-1
 592 302 l 1,8,-1
 549 298 l 1,9,-1
 306 1188 l 1,10,-1
 194 1180 l 1,11,-1
 141 1217 l 1,6,-1
966 1274 m 1,12,-1
 1286 1296 l 1,13,-1
 1570 370 l 1,14,-1
 1531 368 l 1,15,-1
 1256 1253 l 1,16,-1
 1001 1237 l 1,17,-1
 966 1274 l 1,12,-1
25 1294 m 1,18,-1
 427 -14 l 1,19,-1
 947 23 l 1,20,-1
 1118 1057 l 1,21,-1
 1161 1061 l 1,22,-1
 1476 59 l 1,23,-1
 1996 96 l 1,24,-1
 2212 1447 l 1,25,-1
 1837 1420 l 1,26,-1
 1700 380 l 1,27,-1
 1657 376 l 1,28,-1
 1349 1386 l 1,29,-1
 890 1355 l 1,30,-1
 725 310 l 1,31,-1
 682 308 l 1,32,-1
 402 1320 l 1,33,-1
 25 1294 l 1,18,-1
-33 1332 m 1,34,-1
 433 1365 l 1,35,-1
 465 1249 l 1,36,-1
 516 1253 l 1,37,-1
 715 535 l 1,38,-1
 851 1394 l 1,39,-1
 1379 1431 l 1,40,-1
 1416 1314 l 1,41,-1
 1463 1318 l 1,42,-1
 1686 594 l 1,43,-1
 1798 1461 l 1,44,-1
 2263 1492 l 1,45,-1
 2245 1373 l 1,46,-1
 2347 1379 l 1,47,-1
 2117 -57 l 1,48,-1
 1529 -98 l 1,49,-1
 1492 18 l 1,50,-1
 1445 14 l 1,51,-1
 1213 753 l 1,52,-1
 1067 -131 l 1,53,-1
 479 -171 l 1,54,-1
 444 -55 l 1,55,-1
 396 -57 l 1,56,-1
 -33 1332 l 1,34,-1
EndSplineSet
Validated: 1
EndChar

StartChar: x
Encoding: 120 120 89
Width: 1653
Flags: W
LayerCount: 2
Fore
SplineSet
1077 1270 m 1,0,-1
 1049 1307 l 1,1,-1
 1229 1318 l 1,2,-1
 921 734 l 1,3,-1
 1361 163 l 1,4,-1
 1280 200 l 1,5,-1
 874 730 l 1,6,-1
 1157 1276 l 1,7,-1
 1077 1270 l 1,0,-1
627 528 m 1,8,-1
 435 98 l 1,9,-1
 409 139 l 1,10,-1
 580 524 l 1,11,-1
 627 528 l 1,8,-1
200 1247 m 1,12,-1
 415 1264 l 1,13,-1
 651 908 l 1,14,-1
 604 906 l 1,15,-1
 394 1223 l 1,16,-1
 282 1215 l 1,17,-1
 200 1247 l 1,12,-1
37 1320 m 1,18,-1
 485 727 l 1,19,-1
 84 -12 l 1,20,-1
 494 18 l 1,21,-1
 723 535 l 1,22,-1
 765 539 l 1,23,-1
 1100 59 l 1,24,-1
 1527 90 l 1,25,-1
 1022 745 l 1,26,-1
 1375 1414 l 1,27,-1
 988 1388 l 1,28,-1
 792 919 l 1,29,-1
 749 915 l 1,30,-1
 459 1351 l 1,31,-1
 37 1320 l 1,18,-1
-45 1357 m 1,32,-1
 481 1394 l 1,33,-1
 557 1282 l 1,34,-1
 612 1286 l 1,35,-1
 788 1022 l 1,36,-1
 960 1429 l 1,37,-1
 1449 1463 l 1,38,-1
 1384 1338 l 1,39,-1
 1533 1349 l 1,40,-1
 1184 682 l 1,41,-1
 1753 -55 l 1,42,-1
 1223 -92 l 1,43,-1
 1145 20 l 1,44,-1
 1077 16 l 1,45,-1
 828 374 l 1,46,-1
 608 -135 l 1,47,-1
 92 -171 l 1,48,-1
 159 -49 l 1,49,-1
 8 -59 l 1,50,-1
 435 723 l 1,51,-1
 -45 1357 l 1,32,-1
EndSplineSet
Validated: 1
EndChar

StartChar: y
Encoding: 121 121 90
Width: 1606
Flags: W
LayerCount: 2
Fore
SplineSet
1167 1274 m 1,0,-1
 1141 1312 l 1,1,-1
 1332 1326 l 1,2,-1
 915 551 l 1,3,-1
 945 135 l 1,4,-1
 900 173 l 1,5,-1
 874 561 l 1,6,-1
 1260 1280 l 1,7,-1
 1167 1274 l 1,0,-1
220 1206 m 1,8,-1
 183 1245 l 1,9,-1
 376 1260 l 1,10,-1
 711 745 l 1,11,-1
 678 723 l 1,12,-1
 353 1217 l 1,13,-1
 220 1206 l 1,8,-1
23 1320 m 1,14,-1
 619 506 l 1,15,-1
 653 29 l 1,16,-1
 1036 55 l 1,17,-1
 1005 533 l 1,18,-1
 1482 1422 l 1,19,-1
 1083 1394 l 1,20,-1
 812 814 l 1,21,-1
 769 812 l 1,22,-1
 421 1347 l 1,23,-1
 23 1320 l 1,14,-1
-57 1357 m 1,24,-1
 442 1392 l 1,25,-1
 516 1278 l 1,26,-1
 555 1282 l 1,27,-1
 804 900 l 1,28,-1
 1055 1435 l 1,29,-1
 1556 1470 l 1,30,-1
 1490 1345 l 1,31,-1
 1639 1357 l 1,32,-1
 1131 411 l 1,33,-1
 1167 -98 l 1,34,-1
 696 -131 l 1,35,-1
 688 -12 l 1,36,-1
 612 -18 l 1,37,-1
 576 490 l 1,38,-1
 -57 1357 l 1,24,-1
EndSplineSet
Validated: 1
EndChar

StartChar: z
Encoding: 122 122 91
Width: 1441
Flags: W
LayerCount: 2
Fore
SplineSet
614 194 m 1,0,-1
 598 232 l 1,1,-1
 1192 273 l 1,2,-1
 1200 143 l 1,3,-1
 1157 171 l 1,4,-1
 1155 230 l 1,5,-1
 614 194 l 1,0,-1
222 1219 m 1,6,-1
 179 1256 l 1,7,-1
 1096 1318 l 1,8,-1
 1112 1059 l 1,9,-1
 516 440 l 1,10,-1
 494 477 l 1,11,-1
 1071 1075 l 1,12,-1
 1057 1276 l 1,13,-1
 222 1219 l 1,6,-1
86 1334 m 1,14,-1
 106 1065 l 1,15,-1
 785 1112 l 1,16,-1
 802 1073 l 1,17,-1
 121 364 l 1,18,-1
 146 2 l 1,19,-1
 1292 84 l 1,20,-1
 1272 366 l 1,21,-1
 571 316 l 1,22,-1
 553 357 l 1,23,-1
 1202 1026 l 1,24,-1
 1176 1410 l 1,25,-1
 86 1334 l 1,14,-1
41 1373 m 1,26,-1
 1217 1455 l 1,27,-1
 1225 1338 l 1,28,-1
 1301 1343 l 1,29,-1
 1330 900 l 1,30,-1
 826 376 l 1,31,-1
 1312 411 l 1,32,-1
 1320 294 l 1,33,-1
 1396 298 l 1,34,-1
 1422 -70 l 1,35,-1
 189 -155 l 1,36,-1
 181 -37 l 1,37,-1
 106 -43 l 1,38,-1
 76 378 l 1,39,-1
 616 941 l 1,40,-1
 149 906 l 1,41,-1
 141 1024 l 1,42,-1
 66 1020 l 1,43,-1
 41 1373 l 1,26,-1
EndSplineSet
Validated: 1
EndChar

StartChar: braceleft
Encoding: 123 123 92
Width: 1020
Flags: W
LayerCount: 2
Fore
SplineSet
871 1472 m 1,0,-1
 871 1294 l 1,1,2
 863 1294 863 1294 847 1295 c 128,-1,3
 831 1296 831 1296 824 1296 c 0,4,5
 716 1296 716 1296 677.5 1254.5 c 128,-1,6
 639 1213 639 1213 639 1081 c 2,7,-1
 639 841 l 2,8,9
 639 687 639 687 595 621.5 c 128,-1,10
 551 556 551 556 437 528 c 1,11,12
 550 501 550 501 594.5 436 c 128,-1,13
 639 371 639 371 639 216 c 2,14,-1
 639 -23 l 2,15,16
 639 -154 639 -154 678.5 -196.5 c 128,-1,17
 718 -239 718 -239 826 -239 c 0,18,19
 833 -239 833 -239 848 -238 c 128,-1,20
 863 -237 863 -237 871 -237 c 1,21,-1
 871 -413 l 1,22,-1
 808 -413 l 2,23,24
 707 -413 707 -413 643.5 -401 c 128,-1,25
 580 -389 580 -389 537 -364 c 0,26,27
 480 -330 480 -330 457.5 -268 c 128,-1,28
 435 -206 435 -206 435 -66 c 2,29,-1
 435 181 l 2,30,31
 435 325 435 325 382.5 383.5 c 128,-1,32
 330 442 330 442 204 442 c 0,33,34
 197 442 197 442 182.5 441 c 128,-1,35
 168 440 168 440 161 440 c 1,36,-1
 161 619 l 1,37,38
 168 619 168 619 182.5 617.5 c 128,-1,39
 197 616 197 616 204 616 c 0,40,41
 330 616 330 616 382.5 674.5 c 128,-1,42
 435 733 435 733 435 876 c 2,43,-1
 435 1122 l 2,44,45
 435 1267 435 1267 457.5 1328 c 128,-1,46
 480 1389 480 1389 537 1422 c 0,47,48
 581 1449 581 1449 646 1460.5 c 128,-1,49
 711 1472 711 1472 826 1472 c 2,50,-1
 871 1472 l 1,0,-1
EndSplineSet
Validated: 1
EndChar

StartChar: bar
Encoding: 124 124 93
Width: 1020
Flags: W
LayerCount: 2
Fore
SplineSet
423 1560 m 1,0,-1
 600 1560 l 1,1,-1
 600 -481 l 1,2,-1
 423 -481 l 1,3,-1
 423 1560 l 1,0,-1
EndSplineSet
Validated: 1
EndChar

StartChar: braceright
Encoding: 125 125 94
Width: 1020
Flags: W
LayerCount: 2
Fore
SplineSet
151 1472 m 1,0,-1
 196 1472 l 2,1,2
 311 1472 311 1472 375 1460.5 c 128,-1,3
 439 1449 439 1449 483 1422 c 0,4,5
 540 1389 540 1389 563 1327.5 c 128,-1,6
 586 1266 586 1266 586 1122 c 2,7,-1
 586 876 l 2,8,9
 586 732 586 732 638 674 c 128,-1,10
 690 616 690 616 816 616 c 0,11,12
 822 616 822 616 837 617.5 c 128,-1,13
 852 619 852 619 859 619 c 1,14,-1
 859 440 l 1,15,16
 852 440 852 440 837.5 441 c 128,-1,17
 823 442 823 442 816 442 c 0,18,19
 691 442 691 442 638.5 383.5 c 128,-1,20
 586 325 586 325 586 181 c 2,21,-1
 586 -66 l 2,22,23
 586 -208 586 -208 563 -269 c 128,-1,24
 540 -330 540 -330 483 -364 c 0,25,26
 440 -390 440 -390 375.5 -401.5 c 128,-1,27
 311 -413 311 -413 196 -413 c 2,28,-1
 151 -413 l 1,29,-1
 151 -237 l 1,30,31
 159 -237 159 -237 174 -238 c 128,-1,32
 189 -239 189 -239 196 -239 c 0,33,34
 305 -239 305 -239 343.5 -197 c 128,-1,35
 382 -155 382 -155 382 -23 c 2,36,-1
 382 216 l 2,37,38
 382 369 382 369 426.5 434.5 c 128,-1,39
 471 500 471 500 586 528 c 1,40,41
 471 556 471 556 426.5 621.5 c 128,-1,42
 382 687 382 687 382 841 c 2,43,-1
 382 1081 l 2,44,45
 382 1213 382 1213 344 1254.5 c 128,-1,46
 306 1296 306 1296 198 1296 c 0,47,48
 191 1296 191 1296 175 1295 c 128,-1,49
 159 1294 159 1294 151 1294 c 1,50,-1
 151 1472 l 1,0,-1
EndSplineSet
Validated: 1
EndChar

StartChar: asciitilde
Encoding: 126 126 95
Width: 1700
Flags: W
LayerCount: 2
Fore
SplineSet
1525 781 m 1,0,-1
 1525 598 l 1,1,2
 1422 527 1422 527 1328 492 c 128,-1,3
 1234 457 1234 457 1145 457 c 0,4,5
 1101 457 1101 457 1053 465.5 c 128,-1,6
 1005 474 1005 474 955 492 c 0,7,8
 930 500 930 500 879 518 c 0,9,10
 668 592 668 592 561 592 c 0,11,12
 479 592 479 592 387.5 554 c 128,-1,13
 296 516 296 516 177 433 c 1,14,-1
 177 619 l 1,15,16
 283 691 283 691 378.5 726 c 128,-1,17
 474 761 474 761 563 761 c 0,18,19
 625 761 625 761 688 749 c 128,-1,20
 751 737 751 737 856 702 c 0,21,22
 869 698 869 698 898 687 c 0,23,24
 1061 629 1061 629 1147 629 c 0,25,26
 1232 629 1232 629 1323.5 666 c 128,-1,27
 1415 703 1415 703 1525 781 c 1,0,-1
EndSplineSet
Validated: 1
EndChar

StartChar: quotesinglbase
Encoding: 8218 8218 99
Width: 783
Flags: W
LayerCount: 2
Fore
SplineSet
181 345 m 1,0,-1
 70 -179 l 1,1,-1
 345 -179 l 1,2,-1
 551 345 l 1,3,-1
 181 345 l 1,0,-1
243 218 m 1,4,-1
 251 259 l 1,5,-1
 425 259 l 1,6,-1
 286 -96 l 1,7,-1
 259 -53 l 1,8,-1
 364 218 l 1,9,-1
 243 218 l 1,4,-1
567 269 m 1,10,-1
 688 269 l 1,11,-1
 451 -341 l 1,12,-1
 90 -341 l 1,13,-1
 117 -222 l 1,14,-1
 14 -222 l 1,15,-1
 146 388 l 1,16,-1
 612 388 l 1,17,-1
 567 269 l 1,10,-1
EndSplineSet
Validated: 1
EndChar

StartChar: florin
Encoding: 402 402 100
Width: 1276
Flags: W
LayerCount: 2
Fore
SplineSet
639 584 m 1,0,-1
 565 224 l 2,1,2
 507 -52 507 -52 420.5 -172 c 128,-1,3
 334 -292 334 -292 196 -292 c 2,4,-1
 171 -292 l 1,5,-1
 169 -251 l 1,6,7
 174 -251 174 -251 183.5 -252 c 128,-1,8
 193 -253 193 -253 198 -253 c 0,9,10
 316 -253 316 -253 393.5 -138 c 128,-1,11
 471 -23 471 -23 524 235 c 2,12,-1
 606 627 l 1,13,-1
 639 584 l 1,0,-1
781 1133 m 1,14,15
 765 1108 765 1108 741 1025.5 c 128,-1,16
 717 943 717 943 668 740 c 1,17,-1
 953 740 l 1,18,-1
 912 703 l 1,19,-1
 614 703 l 1,20,21
 667 919 667 919 696.5 1019.5 c 128,-1,22
 726 1120 726 1120 745 1153 c 1,23,-1
 781 1133 l 1,14,15
465 703 m 1,24,-1
 304 703 l 1,25,-1
 263 740 l 1,26,-1
 479 740 l 1,27,-1
 465 703 l 1,24,-1
1038 1309 m 1,28,29
 1021 1312 1021 1312 1007 1313 c 128,-1,30
 993 1314 993 1314 980 1314 c 0,31,32
 963 1314 963 1314 956 1313.5 c 128,-1,33
 949 1313 949 1313 944 1312 c 1,34,-1
 942 1351 l 1,35,36
 948 1352 948 1352 956 1352.5 c 128,-1,37
 964 1353 964 1353 982 1353 c 0,38,39
 1005 1353 1005 1353 1016.5 1352 c 128,-1,40
 1028 1351 1028 1351 1038 1349 c 1,41,-1
 1038 1309 l 1,28,29
1126 1418 m 1,42,43
 1086 1428 1086 1428 1043.5 1432.5 c 128,-1,44
 1001 1437 1001 1437 955 1437 c 0,45,46
 767 1437 767 1437 661 1345 c 128,-1,47
 555 1253 555 1253 500 1040 c 2,48,-1
 440 816 l 1,49,-1
 175 816 l 1,50,-1
 175 604 l 1,51,-1
 400 604 l 1,52,-1
 314 228 l 2,53,54
 255 -33 255 -33 199.5 -103 c 128,-1,55
 144 -173 144 -173 39 -173 c 0,56,57
 14 -173 14 -173 0.5 -172 c 128,-1,58
 -13 -171 -13 -171 -25 -169 c 1,59,-1
 -25 -357 l 1,60,61
 15 -368 15 -368 59.5 -373 c 128,-1,62
 104 -378 104 -378 155 -378 c 0,63,64
 361 -378 361 -378 469 -252.5 c 128,-1,65
 577 -127 577 -127 649 208 c 2,66,-1
 734 604 l 1,67,-1
 1038 604 l 1,68,-1
 1038 816 l 1,69,-1
 777 816 l 1,70,71
 825 1053 825 1053 887.5 1144 c 128,-1,72
 950 1235 950 1235 1057 1235 c 0,73,74
 1070 1235 1070 1235 1086.5 1232.5 c 128,-1,75
 1103 1230 1103 1230 1126 1225 c 1,76,-1
 1126 1418 l 1,42,43
1170 1453 m 1,77,-1
 1170 1351 l 1,78,-1
 1245 1334 l 1,79,-1
 1245 1049 l 1,80,81
 1219 1061 1219 1061 1192.5 1067 c 128,-1,82
 1166 1073 1166 1073 1139 1073 c 0,83,84
 1063 1073 1063 1073 1016 1023.5 c 128,-1,85
 969 974 969 974 937 859 c 1,86,-1
 1083 859 l 1,87,-1
 1083 736 l 1,88,-1
 1159 736 l 1,89,-1
 1159 444 l 1,90,-1
 847 444 l 1,91,-1
 767 82 l 2,92,93
 693 -265 693 -265 573.5 -401 c 128,-1,94
 454 -537 454 -537 232 -537 c 0,95,96
 173 -537 173 -537 117 -530 c 128,-1,97
 61 -523 61 -523 8 -509 c 1,98,-1
 8 -409 l 2,99,100
 5 -408 5 -408 -21.5 -402.5 c 128,-1,101
 -48 -397 -48 -397 -67 -392 c 1,102,-1
 -67 -105 l 1,103,104
 -42 -118 -42 -118 -16 -124.5 c 128,-1,105
 10 -131 10 -131 37 -131 c 0,106,107
 187 -131 187 -131 269 227 c 1,108,-1
 271 238 l 1,109,-1
 318 444 l 1,110,-1
 208 444 l 1,111,-1
 208 561 l 1,112,-1
 133 561 l 1,113,-1
 133 859 l 1,114,-1
 409 859 l 1,115,-1
 457 1051 l 2,116,117
 514 1270 514 1270 631.5 1375 c 128,-1,118
 749 1480 749 1480 937 1480 c 0,119,120
 1000 1480 1000 1480 1057 1473.5 c 128,-1,121
 1114 1467 1114 1467 1170 1453 c 1,77,-1
EndSplineSet
Validated: 1
EndChar

StartChar: quotedblbase
Encoding: 8222 8222 101
Width: 1398
Flags: W
LayerCount: 2
Fore
SplineSet
181 345 m 1,0,-1
 70 -179 l 1,1,-1
 345 -179 l 1,2,-1
 551 345 l 1,3,-1
 181 345 l 1,0,-1
243 218 m 1,4,-1
 251 259 l 1,5,-1
 425 259 l 1,6,-1
 286 -96 l 1,7,-1
 259 -53 l 1,8,-1
 364 218 l 1,9,-1
 243 218 l 1,4,-1
796 345 m 1,10,-1
 682 -179 l 1,11,-1
 960 -179 l 1,12,-1
 1165 345 l 1,13,-1
 796 345 l 1,10,-1
855 218 m 1,14,-1
 865 259 l 1,15,-1
 1038 259 l 1,16,-1
 900 -96 l 1,17,-1
 874 -53 l 1,18,-1
 978 218 l 1,19,-1
 855 218 l 1,14,-1
567 269 m 1,20,-1
 688 269 l 1,21,-1
 451 -341 l 1,22,-1
 90 -341 l 1,23,-1
 117 -222 l 1,24,-1
 14 -222 l 1,25,-1
 146 388 l 1,26,-1
 612 388 l 1,27,-1
 567 269 l 1,20,-1
1182 269 m 1,28,-1
 1303 269 l 1,29,-1
 1065 -341 l 1,30,-1
 705 -341 l 1,31,-1
 730 -222 l 1,32,-1
 629 -222 l 1,33,-1
 759 388 l 1,34,-1
 1227 388 l 1,35,-1
 1182 269 l 1,28,-1
EndSplineSet
Validated: 1
EndChar

StartChar: ellipsis
Encoding: 8230 8230 102
Width: 2041
Flags: W
LayerCount: 2
Fore
SplineSet
253 218 m 1,0,-1
 212 259 l 1,1,-1
 392 259 l 1,2,-1
 392 127 l 1,3,-1
 351 169 l 1,4,-1
 351 218 l 1,5,-1
 253 218 l 1,0,-1
125 345 m 1,6,-1
 125 43 l 1,7,-1
 479 43 l 1,8,-1
 479 345 l 1,9,-1
 125 345 l 1,6,-1
522 269 m 1,10,-1
 598 269 l 1,11,-1
 598 -119 l 1,12,-1
 157 -119 l 1,13,-1
 157 0 l 1,14,-1
 82 0 l 1,15,-1
 82 388 l 1,16,-1
 522 388 l 1,17,-1
 522 269 l 1,10,-1
933 218 m 1,18,-1
 892 259 l 1,19,-1
 1071 259 l 1,20,-1
 1071 127 l 1,21,-1
 1030 169 l 1,22,-1
 1030 218 l 1,23,-1
 933 218 l 1,18,-1
804 345 m 1,24,-1
 804 43 l 1,25,-1
 1159 43 l 1,26,-1
 1159 345 l 1,27,-1
 804 345 l 1,24,-1
1202 269 m 1,28,-1
 1278 269 l 1,29,-1
 1278 -119 l 1,30,-1
 837 -119 l 1,31,-1
 837 0 l 1,32,-1
 761 0 l 1,33,-1
 761 388 l 1,34,-1
 1202 388 l 1,35,-1
 1202 269 l 1,28,-1
1614 218 m 1,36,-1
 1574 259 l 1,37,-1
 1753 259 l 1,38,-1
 1753 127 l 1,39,-1
 1712 169 l 1,40,-1
 1712 218 l 1,41,-1
 1614 218 l 1,36,-1
1486 345 m 1,42,-1
 1486 43 l 1,43,-1
 1841 43 l 1,44,-1
 1841 345 l 1,45,-1
 1486 345 l 1,42,-1
1884 269 m 1,46,-1
 1959 269 l 1,47,-1
 1959 -119 l 1,48,-1
 1519 -119 l 1,49,-1
 1519 0 l 1,50,-1
 1443 0 l 1,51,-1
 1443 388 l 1,52,-1
 1884 388 l 1,53,-1
 1884 269 l 1,46,-1
EndSplineSet
Validated: 1
EndChar

StartChar: dagger
Encoding: 8224 8224 103
Width: 1322
Flags: W
LayerCount: 2
Fore
SplineSet
255 898 m 1,0,-1
 214 941 l 1,1,-1
 459 941 l 1,2,-1
 459 898 l 1,3,-1
 255 898 l 1,0,-1
700 738 m 1,4,-1
 700 -146 l 1,5,-1
 660 -104 l 1,6,-1
 660 781 l 1,7,-1
 700 738 l 1,4,-1
545 1290 m 1,8,-1
 700 1290 l 1,9,-1
 700 941 l 1,10,-1
 1030 941 l 1,11,-1
 1030 869 l 1,12,-1
 990 898 l 1,13,-1
 660 898 l 1,14,-1
 660 1247 l 1,15,-1
 586 1247 l 1,16,-1
 545 1290 l 1,8,-1
459 1375 m 1,17,-1
 459 1024 l 1,18,-1
 129 1024 l 1,19,-1
 129 761 l 1,20,-1
 459 761 l 1,21,-1
 459 -232 l 1,22,-1
 788 -232 l 1,23,-1
 788 761 l 1,24,-1
 1118 761 l 1,25,-1
 1118 1024 l 1,26,-1
 788 1024 l 1,27,-1
 788 1375 l 1,28,-1
 459 1375 l 1,17,-1
415 1416 m 1,29,-1
 831 1416 l 1,30,-1
 831 1301 l 1,31,-1
 906 1301 l 1,32,-1
 906 1067 l 1,33,-1
 1161 1067 l 1,34,-1
 1161 949 l 1,35,-1
 1237 949 l 1,36,-1
 1237 600 l 1,37,-1
 906 600 l 1,38,-1
 906 -392 l 1,39,-1
 492 -392 l 1,40,-1
 492 -273 l 1,41,-1
 415 -273 l 1,42,-1
 415 600 l 1,43,-1
 159 600 l 1,44,-1
 159 719 l 1,45,-1
 84 719 l 1,46,-1
 84 1067 l 1,47,-1
 415 1067 l 1,48,-1
 415 1416 l 1,29,-1
EndSplineSet
Validated: 1
EndChar

StartChar: daggerdbl
Encoding: 8225 8225 104
Width: 1322
Flags: W
LayerCount: 2
Fore
SplineSet
255 271 m 1,0,-1
 214 314 l 1,1,-1
 459 314 l 1,2,-1
 459 271 l 1,3,-1
 255 271 l 1,0,-1
255 898 m 1,4,-1
 214 941 l 1,5,-1
 459 941 l 1,6,-1
 459 898 l 1,7,-1
 255 898 l 1,4,-1
700 115 m 1,8,-1
 700 -146 l 1,9,-1
 660 -104 l 1,10,-1
 660 157 l 1,11,-1
 700 115 l 1,8,-1
700 738 m 1,12,-1
 700 314 l 1,13,-1
 1030 314 l 1,14,-1
 1030 243 l 1,15,-1
 990 271 l 1,16,-1
 660 271 l 1,17,-1
 660 781 l 1,18,-1
 700 738 l 1,12,-1
545 1290 m 1,19,-1
 700 1290 l 1,20,-1
 700 941 l 1,21,-1
 1030 941 l 1,22,-1
 1030 869 l 1,23,-1
 990 898 l 1,24,-1
 660 898 l 1,25,-1
 660 1247 l 1,26,-1
 586 1247 l 1,27,-1
 545 1290 l 1,19,-1
459 1375 m 1,28,-1
 459 1024 l 1,29,-1
 129 1024 l 1,30,-1
 129 761 l 1,31,-1
 459 761 l 1,32,-1
 459 400 l 1,33,-1
 129 400 l 1,34,-1
 129 135 l 1,35,-1
 459 135 l 1,36,-1
 459 -230 l 1,37,-1
 788 -230 l 1,38,-1
 788 135 l 1,39,-1
 1118 135 l 1,40,-1
 1118 400 l 1,41,-1
 788 400 l 1,42,-1
 788 761 l 1,43,-1
 1118 761 l 1,44,-1
 1118 1024 l 1,45,-1
 788 1024 l 1,46,-1
 788 1375 l 1,47,-1
 459 1375 l 1,28,-1
415 1416 m 1,48,-1
 831 1416 l 1,49,-1
 831 1301 l 1,50,-1
 906 1301 l 1,51,-1
 906 1067 l 1,52,-1
 1161 1067 l 1,53,-1
 1161 949 l 1,54,-1
 1237 949 l 1,55,-1
 1237 600 l 1,56,-1
 906 600 l 1,57,-1
 906 442 l 1,58,-1
 1161 442 l 1,59,-1
 1161 325 l 1,60,-1
 1237 325 l 1,61,-1
 1237 -25 l 1,62,-1
 906 -25 l 1,63,-1
 906 -392 l 1,64,-1
 492 -392 l 1,65,-1
 492 -273 l 1,66,-1
 415 -273 l 1,67,-1
 415 -25 l 1,68,-1
 159 -25 l 1,69,-1
 159 92 l 1,70,-1
 84 92 l 1,71,-1
 84 442 l 1,72,-1
 415 442 l 1,73,-1
 415 600 l 1,74,-1
 159 600 l 1,75,-1
 159 719 l 1,76,-1
 84 719 l 1,77,-1
 84 1067 l 1,78,-1
 415 1067 l 1,79,-1
 415 1416 l 1,48,-1
EndSplineSet
Validated: 1
EndChar

StartChar: circumflex
Encoding: 710 710 105
Width: 1020
Flags: W
LayerCount: 2
Fore
SplineSet
419 1747 m 1,0,-1
 398 1776 l 1,1,-1
 596 1804 l 1,2,-1
 763 1657 l 1,3,-1
 657 1702 l 1,4,-1
 576 1768 l 1,5,-1
 419 1747 l 1,0,-1
753 1821 m 1,6,-1
 783 1825 l 1,7,-1
 1083 1488 l 1,8,-1
 794 1447 l 1,9,-1
 633 1535 l 1,10,-1
 500 1406 l 1,11,-1
 210 1365 l 1,12,-1
 273 1494 l 1,13,-1
 86 1468 l 1,14,-1
 282 1876 l 1,15,-1
 660 1926 l 1,16,-1
 753 1821 l 1,6,-1
312 1837 m 1,17,-1
 159 1521 l 1,18,-1
 355 1549 l 1,19,-1
 502 1688 l 1,20,-1
 678 1594 l 1,21,-1
 874 1620 l 1,22,-1
 641 1882 l 1,23,-1
 312 1837 l 1,17,-1
EndSplineSet
Validated: 1
EndChar

StartChar: perthousand
Encoding: 8240 8240 106
Width: 3147
Flags: W
LayerCount: 2
Fore
SplineSet
1601 1334 m 1,0,-1
 1731 1334 l 1,1,-1
 984 -153 l 1,2,-1
 711 -153 l 1,3,-1
 769 -35 l 1,4,-1
 524 -35 l 1,5,-1
 1276 1453 l 1,6,-1
 1661 1453 l 1,7,-1
 1601 1334 l 1,0,-1
1303 1410 m 1,8,-1
 596 -2 l 1,9,-1
 886 -2 l 1,10,-1
 1590 1410 l 1,11,-1
 1303 1410 l 1,8,-1
1412 1284 m 1,12,-1
 1303 1284 l 1,13,-1
 1312 1324 l 1,14,-1
 1476 1324 l 1,15,-1
 857 92 l 1,16,-1
 810 92 l 1,17,-1
 1412 1284 l 1,12,-1
2639 753 m 0,18,19
 2477 753 2477 753 2381.5 652.5 c 128,-1,20
 2286 552 2286 552 2286 380 c 256,21,22
 2286 208 2286 208 2381.5 107 c 128,-1,23
 2477 6 2477 6 2639 6 c 0,24,25
 2813 6 2813 6 2914 105.5 c 128,-1,26
 3015 205 3015 205 3015 380 c 0,27,28
 3015 556 3015 556 2915.5 654.5 c 128,-1,29
 2816 753 2816 753 2639 753 c 0,18,19
2869 551 m 2,30,-1
 2869 592 l 1,31,32
 2905 552 2905 552 2922 499.5 c 128,-1,33
 2939 447 2939 447 2939 380 c 0,34,35
 2939 306 2939 306 2920.5 251 c 128,-1,36
 2902 196 2902 196 2865 159 c 1,37,-1
 2865 181 l 2,38,39
 2865 198 2865 198 2881.5 262.5 c 128,-1,40
 2898 327 2898 327 2898 380 c 0,41,42
 2898 431 2898 431 2883.5 487 c 128,-1,43
 2869 543 2869 543 2869 551 c 2,30,-1
662 1208 m 2,44,-1
 662 1247 l 1,45,46
 697 1207 697 1207 713.5 1155.5 c 128,-1,47
 730 1104 730 1104 730 1036 c 0,48,49
 730 964 730 964 712 908.5 c 128,-1,50
 694 853 694 853 657 816 c 1,51,-1
 657 839 l 2,52,53
 657 855 657 855 673.5 919.5 c 128,-1,54
 690 984 690 984 690 1036 c 256,55,56
 690 1088 690 1088 676 1144 c 128,-1,57
 662 1200 662 1200 662 1208 c 2,44,-1
1963 551 m 2,58,-1
 1963 592 l 1,59,60
 1998 553 1998 553 2014.5 501 c 128,-1,61
 2031 449 2031 449 2031 380 c 0,62,63
 2031 306 2031 306 2012.5 251 c 128,-1,64
 1994 196 1994 196 1957 159 c 1,65,-1
 1957 181 l 2,66,67
 1957 198 1957 198 1973.5 262.5 c 128,-1,68
 1990 327 1990 327 1990 380 c 0,69,70
 1990 431 1990 431 1976.5 487 c 128,-1,71
 1963 543 1963 543 1963 551 c 2,58,-1
431 1410 m 0,72,73
 268 1410 268 1410 173 1309.5 c 128,-1,74
 78 1209 78 1209 78 1036 c 0,75,76
 78 865 78 865 173.5 764.5 c 128,-1,77
 269 664 269 664 431 664 c 0,78,79
 606 664 606 664 707 763.5 c 128,-1,80
 808 863 808 863 808 1036 c 0,81,82
 808 1213 808 1213 708 1311.5 c 128,-1,83
 608 1410 608 1410 431 1410 c 0,72,73
1731 753 m 0,84,85
 1568 753 1568 753 1472.5 652.5 c 128,-1,86
 1377 552 1377 552 1377 380 c 256,87,88
 1377 208 1377 208 1473 107 c 128,-1,89
 1569 6 1569 6 1731 6 c 0,90,91
 1906 6 1906 6 2007.5 106 c 128,-1,92
 2109 206 2109 206 2109 380 c 0,93,94
 2109 556 2109 556 2008.5 654.5 c 128,-1,95
 1908 753 1908 753 1731 753 c 0,84,85
2639 623 m 0,96,97
 2714 623 2714 623 2746.5 566 c 128,-1,98
 2779 509 2779 509 2779 378 c 0,99,100
 2779 251 2779 251 2745 192 c 128,-1,101
 2711 133 2711 133 2637 133 c 256,102,103
 2563 133 2563 133 2529.5 191 c 128,-1,104
 2496 249 2496 249 2496 378 c 0,105,106
 2496 505 2496 505 2530.5 564 c 128,-1,107
 2565 623 2565 623 2639 623 c 0,96,97
2733 461 m 1,108,109
 2727 461 2727 461 2721.5 462 c 128,-1,110
 2716 463 2716 463 2715 463 c 0,111,112
 2662 463 2662 463 2638 415.5 c 128,-1,113
 2614 368 2614 368 2614 259 c 0,114,115
 2614 241 2614 241 2615 221.5 c 128,-1,116
 2616 202 2616 202 2619 177 c 0,117,118
 2622 176 2622 176 2625.5 175.5 c 128,-1,119
 2629 175 2629 175 2637 175 c 0,120,121
 2690 175 2690 175 2712.5 221.5 c 128,-1,122
 2735 268 2735 268 2735 378 c 0,123,124
 2735 415 2735 415 2734.5 431.5 c 128,-1,125
 2734 448 2734 448 2733 461 c 1,108,109
3029 563 m 1,126,127
 3081 509 3081 509 3108 433 c 128,-1,128
 3135 357 3135 357 3135 261 c 0,129,130
 3135 74 3135 74 3020 -39.5 c 128,-1,131
 2905 -153 2905 -153 2715 -153 c 0,132,133
 2585 -153 2585 -153 2490 -92.5 c 128,-1,134
 2395 -32 2395 -32 2349 80 c 1,135,136
 2294 138 2294 138 2267.5 212 c 128,-1,137
 2241 286 2241 286 2241 380 c 0,138,139
 2241 570 2241 570 2349.5 683 c 128,-1,140
 2458 796 2458 796 2639 796 c 0,141,142
 2778 796 2778 796 2882 734 c 128,-1,143
 2986 672 2986 672 3029 563 c 1,126,127
2121 563 m 1,144,145
 2174 509 2174 509 2200 433 c 128,-1,146
 2226 357 2226 357 2226 261 c 0,147,148
 2226 74 2226 74 2111.5 -39.5 c 128,-1,149
 1997 -153 1997 -153 1806 -153 c 0,150,151
 1677 -153 1677 -153 1583 -92.5 c 128,-1,152
 1489 -32 1489 -32 1443 80 c 1,153,154
 1388 138 1388 138 1361 212 c 128,-1,155
 1334 286 1334 286 1334 380 c 0,156,157
 1334 570 1334 570 1442 683 c 128,-1,158
 1550 796 1550 796 1731 796 c 0,159,160
 1871 796 1871 796 1974.5 734.5 c 128,-1,161
 2078 673 2078 673 2121 563 c 1,144,145
1825 461 m 1,162,163
 1819 461 1819 461 1813 462 c 128,-1,164
 1807 463 1807 463 1806 463 c 0,165,166
 1754 463 1754 463 1731 416.5 c 128,-1,167
 1708 370 1708 370 1708 259 c 0,168,169
 1708 221 1708 221 1708.5 205.5 c 128,-1,170
 1709 190 1709 190 1710 178 c 0,171,172
 1714 176 1714 176 1717.5 175.5 c 128,-1,173
 1721 175 1721 175 1731 175 c 0,174,175
 1783 175 1783 175 1806 221.5 c 128,-1,176
 1829 268 1829 268 1829 378 c 0,177,178
 1829 395 1829 395 1828 415.5 c 128,-1,179
 1827 436 1827 436 1825 461 c 1,162,163
1731 623 m 256,180,181
 1806 623 1806 623 1839 566 c 128,-1,182
 1872 509 1872 509 1872 378 c 0,183,184
 1872 250 1872 250 1838 191.5 c 128,-1,185
 1804 133 1804 133 1731 133 c 0,186,187
 1656 133 1656 133 1622 191.5 c 128,-1,188
 1588 250 1588 250 1588 378 c 0,189,190
 1588 505 1588 505 1622 564 c 128,-1,191
 1656 623 1656 623 1731 623 c 256,180,181
431 1280 m 256,192,193
 505 1280 505 1280 538 1222.5 c 128,-1,194
 571 1165 571 1165 571 1032 c 0,195,196
 571 907 571 907 536.5 848.5 c 128,-1,197
 502 790 502 790 429 790 c 0,198,199
 355 790 355 790 321.5 848 c 128,-1,200
 288 906 288 906 288 1034 c 256,201,202
 288 1162 288 1162 322.5 1221 c 128,-1,203
 357 1280 357 1280 431 1280 c 256,192,193
524 1116 m 1,204,205
 519 1116 519 1116 513.5 1117 c 128,-1,206
 508 1118 508 1118 506 1118 c 0,207,208
 453 1118 453 1118 431 1071.5 c 128,-1,209
 409 1025 409 1025 409 917 c 0,210,211
 409 879 409 879 409.5 862.5 c 128,-1,212
 410 846 410 846 411 835 c 0,213,214
 415 833 415 833 418 833 c 128,-1,215
 421 833 421 833 429 833 c 0,216,217
 481 833 481 833 504.5 880 c 128,-1,218
 528 927 528 927 528 1034 c 0,219,220
 528 1052 528 1052 527.5 1069.5 c 128,-1,221
 527 1087 527 1087 524 1116 c 1,204,205
820 1221 m 1,222,223
 873 1167 873 1167 900 1090.5 c 128,-1,224
 927 1014 927 1014 927 919 c 0,225,226
 927 734 927 734 810 618 c 128,-1,227
 693 502 693 502 506 502 c 0,228,229
 378 502 378 502 282 563.5 c 128,-1,230
 186 625 186 625 141 736 c 1,231,232
 87 793 87 793 61 867 c 128,-1,233
 35 941 35 941 35 1036 c 0,234,235
 35 1228 35 1228 142 1340.5 c 128,-1,236
 249 1453 249 1453 431 1453 c 0,237,238
 571 1453 571 1453 674 1391 c 128,-1,239
 777 1329 777 1329 820 1221 c 1,222,223
EndSplineSet
Validated: 1
EndChar

StartChar: Scaron
Encoding: 352 352 107
Width: 1198
Flags: W
LayerCount: 2
Fore
SplineSet
1011 1379 m 1,0,-1
 996 1276 l 1,1,-1
 1069 1251 l 1,2,-1
 1019 888 l 1,3,4
 963 906 963 906 912.5 915.5 c 128,-1,5
 862 925 862 925 818 925 c 0,6,7
 771 925 771 925 745 915 c 128,-1,8
 719 905 719 905 705 882 c 1,9,10
 855 809 855 809 933 732.5 c 128,-1,11
 1011 656 1011 656 1030 561 c 1,12,13
 1066 507 1066 507 1083 451.5 c 128,-1,14
 1100 396 1100 396 1100 333 c 0,15,16
 1100 116 1100 116 963 -15 c 128,-1,17
 826 -146 826 -146 600 -146 c 0,18,19
 479 -146 479 -146 355.5 -120 c 128,-1,20
 232 -94 232 -94 111 -41 c 1,21,-1
 125 57 l 1,22,23
 120 59 120 59 110 63 c 0,24,25
 71 78 71 78 53 86 c 1,26,-1
 104 453 l 1,27,28
 203 397 203 397 289 368 c 128,-1,29
 375 339 375 339 440 339 c 0,30,31
 492 339 492 339 521.5 357.5 c 128,-1,32
 551 376 551 376 561 415 c 1,33,34
 382 535 382 535 313 610.5 c 128,-1,35
 244 686 244 686 228 767 c 1,36,37
 195 811 195 811 179 863 c 128,-1,38
 163 915 163 915 163 978 c 0,39,40
 163 1175 163 1175 278 1301 c 128,-1,41
 393 1427 393 1427 590 1445 c 1,42,-1
 559 1515 l 1,43,-1
 533 1519 l 1,44,-1
 335 1924 l 1,45,-1
 625 1884 l 1,46,-1
 759 1755 l 1,47,-1
 919 1843 l 1,48,-1
 1215 1800 l 1,49,-1
 1118 1696 l 1,50,-1
 1272 1673 l 1,51,-1
 1011 1379 l 1,0,-1
964 1351 m 1,52,53
 882 1379 882 1379 804.5 1392.5 c 128,-1,54
 727 1406 727 1406 647 1406 c 0,55,56
 446 1406 446 1406 326 1288 c 128,-1,57
 206 1170 206 1170 206 974 c 0,58,59
 206 884 206 884 251.5 812.5 c 128,-1,60
 297 741 297 741 402 668 c 0,61,62
 418 657 418 657 448 636 c 0,63,64
 608 528 608 528 608 447 c 0,65,66
 608 376 608 376 565 336 c 128,-1,67
 522 296 522 296 444 296 c 0,68,69
 377 296 377 296 298.5 319.5 c 128,-1,70
 220 343 220 343 139 388 c 1,71,-1
 100 115 l 1,72,73
 205 70 205 70 314 47.5 c 128,-1,74
 423 25 423 25 528 25 c 0,75,76
 747 25 747 25 872.5 141 c 128,-1,77
 998 257 998 257 998 459 c 0,78,79
 998 570 998 570 945.5 649 c 128,-1,80
 893 728 893 728 774 793 c 0,81,82
 765 798 765 798 749 807 c 0,83,84
 592 894 592 894 592 970 c 0,85,86
 592 1028 592 1028 636 1062 c 128,-1,87
 680 1096 680 1096 757 1096 c 0,88,89
 787 1096 787 1096 828.5 1089.5 c 128,-1,90
 870 1083 870 1083 925 1069 c 1,91,-1
 964 1351 l 1,52,53
867 1292 m 1,92,-1
 849 1159 l 1,93,-1
 812 1200 l 1,94,-1
 822 1262 l 1,95,96
 787 1272 787 1272 751 1277 c 128,-1,97
 715 1282 715 1282 676 1282 c 1,98,-1
 676 1320 l 1,99,100
 719 1320 719 1320 767 1313.5 c 128,-1,101
 815 1307 815 1307 867 1292 c 1,92,-1
425 156 m 1,102,103
 449 154 449 154 474.5 152.5 c 128,-1,104
 500 151 500 151 524 151 c 0,105,106
 692 151 692 151 781.5 231 c 128,-1,107
 871 311 871 311 871 459 c 0,108,109
 871 532 871 532 837 582 c 128,-1,110
 803 632 803 632 699 694 c 0,111,112
 687 701 687 701 664 715 c 0,113,114
 480 822 480 822 467 937 c 1,115,-1
 510 947 l 1,116,117
 514 852 514 852 693 744 c 0,118,119
 711 733 711 733 719 729 c 0,120,121
 838 656 838 656 875 599 c 128,-1,122
 912 542 912 542 912 459 c 0,123,124
 912 293 912 293 811 201 c 128,-1,125
 710 109 710 109 526 109 c 0,126,127
 509 109 509 109 487 110.5 c 128,-1,128
 465 112 465 112 421 117 c 1,129,-1
 425 156 l 1,102,103
705 1641 m 1,130,-1
 649 1649 l 1,131,-1
 553 1759 l 1,132,-1
 528 1761 l 1,133,-1
 504 1796 l 1,134,-1
 571 1788 l 1,135,-1
 705 1641 l 1,130,-1
561 1556 m 1,136,-1
 896 1508 l 1,137,-1
 1129 1772 l 1,138,-1
 927 1798 l 1,139,-1
 751 1704 l 1,140,-1
 606 1843 l 1,141,-1
 409 1872 l 1,142,-1
 561 1556 l 1,136,-1
EndSplineSet
Validated: 1
EndChar

StartChar: guilsinglleft
Encoding: 8249 8249 108
Width: 761
Flags: W
LayerCount: 2
Fore
SplineSet
364 841 m 1,0,-1
 413 841 l 1,1,-1
 261 535 l 1,2,-1
 413 226 l 1,3,-1
 364 226 l 1,4,-1
 214 535 l 1,5,-1
 364 841 l 1,0,-1
306 927 m 1,6,-1
 119 535 l 1,7,-1
 306 141 l 1,8,-1
 545 141 l 1,9,-1
 372 535 l 1,10,-1
 545 927 l 1,11,-1
 306 927 l 1,6,-1
557 851 m 1,12,-1
 686 851 l 1,13,-1
 494 417 l 1,14,-1
 686 -18 l 1,15,-1
 355 -18 l 1,16,-1
 298 100 l 1,17,-1
 280 100 l 1,18,-1
 70 535 l 1,19,-1
 280 970 l 1,20,-1
 610 970 l 1,21,-1
 557 851 l 1,12,-1
EndSplineSet
Validated: 1
EndChar

StartChar: OE
Encoding: 338 338 109
Width: 2051
Flags: W
LayerCount: 2
Fore
SplineSet
806 267 m 2,0,-1
 933 259 l 1,1,-1
 931 218 l 1,2,-1
 802 228 l 2,3,4
 606 242 606 242 500 350.5 c 128,-1,5
 394 459 394 459 382 657 c 1,6,-1
 425 662 l 1,7,8
 436 476 436 476 531 378 c 128,-1,9
 626 280 626 280 806 267 c 2,0,-1
874 1260 m 1,10,-1
 878 1301 l 1,11,-1
 1804 1237 l 1,12,-1
 1796 1094 l 1,13,-1
 1757 1139 l 1,14,-1
 1761 1198 l 1,15,-1
 874 1260 l 1,10,-1
1249 1083 m 1,16,-1
 1288 1036 l 1,17,-1
 1268 755 l 1,18,-1
 1770 721 l 1,19,-1
 1759 584 l 1,20,-1
 1723 625 l 1,21,-1
 1725 682 l 1,22,-1
 1225 717 l 1,23,-1
 1249 1083 l 1,16,-1
1215 567 m 1,24,-1
 1251 522 l 1,25,-1
 1231 239 l 1,26,-1
 1733 204 l 1,27,-1
 1723 68 l 1,28,-1
 1686 109 l 1,29,-1
 1690 165 l 1,30,-1
 1188 200 l 1,31,-1
 1215 567 l 1,24,-1
863 1098 m 2,32,-1
 990 1090 l 1,33,-1
 939 345 l 1,34,-1
 810 353 l 2,35,36
 657 364 657 364 580.5 449.5 c 128,-1,37
 504 535 504 535 504 696 c 0,38,39
 504 897 504 897 585 998.5 c 128,-1,40
 666 1100 666 1100 826 1100 c 0,41,42
 833 1100 833 1100 845 1099 c 128,-1,43
 857 1098 857 1098 863 1098 c 2,32,-1
1019 1375 m 2,44,45
 924 1382 924 1382 851.5 1386 c 128,-1,46
 779 1390 779 1390 738 1390 c 0,47,48
 423 1390 423 1390 260.5 1212 c 128,-1,49
 98 1034 98 1034 98 690 c 0,50,51
 98 509 98 509 155.5 384.5 c 128,-1,52
 213 260 213 260 337 171 c 0,53,54
 408 121 408 121 523.5 94 c 128,-1,55
 639 67 639 67 927 47 c 2,56,-1
 1804 -14 l 1,57,-1
 1825 282 l 1,58,-1
 1324 318 l 1,59,-1
 1338 537 l 1,60,-1
 1841 502 l 1,61,-1
 1862 798 l 1,62,-1
 1359 833 l 1,63,-1
 1375 1053 l 1,64,-1
 1878 1019 l 1,65,-1
 1898 1314 l 1,66,-1
 1019 1375 l 2,44,45
1023 1418 m 2,67,-1
 1945 1353 l 1,68,-1
 1935 1237 l 1,69,-1
 2010 1231 l 1,70,-1
 1988 890 l 1,71,-1
 1486 925 l 1,72,-1
 1482 867 l 1,73,-1
 1908 837 l 1,74,-1
 1900 721 l 1,75,-1
 1975 715 l 1,76,-1
 1951 374 l 1,77,-1
 1449 409 l 1,78,-1
 1445 351 l 1,79,-1
 1872 323 l 1,80,-1
 1864 204 l 1,81,-1
 1939 198 l 1,82,-1
 1912 -183 l 1,83,-1
 990 -119 l 2,84,85
 989 -119 989 -119 986 -118 c 0,86,87
 464 -83 464 -83 304 76 c 0,88,89
 257 123 257 123 223.5 172 c 128,-1,90
 190 221 190 221 169 275 c 1,91,92
 112 356 112 356 83.5 455.5 c 128,-1,93
 55 555 55 555 55 682 c 0,94,95
 55 1051 55 1051 229 1242 c 128,-1,96
 403 1433 403 1433 740 1433 c 0,97,98
 782 1433 782 1433 855.5 1429 c 128,-1,99
 929 1425 929 1425 1023 1418 c 2,67,-1
931 962 m 1,100,-1
 900 962 l 2,101,102
 755 962 755 962 685.5 873 c 128,-1,103
 616 784 616 784 616 600 c 0,104,105
 616 560 616 560 619.5 525 c 128,-1,106
 623 490 623 490 629 461 c 1,107,108
 661 433 661 433 705.5 417 c 128,-1,109
 750 401 750 401 815 396 c 2,110,-1
 898 390 l 1,111,-1
 937 960 l 1,112,-1
 931 962 l 1,100,-1
EndSplineSet
Validated: 1
EndChar

StartChar: quoteleft
Encoding: 8216 8216 114
Width: 783
Flags: W
LayerCount: 2
Fore
SplineSet
355 1290 m 1,0,-1
 483 1290 l 1,1,-1
 409 935 l 1,2,-1
 376 978 l 1,3,-1
 433 1247 l 1,4,-1
 337 1247 l 1,5,-1
 355 1290 l 1,0,-1
314 1375 m 1,6,-1
 109 849 l 1,7,-1
 477 849 l 1,8,-1
 592 1375 l 1,9,-1
 314 1375 l 1,6,-1
619 1301 m 1,10,-1
 721 1301 l 1,11,-1
 590 688 l 1,12,-1
 123 688 l 1,13,-1
 167 806 l 1,14,-1
 47 806 l 1,15,-1
 284 1416 l 1,16,-1
 645 1416 l 1,17,-1
 619 1301 l 1,10,-1
EndSplineSet
Validated: 1
EndChar

StartChar: quoteright
Encoding: 8217 8217 115
Width: 783
Flags: W
LayerCount: 2
Fore
SplineSet
323 1249 m 1,0,-1
 333 1290 l 1,1,-1
 506 1290 l 1,2,-1
 368 935 l 1,3,-1
 339 978 l 1,4,-1
 444 1249 l 1,5,-1
 323 1249 l 1,0,-1
263 1375 m 1,6,-1
 149 849 l 1,7,-1
 427 849 l 1,8,-1
 631 1375 l 1,9,-1
 263 1375 l 1,6,-1
649 1301 m 1,10,-1
 769 1301 l 1,11,-1
 533 688 l 1,12,-1
 171 688 l 1,13,-1
 198 806 l 1,14,-1
 96 806 l 1,15,-1
 226 1416 l 1,16,-1
 694 1416 l 1,17,-1
 649 1301 l 1,10,-1
EndSplineSet
Validated: 1
EndChar

StartChar: quotedblleft
Encoding: 8220 8220 116
Width: 1398
Flags: W
LayerCount: 2
Fore
SplineSet
970 1290 m 1,0,-1
 1098 1290 l 1,1,-1
 1022 935 l 1,2,-1
 990 978 l 1,3,-1
 1047 1247 l 1,4,-1
 951 1247 l 1,5,-1
 970 1290 l 1,0,-1
355 1290 m 1,6,-1
 483 1290 l 1,7,-1
 409 935 l 1,8,-1
 376 978 l 1,9,-1
 433 1247 l 1,10,-1
 337 1247 l 1,11,-1
 355 1290 l 1,6,-1
314 1375 m 1,12,-1
 109 849 l 1,13,-1
 477 849 l 1,14,-1
 592 1375 l 1,15,-1
 314 1375 l 1,12,-1
1233 1301 m 1,16,-1
 1334 1301 l 1,17,-1
 1204 688 l 1,18,-1
 736 688 l 1,19,-1
 781 806 l 1,20,-1
 662 806 l 1,21,-1
 898 1416 l 1,22,-1
 1260 1416 l 1,23,-1
 1233 1301 l 1,16,-1
929 1375 m 1,24,-1
 723 849 l 1,25,-1
 1092 849 l 1,26,-1
 1206 1375 l 1,27,-1
 929 1375 l 1,24,-1
619 1301 m 1,28,-1
 721 1301 l 1,29,-1
 590 688 l 1,30,-1
 123 688 l 1,31,-1
 167 806 l 1,32,-1
 47 806 l 1,33,-1
 284 1416 l 1,34,-1
 645 1416 l 1,35,-1
 619 1301 l 1,28,-1
EndSplineSet
Validated: 1
EndChar

StartChar: quotedblright
Encoding: 8221 8221 117
Width: 1398
Flags: W
LayerCount: 2
Fore
SplineSet
878 1375 m 1,0,-1
 763 849 l 1,1,-1
 1040 849 l 1,2,-1
 1245 1375 l 1,3,-1
 878 1375 l 1,0,-1
937 1249 m 1,4,-1
 947 1290 l 1,5,-1
 1120 1290 l 1,6,-1
 982 935 l 1,7,-1
 953 978 l 1,8,-1
 1059 1249 l 1,9,-1
 937 1249 l 1,4,-1
263 1375 m 1,10,-1
 149 849 l 1,11,-1
 427 849 l 1,12,-1
 631 1375 l 1,13,-1
 263 1375 l 1,10,-1
323 1249 m 1,14,-1
 333 1290 l 1,15,-1
 506 1290 l 1,16,-1
 368 935 l 1,17,-1
 339 978 l 1,18,-1
 444 1249 l 1,19,-1
 323 1249 l 1,14,-1
1264 1301 m 1,20,-1
 1384 1301 l 1,21,-1
 1147 688 l 1,22,-1
 785 688 l 1,23,-1
 810 806 l 1,24,-1
 711 806 l 1,25,-1
 841 1416 l 1,26,-1
 1309 1416 l 1,27,-1
 1264 1301 l 1,20,-1
649 1301 m 1,28,-1
 769 1301 l 1,29,-1
 533 688 l 1,30,-1
 171 688 l 1,31,-1
 198 806 l 1,32,-1
 96 806 l 1,33,-1
 226 1416 l 1,34,-1
 694 1416 l 1,35,-1
 649 1301 l 1,28,-1
EndSplineSet
Validated: 1
EndChar

StartChar: bullet
Encoding: 8226 8226 118
Width: 1204
Flags: W
LayerCount: 2
Fore
SplineSet
306 759 m 0,0,1
 306 882 306 882 392.5 967.5 c 128,-1,2
 479 1053 479 1053 602 1053 c 0,3,4
 724 1053 724 1053 810 967 c 128,-1,5
 896 881 896 881 896 759 c 0,6,7
 896 638 896 638 809 550.5 c 128,-1,8
 722 463 722 463 600 463 c 0,9,10
 477 463 477 463 391.5 550 c 128,-1,11
 306 637 306 637 306 759 c 0,0,1
EndSplineSet
Validated: 1
EndChar

StartChar: endash
Encoding: 8211 8211 119
Width: 1020
Flags: W
LayerCount: 2
Fore
SplineSet
727 559 m 1,0,-1
 218 559 l 1,1,-1
 177 600 l 1,2,-1
 767 600 l 1,3,-1
 767 535 l 1,4,-1
 727 559 l 1,0,-1
90 662 m 1,5,-1
 90 417 l 1,6,-1
 855 417 l 1,7,-1
 855 662 l 1,8,-1
 90 662 l 1,5,-1
898 586 m 1,9,-1
 974 586 l 1,10,-1
 974 255 l 1,11,-1
 123 255 l 1,12,-1
 123 374 l 1,13,-1
 47 374 l 1,14,-1
 47 705 l 1,15,-1
 898 705 l 1,16,-1
 898 586 l 1,9,-1
EndSplineSet
Validated: 1
EndChar

StartChar: emdash
Encoding: 8212 8212 120
Width: 2041
Flags: W
LayerCount: 2
Fore
SplineSet
1965 582 m 1,0,-1
 2041 582 l 1,1,-1
 2041 255 l 1,2,-1
 76 255 l 1,3,-1
 76 374 l 1,4,-1
 0 374 l 1,5,-1
 0 700 l 1,6,-1
 1965 700 l 1,7,-1
 1965 582 l 1,0,-1
1794 555 m 1,8,-1
 171 555 l 1,9,-1
 131 596 l 1,10,-1
 1835 596 l 1,11,-1
 1835 528 l 1,12,-1
 1794 555 l 1,8,-1
43 657 m 1,13,-1
 43 417 l 1,14,-1
 1922 417 l 1,15,-1
 1922 657 l 1,16,-1
 43 657 l 1,13,-1
EndSplineSet
Validated: 1
EndChar

StartChar: tilde
Encoding: 732 732 121
Width: 1020
Flags: W
LayerCount: 2
Fore
SplineSet
528 1753 m 1,0,-1
 524 1720 l 1,1,-1
 453 1729 l 2,2,3
 451 1729 451 1729 448 1729 c 0,4,5
 417 1733 417 1733 402 1733 c 0,6,7
 382 1733 382 1733 365 1727.5 c 128,-1,8
 348 1722 348 1722 333 1710 c 1,9,-1
 312 1739 l 1,10,11
 328 1753 328 1753 349 1759.5 c 128,-1,12
 370 1766 370 1766 402 1766 c 0,13,14
 412 1765 412 1765 423 1764.5 c 128,-1,15
 434 1764 434 1764 459 1761 c 2,16,-1
 528 1753 l 1,0,-1
861 1844 m 1,17,-1
 964 1857 l 1,18,19
 962 1668 962 1668 892 1564.5 c 128,-1,20
 822 1461 822 1461 698 1461 c 0,21,22
 684 1461 684 1461 678 1461.5 c 128,-1,23
 672 1462 672 1462 666 1463 c 2,24,-1
 494 1480 l 2,25,26
 490 1480 490 1480 484.5 1481 c 128,-1,27
 479 1482 479 1482 477 1482 c 0,28,29
 453 1482 453 1482 442 1469 c 128,-1,30
 431 1456 431 1456 431 1429 c 0,31,32
 431 1418 431 1418 431.5 1413 c 128,-1,33
 432 1408 432 1408 433 1402 c 1,34,-1
 222 1372 l 1,35,36
 224 1404 224 1404 227.5 1433 c 128,-1,37
 231 1462 231 1462 236 1492 c 1,38,-1
 131 1478 l 1,39,40
 142 1676 142 1676 207.5 1770 c 128,-1,41
 273 1864 273 1864 402 1864 c 0,42,43
 420 1864 420 1864 428.5 1863.5 c 128,-1,44
 437 1863 437 1863 444 1862 c 2,45,-1
 592 1847 l 2,46,47
 596 1847 596 1847 603 1846 c 128,-1,48
 610 1845 610 1845 612 1845 c 0,49,50
 642 1845 642 1845 654 1860 c 128,-1,51
 666 1875 666 1875 666 1912 c 2,52,-1
 666 1935 l 1,53,-1
 871 1963 l 1,54,55
 870 1949 870 1949 868 1923 c 0,56,57
 863 1867 863 1867 861 1844 c 1,17,-1
707 1898 m 1,58,-1
 707 1890 l 2,59,60
 707 1849 707 1849 682 1826.5 c 128,-1,61
 657 1804 657 1804 610 1804 c 0,62,63
 606 1804 606 1804 598 1805 c 128,-1,64
 590 1806 590 1806 586 1806 c 2,65,-1
 440 1821 l 2,66,67
 434 1822 434 1822 427 1822.5 c 128,-1,68
 420 1823 420 1823 405 1823 c 0,69,70
 299 1823 299 1823 246 1752 c 128,-1,71
 193 1681 193 1681 183 1529 c 1,72,-1
 300 1545 l 1,73,-1
 300 1556 l 2,74,75
 300 1589 300 1589 325 1608.5 c 128,-1,76
 350 1628 350 1628 392 1628 c 2,77,-1
 407 1628 l 1,78,-1
 577 1612 l 2,79,80
 583 1611 583 1611 588.5 1610.5 c 128,-1,81
 594 1610 594 1610 606 1610 c 0,82,83
 706 1610 706 1610 762.5 1690 c 128,-1,84
 819 1770 819 1770 822 1914 c 1,85,-1
 707 1898 l 1,58,-1
EndSplineSet
Validated: 1
EndChar

StartChar: trademark
Encoding: 8482 8482 122
Width: 1700
Flags: W
LayerCount: 2
Fore
SplineSet
806 1455 m 1,0,-1
 976 1455 l 1,1,-1
 1116 1096 l 1,2,-1
 1249 1455 l 1,3,-1
 1418 1455 l 1,4,-1
 1418 915 l 1,5,-1
 1305 915 l 1,6,-1
 1305 1341 l 1,7,-1
 1145 915 l 1,8,-1
 1086 915 l 1,9,-1
 921 1341 l 1,10,-1
 921 915 l 1,11,-1
 806 915 l 1,12,-1
 806 1455 l 1,0,-1
224 1455 m 1,13,-1
 690 1455 l 1,14,-1
 690 1361 l 1,15,-1
 522 1361 l 1,16,-1
 522 915 l 1,17,-1
 394 915 l 1,18,-1
 394 1361 l 1,19,-1
 224 1361 l 1,20,-1
 224 1455 l 1,13,-1
EndSplineSet
Validated: 1
EndChar

StartChar: scaron
Encoding: 353 353 123
Width: 1198
Flags: W
LayerCount: 2
Fore
SplineSet
282 1502 m 1,0,-1
 614 1549 l 1,1,-1
 767 1864 l 1,2,-1
 565 1835 l 1,3,-1
 423 1696 l 1,4,-1
 245 1790 l 1,5,-1
 47 1763 l 1,6,-1
 282 1502 l 1,0,-1
396 1622 m 1,7,-1
 339 1614 l 1,8,-1
 218 1694 l 1,9,-1
 194 1690 l 1,10,-1
 161 1716 l 1,11,-1
 226 1727 l 1,12,-1
 396 1622 l 1,7,-1
535 119 m 1,13,14
 710 146 710 146 803 225.5 c 128,-1,15
 896 305 896 305 896 427 c 0,16,17
 896 526 896 526 855.5 592 c 128,-1,18
 815 658 815 658 738 684 c 0,19,20
 688 702 688 702 613.5 719 c 128,-1,21
 539 736 539 736 520 745 c 0,22,23
 442 778 442 778 410 807.5 c 128,-1,24
 378 837 378 837 361 880 c 1,25,-1
 400 900 l 1,26,27
 433 808 433 808 630 758 c 0,28,29
 715 736 715 736 761 721 c 0,30,31
 845 691 845 691 891 613.5 c 128,-1,32
 937 536 937 536 937 425 c 0,33,34
 937 286 937 286 834.5 196.5 c 128,-1,35
 732 107 732 107 543 78 c 1,36,-1
 535 119 l 1,13,14
647 1330 m 1,37,-1
 666 1200 l 1,38,-1
 621 1229 l 1,39,-1
 612 1290 l 1,40,41
 578 1290 578 1290 543 1285 c 128,-1,42
 508 1280 508 1280 467 1270 c 1,43,-1
 455 1307 l 1,44,45
 498 1318 498 1318 546 1324 c 128,-1,46
 594 1330 594 1330 647 1330 c 1,37,-1
725 1414 m 1,47,48
 716 1414 716 1414 697.5 1415 c 128,-1,49
 679 1416 679 1416 670 1416 c 0,50,51
 392 1416 392 1416 237 1301.5 c 128,-1,52
 82 1187 82 1187 82 982 c 0,53,54
 82 832 82 832 149 743.5 c 128,-1,55
 216 655 216 655 372 602 c 0,56,57
 387 597 387 597 418 587 c 0,58,59
 639 514 639 514 639 407 c 0,60,61
 639 323 639 323 571.5 282 c 128,-1,62
 504 241 504 241 368 241 c 0,63,64
 325 241 325 241 282.5 246 c 128,-1,65
 240 251 240 251 198 261 c 1,66,-1
 235 -12 l 1,67,68
 271 -15 271 -15 306.5 -16.5 c 128,-1,69
 342 -18 342 -18 378 -18 c 0,70,71
 678 -18 678 -18 851 101.5 c 128,-1,72
 1024 221 1024 221 1024 427 c 0,73,74
 1024 585 1024 585 954 678 c 128,-1,75
 884 771 884 771 728 820 c 0,76,77
 696 830 696 830 637 841.5 c 128,-1,78
 578 853 578 853 555 863 c 0,79,80
 511 883 511 883 489 911 c 128,-1,81
 467 939 467 939 467 976 c 0,82,83
 467 1052 467 1052 541.5 1092 c 128,-1,84
 616 1132 616 1132 763 1135 c 1,85,-1
 725 1414 l 1,47,48
761 1455 m 1,86,-1
 775 1353 l 1,87,-1
 853 1349 l 1,88,-1
 904 984 l 1,89,-1
 876 984 l 2,90,91
 755 984 755 984 686.5 960.5 c 128,-1,92
 618 937 618 937 607 892 c 1,93,94
 768 865 768 865 863.5 812.5 c 128,-1,95
 959 760 959 760 1007 674 c 1,96,97
 1083 609 1083 609 1121 521.5 c 128,-1,98
 1159 434 1159 434 1159 321 c 0,99,100
 1159 96 1159 96 972.5 -36.5 c 128,-1,101
 786 -169 786 -169 465 -169 c 0,102,103
 429 -169 429 -169 386 -166.5 c 128,-1,104
 343 -164 343 -164 288 -159 c 1,105,-1
 273 -59 l 1,106,107
 257 -58 257 -58 233 -55 c 128,-1,108
 209 -52 209 -52 198 -51 c 1,109,-1
 145 314 l 1,110,111
 210 299 210 299 266 291.5 c 128,-1,112
 322 284 322 284 372 284 c 0,113,114
 480 284 480 284 538 313.5 c 128,-1,115
 596 343 596 343 596 398 c 2,116,-1
 596 405 l 1,117,118
 392 469 392 469 303.5 523.5 c 128,-1,119
 215 578 215 578 179 651 c 1,120,121
 111 704 111 704 74 789 c 128,-1,122
 37 874 37 874 37 984 c 0,123,124
 37 1132 37 1132 112.5 1237 c 128,-1,125
 188 1342 188 1342 339 1402 c 1,126,-1
 290 1459 l 1,127,-1
 263 1455 l 1,128,-1
 -39 1794 l 1,129,-1
 253 1835 l 1,130,-1
 415 1747 l 1,131,-1
 545 1876 l 1,132,-1
 841 1916 l 1,133,-1
 779 1790 l 1,134,-1
 933 1811 l 1,135,-1
 761 1455 l 1,86,-1
EndSplineSet
Validated: 1
EndChar

StartChar: guilsinglright
Encoding: 8250 8250 124
Width: 761
Flags: W
LayerCount: 2
Fore
SplineSet
366 141 m 1,0,-1
 553 535 l 1,1,-1
 366 927 l 1,2,-1
 127 927 l 1,3,-1
 300 535 l 1,4,-1
 127 141 l 1,5,-1
 366 141 l 1,0,-1
300 226 m 1,6,-1
 251 226 l 1,7,-1
 400 535 l 1,8,-1
 251 841 l 1,9,-1
 300 841 l 1,10,-1
 449 535 l 1,11,-1
 300 226 l 1,6,-1
449 851 m 1,12,-1
 467 851 l 1,13,-1
 678 417 l 1,14,-1
 467 -18 l 1,15,-1
 137 -18 l 1,16,-1
 189 100 l 1,17,-1
 61 100 l 1,18,-1
 253 535 l 1,19,-1
 61 970 l 1,20,-1
 392 970 l 1,21,-1
 449 851 l 1,12,-1
EndSplineSet
Validated: 1
EndChar

StartChar: oe
Encoding: 339 339 125
Width: 2080
Flags: W
LayerCount: 2
Fore
SplineSet
874 243 m 2,0,-1
 1003 253 l 1,1,-1
 1005 212 l 1,2,-1
 878 204 l 2,3,4
 869 203 869 203 859 202.5 c 128,-1,5
 849 202 849 202 828 202 c 0,6,7
 654 202 654 202 545.5 295 c 128,-1,8
 437 388 437 388 402 569 c 1,9,-1
 440 580 l 1,10,11
 474 411 474 411 572 326 c 128,-1,12
 670 241 670 241 831 241 c 0,13,14
 848 241 848 241 857 241.5 c 128,-1,15
 866 242 866 242 874 243 c 2,0,-1
804 1235 m 1,16,-1
 802 1276 l 1,17,-1
 1731 1341 l 1,18,-1
 1741 1198 l 1,19,-1
 1696 1239 l 1,20,-1
 1692 1299 l 1,21,-1
 804 1235 l 1,16,-1
1202 1112 m 1,22,-1
 1245 1071 l 1,23,-1
 1266 790 l 1,24,-1
 1766 824 l 1,25,-1
 1776 688 l 1,26,-1
 1733 723 l 1,27,-1
 1729 781 l 1,28,-1
 1227 747 l 1,29,-1
 1202 1112 l 1,22,-1
1237 596 m 1,30,-1
 1282 555 l 1,31,-1
 1301 273 l 1,32,-1
 1802 308 l 1,33,-1
 1813 171 l 1,34,-1
 1768 206 l 1,35,-1
 1766 265 l 1,36,-1
 1264 230 l 1,37,-1
 1237 596 l 1,30,-1
816 1073 m 2,38,-1
 943 1081 l 1,39,-1
 996 337 l 1,40,-1
 869 329 l 2,41,42
 863 329 863 329 851 328 c 128,-1,43
 839 327 839 327 833 327 c 0,44,45
 676 327 676 327 593 428 c 128,-1,46
 510 529 510 529 510 723 c 0,47,48
 510 893 510 893 584.5 977.5 c 128,-1,49
 659 1062 659 1062 816 1073 c 2,38,-1
933 1369 m 2,50,51
 669 1351 669 1351 545 1323 c 128,-1,52
 421 1295 421 1295 345 1243 c 0,53,54
 222 1157 222 1157 164 1028 c 128,-1,55
 106 899 106 899 106 715 c 0,56,57
 106 382 106 382 265 203.5 c 128,-1,58
 424 25 424 25 719 25 c 0,59,60
 755 25 755 25 837.5 29 c 128,-1,61
 920 33 920 33 1024 41 c 2,62,-1
 1904 102 l 1,63,-1
 1882 400 l 1,64,-1
 1381 364 l 1,65,-1
 1365 584 l 1,66,-1
 1868 619 l 1,67,-1
 1847 917 l 1,68,-1
 1345 880 l 1,69,-1
 1328 1100 l 1,70,-1
 1831 1135 l 1,71,-1
 1811 1431 l 1,72,-1
 933 1369 l 2,50,51
929 1412 m 2,73,-1
 1852 1478 l 1,74,-1
 1860 1359 l 1,75,-1
 1935 1365 l 1,76,-1
 1959 1022 l 1,77,-1
 1457 988 l 1,78,-1
 1461 931 l 1,79,-1
 1888 962 l 1,80,-1
 1896 843 l 1,81,-1
 1971 849 l 1,82,-1
 1994 506 l 1,83,-1
 1492 471 l 1,84,-1
 1496 415 l 1,85,-1
 1922 444 l 1,86,-1
 1930 327 l 1,87,-1
 2006 333 l 1,88,-1
 2033 -49 l 1,89,-1
 1112 -115 l 2,90,91
 1007 -122 1007 -122 922.5 -126.5 c 128,-1,92
 838 -131 838 -131 800 -131 c 0,93,94
 609 -131 609 -131 469.5 -57.5 c 128,-1,95
 330 16 330 16 243 163 c 1,96,97
 151 260 151 260 106 397 c 128,-1,98
 61 534 61 534 61 713 c 0,99,100
 61 909 61 909 124 1046.5 c 128,-1,101
 187 1184 187 1184 321 1278 c 0,102,103
 402 1333 402 1333 532.5 1363.5 c 128,-1,104
 663 1394 663 1394 929 1412 c 2,73,-1
902 947 m 1,105,106
 752 929 752 929 693.5 858.5 c 128,-1,107
 635 788 635 788 635 635 c 0,108,109
 635 576 635 576 644 519.5 c 128,-1,110
 653 463 653 463 672 411 c 1,111,112
 700 390 700 390 736.5 380 c 128,-1,113
 773 370 773 370 822 370 c 0,114,115
 840 370 840 370 849 370.5 c 128,-1,116
 858 371 858 371 866 372 c 2,117,-1
 949 378 l 1,118,-1
 910 947 l 1,119,-1
 902 947 l 1,105,106
EndSplineSet
Validated: 1
EndChar

StartChar: Ydieresis
Encoding: 376 376 128
Width: 1606
Flags: W
LayerCount: 2
Fore
SplineSet
-74 1476 m 1,0,-1
 427 1441 l 1,1,-1
 431 1486 l 1,2,-1
 355 1490 l 1,3,-1
 384 1904 l 1,4,-1
 1137 1852 l 1,5,-1
 1129 1735 l 1,6,-1
 1204 1729 l 1,7,-1
 1180 1388 l 1,8,-1
 1541 1361 l 1,9,-1
 1457 1249 l 1,10,-1
 1608 1239 l 1,11,-1
 974 374 l 1,12,-1
 937 -135 l 1,13,-1
 465 -102 l 1,14,-1
 473 16 l 1,15,-1
 398 20 l 1,16,-1
 435 528 l 1,17,-1
 -74 1476 l 1,0,-1
2 1427 m 1,18,-1
 477 539 l 1,19,-1
 444 61 l 1,20,-1
 828 33 l 1,21,-1
 863 510 l 1,22,-1
 1459 1324 l 1,23,-1
 1061 1353 l 1,24,-1
 713 818 l 1,25,-1
 670 820 l 1,26,-1
 398 1400 l 1,27,-1
 2 1427 l 1,18,-1
179 1288 m 1,28,-1
 151 1330 l 1,29,-1
 341 1318 l 1,30,-1
 602 763 l 1,31,-1
 567 745 l 1,32,-1
 314 1280 l 1,33,-1
 179 1288 l 1,28,-1
1129 1223 m 1,34,-1
 1108 1266 l 1,35,-1
 1299 1251 l 1,36,-1
 777 543 l 1,37,-1
 749 125 l 1,38,-1
 711 169 l 1,39,-1
 738 557 l 1,40,-1
 1221 1217 l 1,41,-1
 1129 1223 l 1,34,-1
543 1725 m 1,42,-1
 504 1768 l 1,43,-1
 643 1759 l 1,44,-1
 631 1601 l 1,45,-1
 594 1643 l 1,46,-1
 600 1723 l 1,47,-1
 543 1725 l 1,42,-1
425 1860 m 1,48,-1
 402 1531 l 1,49,-1
 713 1508 l 1,50,-1
 734 1837 l 1,51,-1
 425 1860 l 1,48,-1
898 1700 m 1,52,-1
 859 1743 l 1,53,-1
 998 1735 l 1,54,-1
 986 1576 l 1,55,-1
 949 1618 l 1,56,-1
 953 1696 l 1,57,-1
 898 1700 l 1,52,-1
777 1835 m 1,58,-1
 757 1504 l 1,59,-1
 1067 1484 l 1,60,-1
 1090 1813 l 1,61,-1
 777 1835 l 1,58,-1
485 1316 m 1,62,-1
 522 1314 l 1,63,-1
 717 902 l 1,64,-1
 994 1326 l 1,65,-1
 463 1365 l 1,66,-1
 485 1316 l 1,62,-1
EndSplineSet
Validated: 1
EndChar

StartChar: exclamdown
Encoding: 161 161 130
Width: 917
Flags: W
LayerCount: 2
Fore
SplineSet
372 1249 m 1,0,-1
 331 1290 l 1,1,-1
 510 1290 l 1,2,-1
 510 1157 l 1,3,-1
 469 1200 l 1,4,-1
 469 1249 l 1,5,-1
 372 1249 l 1,0,-1
386 719 m 1,6,-1
 349 759 l 1,7,-1
 490 759 l 1,8,-1
 545 127 l 1,9,-1
 500 169 l 1,10,-1
 453 719 l 1,11,-1
 386 719 l 1,6,-1
269 843 m 1,12,-1
 200 43 l 1,13,-1
 639 43 l 1,14,-1
 569 843 l 1,15,-1
 269 843 l 1,12,-1
243 1375 m 1,16,-1
 243 1071 l 1,17,-1
 598 1071 l 1,18,-1
 598 1375 l 1,19,-1
 243 1375 l 1,16,-1
621 767 m 1,20,-1
 686 767 l 1,21,-1
 761 -119 l 1,22,-1
 228 -119 l 1,23,-1
 239 0 l 1,24,-1
 153 0 l 1,25,-1
 228 886 l 1,26,-1
 610 886 l 1,27,-1
 621 767 l 1,20,-1
641 1301 m 1,28,-1
 717 1301 l 1,29,-1
 717 927 l 1,30,-1
 275 927 l 1,31,-1
 275 1030 l 1,32,-1
 200 1030 l 1,33,-1
 200 1416 l 1,34,-1
 641 1416 l 1,35,-1
 641 1301 l 1,28,-1
EndSplineSet
Validated: 1
EndChar

StartChar: cent
Encoding: 162 162 131
Width: 1186
Flags: W
LayerCount: 2
Fore
SplineSet
433 386 m 1,0,1
 492 286 492 286 579.5 236.5 c 128,-1,2
 667 187 667 187 783 187 c 0,3,4
 821 187 821 187 849.5 191 c 128,-1,5
 878 195 878 195 902 204 c 1,6,-1
 902 165 l 1,7,8
 866 155 866 155 836.5 150.5 c 128,-1,9
 807 146 807 146 781 146 c 0,10,11
 653 146 653 146 556.5 201 c 128,-1,12
 460 256 460 256 396 368 c 1,13,-1
 433 386 l 1,0,1
902 931 m 1,14,15
 848 949 848 949 799 958.5 c 128,-1,16
 750 968 750 968 709 970 c 1,17,-1
 709 1009 l 1,18,19
 750 1007 750 1007 797.5 998.5 c 128,-1,20
 845 990 845 990 902 974 c 1,21,-1
 902 931 l 1,14,15
584 1318 m 1,22,-1
 584 1088 l 1,23,24
 357 1059 357 1059 235 924 c 128,-1,25
 113 789 113 789 113 567 c 0,26,27
 113 334 113 334 234 199.5 c 128,-1,28
 355 65 355 65 584 45 c 1,29,-1
 584 -196 l 1,30,-1
 725 -196 l 1,31,-1
 725 41 l 1,32,33
 806 47 806 47 873.5 61 c 128,-1,34
 941 75 941 75 990 96 c 1,35,-1
 990 310 l 1,36,37
 945 289 945 289 899 278 c 128,-1,38
 853 267 853 267 804 267 c 0,39,40
 657 267 657 267 570 349.5 c 128,-1,41
 483 432 483 432 483 571 c 0,42,43
 483 706 483 706 565.5 783.5 c 128,-1,44
 648 861 648 861 790 861 c 0,45,46
 838 861 838 861 888 852.5 c 128,-1,47
 938 844 938 844 990 826 c 1,48,-1
 990 1040 l 1,49,50
 921 1061 921 1061 854.5 1074.5 c 128,-1,51
 788 1088 788 1088 725 1096 c 1,52,-1
 725 1318 l 1,53,-1
 584 1318 l 1,22,-1
541 1361 m 1,54,-1
 767 1361 l 1,55,-1
 767 1243 l 1,56,-1
 843 1243 l 1,57,-1
 843 1118 l 1,58,59
 884 1110 884 1110 932 1098.5 c 128,-1,60
 980 1087 980 1087 1032 1071 c 1,61,-1
 1032 976 l 1,62,-1
 1108 955 l 1,63,-1
 1108 645 l 1,64,65
 1045 674 1045 674 984 688.5 c 128,-1,66
 923 703 923 703 863 703 c 0,67,68
 740 703 740 703 671 636 c 128,-1,69
 602 569 602 569 602 453 c 0,70,71
 602 431 602 431 605 409.5 c 128,-1,72
 608 388 608 388 614 368 c 1,73,74
 648 342 648 342 691.5 329 c 128,-1,75
 735 316 735 316 790 316 c 0,76,77
 853 316 853 316 914.5 331 c 128,-1,78
 976 346 976 346 1032 376 c 1,79,-1
 1032 225 l 1,80,81
 1057 233 1057 233 1075 241 c 128,-1,82
 1093 249 1093 249 1108 257 c 1,83,-1
 1108 -51 l 1,84,85
 1052 -74 1052 -74 985.5 -89.5 c 128,-1,86
 919 -105 919 -105 843 -113 c 1,87,-1
 843 -357 l 1,88,-1
 616 -357 l 1,89,-1
 616 -239 l 1,90,-1
 541 -239 l 1,91,-1
 541 -96 l 1,92,93
 414 -64 414 -64 331.5 0 c 128,-1,94
 249 64 249 64 204 165 c 1,95,96
 139 244 139 244 104.5 346.5 c 128,-1,97
 70 449 70 449 70 567 c 0,98,99
 70 795 70 795 194 941 c 128,-1,100
 318 1087 318 1087 541 1122 c 1,101,-1
 541 1361 l 1,54,-1
EndSplineSet
Validated: 1
EndChar

StartChar: sterling
Encoding: 163 163 132
Width: 1309
Flags: W
LayerCount: 2
Fore
SplineSet
594 925 m 2,0,-1
 594 727 l 1,1,-1
 900 727 l 1,2,-1
 861 688 l 1,3,-1
 553 688 l 1,4,-1
 553 925 l 2,5,6
 553 954 553 954 556 984.5 c 128,-1,7
 559 1015 559 1015 565 1047 c 1,8,-1
 604 1036 l 1,9,10
 599 1010 599 1010 596.5 982 c 128,-1,11
 594 954 594 954 594 925 c 2,0,-1
594 571 m 1,12,-1
 594 212 l 1,13,-1
 1071 212 l 1,14,-1
 1071 127 l 1,15,-1
 1032 153 l 1,16,-1
 1032 171 l 1,17,-1
 553 171 l 1,18,-1
 553 600 l 1,19,-1
 594 571 l 1,12,-1
1071 1270 m 1,20,21
 1031 1279 1031 1279 991.5 1283.5 c 128,-1,22
 952 1288 952 1288 910 1288 c 0,23,24
 875 1288 875 1288 839.5 1286 c 128,-1,25
 804 1284 804 1284 767 1280 c 1,26,-1
 769 1320 l 1,27,28
 779 1321 779 1321 797 1322 c 0,29,30
 868 1328 868 1328 896 1328 c 0,31,32
 937 1328 937 1328 980 1323 c 128,-1,33
 1023 1318 1023 1318 1071 1309 c 1,34,-1
 1071 1270 l 1,20,21
1159 1371 m 1,35,36
 1092 1391 1092 1391 1020.5 1400.5 c 128,-1,37
 949 1410 949 1410 871 1410 c 0,38,39
 717 1410 717 1410 605 1373 c 128,-1,40
 493 1336 493 1336 417 1260 c 0,41,42
 366 1210 366 1210 344.5 1142.5 c 128,-1,43
 323 1075 323 1075 323 953 c 2,44,-1
 323 812 l 1,45,-1
 145 812 l 1,46,-1
 145 586 l 1,47,-1
 323 586 l 1,48,-1
 323 298 l 1,49,-1
 145 298 l 1,50,-1
 145 43 l 1,51,-1
 1159 43 l 1,52,-1
 1159 298 l 1,53,-1
 680 298 l 1,54,-1
 680 586 l 1,55,-1
 988 586 l 1,56,-1
 988 812 l 1,57,-1
 680 812 l 1,58,-1
 680 925 l 2,59,60
 680 1061 680 1061 747.5 1124.5 c 128,-1,61
 815 1188 815 1188 962 1188 c 0,62,63
 1013 1188 1013 1188 1062.5 1180.5 c 128,-1,64
 1112 1173 1112 1173 1159 1159 c 1,65,-1
 1159 1371 l 1,35,36
1202 1406 m 1,66,-1
 1202 1307 l 1,67,-1
 1278 1288 l 1,68,-1
 1278 982 l 1,69,70
 1215 1005 1215 1005 1155.5 1015.5 c 128,-1,71
 1096 1026 1096 1026 1038 1026 c 0,72,73
 923 1026 923 1026 865 985 c 128,-1,74
 807 944 807 944 800 855 c 1,75,-1
 1030 855 l 1,76,-1
 1030 736 l 1,77,-1
 1106 736 l 1,78,-1
 1106 425 l 1,79,-1
 800 425 l 1,80,-1
 800 341 l 1,81,-1
 1202 341 l 1,82,-1
 1202 222 l 1,83,-1
 1278 222 l 1,84,-1
 1278 -119 l 1,85,-1
 177 -119 l 1,86,-1
 177 0 l 1,87,-1
 102 0 l 1,88,-1
 102 341 l 1,89,-1
 280 341 l 1,90,-1
 280 425 l 1,91,-1
 177 425 l 1,92,-1
 177 543 l 1,93,-1
 102 543 l 1,94,-1
 102 855 l 1,95,-1
 280 855 l 1,96,-1
 280 953 l 2,97,98
 280 1084 280 1084 304.5 1159.5 c 128,-1,99
 329 1235 329 1235 386 1290 c 0,100,101
 469 1372 469 1372 590 1412.5 c 128,-1,102
 711 1453 711 1453 871 1453 c 0,103,104
 951 1453 951 1453 1033.5 1441.5 c 128,-1,105
 1116 1430 1116 1430 1202 1406 c 1,66,-1
EndSplineSet
Validated: 1
EndChar

StartChar: currency
Encoding: 164 164 133
Width: 1237
Flags: W
LayerCount: 2
Fore
SplineSet
621 1172 m 0,0,1
 501 1172 501 1172 416 1086.5 c 128,-1,2
 331 1001 331 1001 331 882 c 0,3,4
 331 762 331 762 415 678 c 128,-1,5
 499 594 499 594 621 594 c 0,6,7
 741 594 741 594 825.5 678 c 128,-1,8
 910 762 910 762 910 882 c 0,9,10
 910 1001 910 1001 824.5 1086.5 c 128,-1,11
 739 1172 739 1172 621 1172 c 0,0,1
167 1425 m 1,12,-1
 370 1223 l 1,13,14
 425 1264 425 1264 486.5 1284.5 c 128,-1,15
 548 1305 548 1305 619 1305 c 256,16,17
 690 1305 690 1305 752.5 1284.5 c 128,-1,18
 815 1264 815 1264 869 1223 c 1,19,-1
 1071 1425 l 1,20,-1
 1165 1332 l 1,21,-1
 962 1129 l 1,22,23
 1001 1075 1001 1075 1020.5 1013 c 128,-1,24
 1040 951 1040 951 1040 882 c 0,25,26
 1040 812 1040 812 1020.5 750 c 128,-1,27
 1001 688 1001 688 962 635 c 1,28,-1
 1165 431 l 1,29,-1
 1071 339 l 1,30,-1
 869 543 l 1,31,32
 812 501 812 501 751.5 481 c 128,-1,33
 691 461 691 461 621 461 c 0,34,35
 549 461 549 461 486.5 481.5 c 128,-1,36
 424 502 424 502 370 543 c 1,37,-1
 167 339 l 1,38,-1
 76 431 l 1,39,-1
 278 635 l 1,40,41
 238 688 238 688 218 750 c 128,-1,42
 198 812 198 812 198 882 c 0,43,44
 198 951 198 951 218 1013 c 128,-1,45
 238 1075 238 1075 278 1129 c 1,46,-1
 76 1332 l 1,47,-1
 167 1425 l 1,12,-1
EndSplineSet
Validated: 1
EndChar

StartChar: yen
Encoding: 165 165 134
Width: 1492
Flags: W
LayerCount: 2
Fore
SplineSet
411 653 m 1,0,-1
 433 610 l 1,1,-1
 230 610 l 1,2,-1
 189 653 l 1,3,-1
 411 653 l 1,0,-1
796 127 m 1,4,-1
 755 169 l 1,5,-1
 755 459 l 1,6,-1
 796 431 l 1,7,-1
 796 127 l 1,4,-1
1055 1290 m 1,8,-1
 1219 1290 l 1,9,-1
 892 653 l 1,10,-1
 1223 653 l 1,11,-1
 1223 530 l 1,12,-1
 1182 561 l 1,13,-1
 1182 610 l 1,14,-1
 818 610 l 1,15,-1
 1147 1249 l 1,16,-1
 1081 1249 l 1,17,-1
 1055 1290 l 1,8,-1
257 1249 m 1,18,-1
 189 1290 l 1,19,-1
 361 1290 l 1,20,-1
 614 740 l 1,21,-1
 567 740 l 1,22,-1
 337 1249 l 1,23,-1
 257 1249 l 1,18,-1
49 1375 m 1,24,-1
 376 738 l 1,25,-1
 119 738 l 1,26,-1
 119 463 l 1,27,-1
 516 463 l 1,28,-1
 516 43 l 1,29,-1
 882 43 l 1,30,-1
 882 463 l 1,31,-1
 1292 463 l 1,32,-1
 1292 738 l 1,33,-1
 1030 738 l 1,34,-1
 1359 1375 l 1,35,-1
 998 1375 l 1,36,-1
 715 730 l 1,37,-1
 419 1375 l 1,38,-1
 49 1375 l 1,24,-1
-23 1416 m 1,39,-1
 447 1416 l 1,40,-1
 500 1301 l 1,41,-1
 545 1301 l 1,42,-1
 734 886 l 1,43,-1
 970 1416 l 1,44,-1
 1431 1416 l 1,45,-1
 1369 1301 l 1,46,-1
 1506 1301 l 1,47,-1
 1237 781 l 1,48,-1
 1336 781 l 1,49,-1
 1336 664 l 1,50,-1
 1412 664 l 1,51,-1
 1412 302 l 1,52,-1
 1003 302 l 1,53,-1
 1003 -119 l 1,54,-1
 549 -119 l 1,55,-1
 549 0 l 1,56,-1
 471 0 l 1,57,-1
 471 302 l 1,58,-1
 151 302 l 1,59,-1
 151 421 l 1,60,-1
 76 421 l 1,61,-1
 76 781 l 1,62,-1
 304 781 l 1,63,-1
 -23 1416 l 1,39,-1
EndSplineSet
Validated: 1
EndChar

StartChar: brokenbar
Encoding: 166 166 135
Width: 1020
Flags: W
LayerCount: 2
Fore
SplineSet
423 407 m 1,0,-1
 600 407 l 1,1,-1
 600 -349 l 1,2,-1
 423 -349 l 1,3,-1
 423 407 l 1,0,-1
423 1427 m 1,4,-1
 600 1427 l 1,5,-1
 600 672 l 1,6,-1
 423 672 l 1,7,-1
 423 1427 l 1,4,-1
EndSplineSet
Validated: 1
EndChar

StartChar: section
Encoding: 167 167 136
Width: 1369
Flags: W
LayerCount: 2
Fore
SplineSet
931 1336 m 1,0,-1
 931 1297 l 1,1,2
 877 1306 877 1306 826.5 1310 c 128,-1,3
 776 1314 776 1314 730 1314 c 0,4,5
 718 1314 718 1314 701.5 1313 c 128,-1,6
 685 1312 685 1312 656 1311 c 1,7,-1
 655 1351 l 1,8,9
 674 1353 674 1353 692 1354 c 128,-1,10
 710 1355 710 1355 740 1355 c 0,11,12
 777 1355 777 1355 824.5 1350.5 c 128,-1,13
 872 1346 872 1346 931 1336 c 1,0,-1
990 769 m 1,14,15
 1040 743 1040 743 1065 702 c 128,-1,16
 1090 661 1090 661 1090 602 c 0,17,18
 1090 559 1090 559 1076.5 530 c 128,-1,19
 1063 501 1063 501 1034 481 c 1,20,-1
 1019 520 l 1,21,22
 1033 531 1033 531 1041 550.5 c 128,-1,23
 1049 570 1049 570 1049 598 c 0,24,25
 1049 647 1049 647 1030.5 679 c 128,-1,26
 1012 711 1012 711 972 732 c 1,27,-1
 990 769 l 1,14,15
931 255 m 1,28,29
 993 217 993 217 1019 176.5 c 128,-1,30
 1045 136 1045 136 1045 80 c 0,31,32
 1045 15 1045 15 1009 -29.5 c 128,-1,33
 973 -74 973 -74 898 -102 c 1,34,-1
 886 -61 l 1,35,36
 951 -36 951 -36 978 -3 c 128,-1,37
 1005 30 1005 30 1005 84 c 0,38,39
 1005 126 1005 126 983 157 c 128,-1,40
 961 188 961 188 906 222 c 1,41,-1
 931 255 l 1,28,29
508 808 m 1,42,43
 516 805 516 805 530 800 c 0,44,45
 908 666 908 666 908 541 c 0,46,47
 908 498 908 498 885 461.5 c 128,-1,48
 862 425 862 425 810 386 c 0,49,50
 808 387 808 387 807 387 c 0,51,52
 411 525 411 525 411 653 c 0,53,54
 411 698 411 698 434 735.5 c 128,-1,55
 457 773 457 773 508 808 c 1,42,43
1020 1377 m 1,56,57
 952 1394 952 1394 873.5 1402 c 128,-1,58
 795 1410 795 1410 705 1410 c 0,59,60
 449 1410 449 1410 313 1331.5 c 128,-1,61
 177 1253 177 1253 177 1106 c 0,62,63
 177 1030 177 1030 226 972 c 128,-1,64
 275 914 275 914 386 857 c 1,65,66
 246 821 246 821 182.5 755 c 128,-1,67
 119 689 119 689 119 580 c 0,68,69
 119 479 119 479 186 412.5 c 128,-1,70
 253 346 253 346 417 286 c 0,71,72
 451 273 451 273 514 251 c 0,73,74
 767 165 767 165 767 76 c 0,75,76
 767 17 767 17 714 -17 c 128,-1,77
 661 -51 661 -51 567 -51 c 0,78,79
 488 -51 488 -51 397.5 -39.5 c 128,-1,80
 307 -28 307 -28 204 -4 c 1,81,-1
 204 -196 l 1,82,83
 291 -214 291 -214 382.5 -223 c 128,-1,84
 474 -232 474 -232 569 -232 c 0,85,86
 849 -232 849 -232 990 -153 c 128,-1,87
 1131 -74 1131 -74 1131 84 c 0,88,89
 1131 164 1131 164 1088 225 c 128,-1,90
 1045 286 1045 286 949 341 c 1,91,92
 1066 384 1066 384 1121 445 c 128,-1,93
 1176 506 1176 506 1176 594 c 0,94,95
 1176 654 1176 654 1162.5 696.5 c 128,-1,96
 1149 739 1149 739 1120 773 c 0,97,98
 1062 846 1062 846 827 926 c 0,99,100
 785 940 785 940 763 947 c 0,101,102
 760 948 760 948 754 950 c 0,103,104
 547 1024 547 1024 547 1108 c 0,105,106
 547 1166 547 1166 597 1196.5 c 128,-1,107
 647 1227 647 1227 742 1227 c 0,108,109
 806 1227 806 1227 876.5 1217 c 128,-1,110
 947 1207 947 1207 1020 1188 c 1,111,-1
 1020 1377 l 1,56,57
1065 1410 m 1,112,-1
 1065 1309 l 1,113,114
 1072 1309 1072 1309 1126 1296 c 0,115,116
 1135 1294 1135 1294 1141 1292 c 1,117,-1
 1141 1013 l 1,118,119
 1055 1039 1055 1039 973.5 1053 c 128,-1,120
 892 1067 892 1067 818 1067 c 0,121,122
 758 1067 758 1067 723.5 1056.5 c 128,-1,123
 689 1046 689 1046 678 1024 c 1,124,125
 696 1019 696 1019 729 1007 c 0,126,127
 1158 862 1158 862 1202 713 c 1,128,129
 1249 668 1249 668 1272.5 610.5 c 128,-1,130
 1296 553 1296 553 1296 485 c 0,131,132
 1296 396 1296 396 1255.5 331 c 128,-1,133
 1215 266 1215 266 1137 232 c 1,134,135
 1145 218 1145 218 1151 204 c 128,-1,136
 1157 190 1157 190 1161 175 c 1,137,138
 1207 134 1207 134 1229 81.5 c 128,-1,139
 1251 29 1251 29 1251 -35 c 0,140,141
 1251 -212 1251 -212 1097 -303 c 128,-1,142
 943 -394 943 -394 643 -394 c 0,143,144
 540 -394 540 -394 438.5 -383 c 128,-1,145
 337 -372 337 -372 237 -349 c 1,146,-1
 237 -245 l 1,147,-1
 159 -230 l 1,148,-1
 159 51 l 1,149,150
 277 22 277 22 379 7 c 128,-1,151
 481 -8 481 -8 555 -8 c 0,152,153
 620 -8 620 -8 660.5 5 c 128,-1,154
 701 18 701 18 715 43 c 1,155,156
 409 142 409 142 295.5 213 c 128,-1,157
 182 284 182 284 161 376 c 1,158,159
 118 414 118 414 96 465 c 128,-1,160
 74 516 74 516 74 582 c 0,161,162
 74 688 74 688 129.5 761.5 c 128,-1,163
 185 835 185 835 290 867 c 1,164,165
 212 909 212 909 173.5 968.5 c 128,-1,166
 135 1028 135 1028 135 1106 c 0,167,168
 135 1273 135 1273 284.5 1363 c 128,-1,169
 434 1453 434 1453 709 1453 c 0,170,171
 800 1453 800 1453 889 1442.5 c 128,-1,172
 978 1432 978 1432 1065 1410 c 1,112,-1
594 641 m 1,173,174
 563 618 563 618 547 594 c 128,-1,175
 531 570 531 570 529 542 c 1,176,177
 553 527 553 527 688 477 c 0,178,179
 759 450 759 450 802 435 c 1,180,181
 832 456 832 456 847 479.5 c 128,-1,182
 862 503 862 503 865 533 c 1,183,184
 829 553 829 553 626 629 c 0,185,186
 605 637 605 637 594 641 c 1,173,174
EndSplineSet
Validated: 1
EndChar

StartChar: dieresis
Encoding: 168 168 137
Width: 1020
Flags: W
LayerCount: 2
Fore
SplineSet
500 1888 m 1,0,-1
 547 1560 l 1,1,-1
 855 1603 l 1,2,-1
 810 1930 l 1,3,-1
 500 1888 l 1,0,-1
645 1780 m 1,4,-1
 598 1815 l 1,5,-1
 734 1835 l 1,6,-1
 757 1675 l 1,7,-1
 713 1712 l 1,8,-1
 700 1788 l 1,9,-1
 645 1780 l 1,4,-1
149 1837 m 1,10,-1
 196 1511 l 1,11,-1
 504 1554 l 1,12,-1
 457 1882 l 1,13,-1
 149 1837 l 1,10,-1
294 1731 m 1,14,-1
 247 1766 l 1,15,-1
 384 1784 l 1,16,-1
 407 1626 l 1,17,-1
 359 1661 l 1,18,-1
 349 1739 l 1,19,-1
 294 1731 l 1,14,-1
100 1874 m 1,20,-1
 847 1978 l 1,21,-1
 863 1862 l 1,22,-1
 939 1872 l 1,23,-1
 996 1461 l 1,24,-1
 249 1355 l 1,25,-1
 232 1474 l 1,26,-1
 157 1461 l 1,27,-1
 100 1874 l 1,20,-1
EndSplineSet
Validated: 1
EndChar

StartChar: copyright
Encoding: 169 169 138
Width: 1700
Flags: W
LayerCount: 2
Fore
SplineSet
1202 900 m 1,0,-1
 1036 900 l 1,1,2
 1026 974 1026 974 976.5 1013.5 c 128,-1,3
 927 1053 927 1053 847 1053 c 0,4,5
 748 1053 748 1053 692.5 967 c 128,-1,6
 637 881 637 881 637 729 c 256,7,8
 637 577 637 577 694 495 c 128,-1,9
 751 413 751 413 857 413 c 0,10,11
 937 413 937 413 985.5 456 c 128,-1,12
 1034 499 1034 499 1045 580 c 1,13,-1
 1210 580 l 1,14,15
 1203 445 1203 445 1104 363.5 c 128,-1,16
 1005 282 1005 282 851 282 c 0,17,18
 669 282 669 282 562 400.5 c 128,-1,19
 455 519 455 519 455 723 c 0,20,21
 455 930 455 930 564.5 1053 c 128,-1,22
 674 1176 674 1176 855 1176 c 0,23,24
 1002 1176 1002 1176 1097.5 1099 c 128,-1,25
 1193 1022 1193 1022 1202 900 c 1,0,-1
851 1357 m 0,26,27
 722 1357 722 1357 609 1311 c 128,-1,28
 496 1265 496 1265 409 1176 c 0,29,30
 319 1084 319 1084 270.5 968.5 c 128,-1,31
 222 853 222 853 222 729 c 0,32,33
 222 603 222 603 270 489.5 c 128,-1,34
 318 376 318 376 409 286 c 0,35,36
 498 195 498 195 612.5 147.5 c 128,-1,37
 727 100 727 100 851 100 c 0,38,39
 976 100 976 100 1090.5 148 c 128,-1,40
 1205 196 1205 196 1299 288 c 0,41,42
 1387 376 1387 376 1433.5 488 c 128,-1,43
 1480 600 1480 600 1480 729 c 0,44,45
 1480 857 1480 857 1433 971 c 128,-1,46
 1386 1085 1386 1085 1299 1174 c 0,47,48
 1208 1264 1208 1264 1094.5 1310.5 c 128,-1,49
 981 1357 981 1357 851 1357 c 0,26,27
849 1465 m 0,50,51
 1001 1465 1001 1465 1134.5 1410 c 128,-1,52
 1268 1355 1268 1355 1373 1249 c 0,53,54
 1478 1144 1478 1144 1533 1011 c 128,-1,55
 1588 878 1588 878 1588 729 c 0,56,57
 1588 576 1588 576 1533.5 443.5 c 128,-1,58
 1479 311 1479 311 1375 210 c 0,59,60
 1268 104 1268 104 1132 47 c 128,-1,61
 996 -10 996 -10 849 -10 c 0,62,63
 704 -10 704 -10 570.5 46.5 c 128,-1,64
 437 103 437 103 331 208 c 0,65,66
 224 314 224 314 168.5 448 c 128,-1,67
 113 582 113 582 113 729 c 0,68,69
 113 873 113 873 169.5 1008 c 128,-1,70
 226 1143 226 1143 333 1251 c 0,71,72
 437 1357 437 1357 567.5 1411 c 128,-1,73
 698 1465 698 1465 849 1465 c 0,50,51
EndSplineSet
Validated: 1
EndChar

StartChar: ordfeminine
Encoding: 170 170 139
Width: 1227
Flags: W
LayerCount: 2
Fore
SplineSet
396 828 m 1,0,-1
 711 851 l 1,1,-1
 723 822 l 1,2,-1
 390 800 l 1,3,-1
 396 828 l 1,0,-1
353 1369 m 1,4,-1
 698 1392 l 1,5,-1
 1063 600 l 1,6,-1
 1017 627 l 1,7,-1
 680 1363 l 1,8,-1
 376 1343 l 1,9,-1
 353 1369 l 1,4,-1
686 908 m 1,10,-1
 415 890 l 1,11,-1
 504 1266 l 1,12,-1
 537 1268 l 1,13,-1
 686 908 l 1,10,-1
302 1427 m 1,14,-1
 23 473 l 1,15,-1
 316 492 l 1,16,-1
 370 713 l 1,17,-1
 759 736 l 1,18,-1
 847 526 l 1,19,-1
 1157 547 l 1,20,-1
 740 1455 l 1,21,-1
 302 1427 l 1,14,-1
576 1090 m 1,22,-1
 537 927 l 1,23,-1
 641 935 l 1,24,-1
 576 1090 l 1,22,-1
275 1455 m 1,25,-1
 761 1486 l 1,26,-1
 798 1406 l 1,27,-1
 835 1408 l 1,28,-1
 1280 442 l 1,29,-1
 886 419 l 1,30,-1
 855 498 l 1,31,-1
 824 496 l 1,32,-1
 769 625 l 1,33,-1
 459 604 l 1,34,-1
 405 386 l 1,35,-1
 41 361 l 1,36,-1
 68 447 l 1,37,-1
 -23 440 l 1,38,-1
 275 1455 l 1,25,-1
EndSplineSet
Validated: 1
EndChar

StartChar: guillemotleft
Encoding: 171 171 140
Width: 1309
Flags: W
LayerCount: 2
Fore
SplineSet
867 927 m 1,0,-1
 680 535 l 1,1,-1
 867 141 l 1,2,-1
 1106 141 l 1,3,-1
 933 535 l 1,4,-1
 1106 927 l 1,5,-1
 867 927 l 1,0,-1
925 841 m 1,6,-1
 974 841 l 1,7,-1
 822 535 l 1,8,-1
 974 226 l 1,9,-1
 925 226 l 1,10,-1
 775 535 l 1,11,-1
 925 841 l 1,6,-1
306 927 m 1,12,-1
 119 535 l 1,13,-1
 306 141 l 1,14,-1
 545 141 l 1,15,-1
 372 535 l 1,16,-1
 545 927 l 1,17,-1
 306 927 l 1,12,-1
364 841 m 1,18,-1
 413 841 l 1,19,-1
 261 535 l 1,20,-1
 413 226 l 1,21,-1
 364 226 l 1,22,-1
 214 535 l 1,23,-1
 364 841 l 1,18,-1
1118 851 m 1,24,-1
 1247 851 l 1,25,-1
 1055 417 l 1,26,-1
 1247 -18 l 1,27,-1
 917 -18 l 1,28,-1
 859 100 l 1,29,-1
 841 100 l 1,30,-1
 631 535 l 1,31,-1
 841 970 l 1,32,-1
 1172 970 l 1,33,-1
 1118 851 l 1,24,-1
557 851 m 1,34,-1
 686 851 l 1,35,-1
 494 417 l 1,36,-1
 686 -18 l 1,37,-1
 355 -18 l 1,38,-1
 298 100 l 1,39,-1
 280 100 l 1,40,-1
 70 535 l 1,41,-1
 280 970 l 1,42,-1
 610 970 l 1,43,-1
 557 851 l 1,34,-1
EndSplineSet
Validated: 1
EndChar

StartChar: logicalnot
Encoding: 172 172 141
Width: 1700
Flags: W
LayerCount: 2
Fore
SplineSet
253 859 m 1,0,-1
 1447 859 l 1,1,-1
 1447 359 l 1,2,-1
 1282 359 l 1,3,-1
 1282 694 l 1,4,-1
 253 694 l 1,5,-1
 253 859 l 1,0,-1
EndSplineSet
Validated: 1
EndChar

StartChar: sfthyphen
Encoding: 173 173 142
Width: 783
Flags: W
LayerCount: 2
Fore
SplineSet
463 510 m 1,0,-1
 463 549 l 1,1,-1
 245 549 l 1,2,-1
 204 590 l 1,3,-1
 504 590 l 1,4,-1
 504 485 l 1,5,-1
 463 510 l 1,0,-1
117 676 m 1,6,-1
 117 421 l 1,7,-1
 592 421 l 1,8,-1
 592 676 l 1,9,-1
 117 676 l 1,6,-1
635 600 m 1,10,-1
 711 600 l 1,11,-1
 711 259 l 1,12,-1
 149 259 l 1,13,-1
 149 378 l 1,14,-1
 74 378 l 1,15,-1
 74 719 l 1,16,-1
 635 719 l 1,17,-1
 635 600 l 1,10,-1
EndSplineSet
Validated: 1
EndChar

StartChar: registered
Encoding: 174 174 143
Width: 1700
Flags: W
LayerCount: 2
Fore
SplineSet
727 1043 m 1,0,-1
 727 783 l 1,1,-1
 843 783 l 2,2,3
 943 783 943 783 988.5 813.5 c 128,-1,4
 1034 844 1034 844 1034 910 c 0,5,6
 1034 979 1034 979 986.5 1011 c 128,-1,7
 939 1043 939 1043 835 1043 c 2,8,-1
 727 1043 l 1,0,-1
549 1155 m 1,9,-1
 867 1155 l 2,10,11
 1039 1155 1039 1155 1128 1098 c 128,-1,12
 1217 1041 1217 1041 1217 931 c 0,13,14
 1217 840 1217 840 1169 781 c 128,-1,15
 1121 722 1121 722 1032 703 c 1,16,-1
 1217 329 l 1,17,-1
 1019 329 l 1,18,-1
 855 674 l 1,19,-1
 727 674 l 1,20,-1
 727 329 l 1,21,-1
 549 329 l 1,22,-1
 549 1155 l 1,9,-1
851 1357 m 0,23,24
 723 1357 723 1357 612 1312 c 128,-1,25
 501 1267 501 1267 413 1178 c 0,26,27
 321 1084 321 1084 271.5 968.5 c 128,-1,28
 222 853 222 853 222 729 c 0,29,30
 222 604 222 604 269 491 c 128,-1,31
 316 378 316 378 405 288 c 0,32,33
 494 197 494 197 608 148.5 c 128,-1,34
 722 100 722 100 841 100 c 0,35,36
 971 100 971 100 1087 146.5 c 128,-1,37
 1203 193 1203 193 1296 284 c 0,38,39
 1384 370 1384 370 1432 482 c 128,-1,40
 1480 594 1480 594 1480 719 c 0,41,42
 1480 851 1480 851 1434.5 965 c 128,-1,43
 1389 1079 1389 1079 1301 1170 c 0,44,45
 1208 1262 1208 1262 1094 1309.5 c 128,-1,46
 980 1357 980 1357 851 1357 c 0,23,24
849 1465 m 0,47,48
 1002 1465 1002 1465 1137 1409 c 128,-1,49
 1272 1353 1272 1353 1377 1245 c 0,50,51
 1480 1141 1480 1141 1534 1009 c 128,-1,52
 1588 877 1588 877 1588 729 c 0,53,54
 1588 576 1588 576 1532.5 442.5 c 128,-1,55
 1477 309 1477 309 1371 206 c 0,56,57
 1264 102 1264 102 1129.5 46 c 128,-1,58
 995 -10 995 -10 849 -10 c 256,59,60
 703 -10 703 -10 568 47.5 c 128,-1,61
 433 105 433 105 327 212 c 0,62,63
 222 318 222 318 167.5 450.5 c 128,-1,64
 113 583 113 583 113 729 c 256,65,66
 113 875 113 875 170 1011.5 c 128,-1,67
 227 1148 227 1148 335 1256 c 0,68,69
 438 1359 438 1359 568.5 1412 c 128,-1,70
 699 1465 699 1465 849 1465 c 0,47,48
EndSplineSet
Validated: 1
EndChar

StartChar: macron
Encoding: 175 175 144
Width: 1020
Flags: W
LayerCount: 2
Fore
SplineSet
300 1647 m 1,0,-1
 255 1682 l 1,1,-1
 738 1749 l 1,2,-1
 705 1704 l 1,3,-1
 300 1647 l 1,0,-1
111 1772 m 1,4,-1
 853 1876 l 1,5,-1
 869 1759 l 1,6,-1
 943 1770 l 1,7,-1
 986 1470 l 1,8,-1
 245 1365 l 1,9,-1
 228 1482 l 1,10,-1
 153 1472 l 1,11,-1
 111 1772 l 1,4,-1
159 1735 m 1,12,-1
 189 1521 l 1,13,-1
 845 1612 l 1,14,-1
 816 1827 l 1,15,-1
 159 1735 l 1,12,-1
EndSplineSet
Validated: 1
EndChar

StartChar: degree
Encoding: 176 176 145
Width: 672
Flags: W
LayerCount: 2
Fore
SplineSet
337 1345 m 256,0,1
 260 1345 260 1345 205.5 1291.5 c 128,-1,2
 151 1238 151 1238 151 1161 c 0,3,4
 151 1085 151 1085 205.5 1030.5 c 128,-1,5
 260 976 260 976 337 976 c 256,6,7
 414 976 414 976 467 1030 c 128,-1,8
 520 1084 520 1084 520 1161 c 256,9,10
 520 1238 520 1238 467 1291.5 c 128,-1,11
 414 1345 414 1345 337 1345 c 256,0,1
337 1455 m 0,12,13
 457 1455 457 1455 544 1368.5 c 128,-1,14
 631 1282 631 1282 631 1159 c 0,15,16
 631 1038 631 1038 544 951.5 c 128,-1,17
 457 865 457 865 335 865 c 0,18,19
 212 865 212 865 127.5 950 c 128,-1,20
 43 1035 43 1035 43 1159 c 0,21,22
 43 1284 43 1284 128.5 1369.5 c 128,-1,23
 214 1455 214 1455 337 1455 c 0,12,13
EndSplineSet
Validated: 1
EndChar

StartChar: plusminus
Encoding: 177 177 146
Width: 1700
Flags: W
LayerCount: 2
Fore
SplineSet
253 181 m 1,0,-1
 1447 181 l 1,1,-1
 1447 14 l 1,2,-1
 253 14 l 1,3,-1
 253 181 l 1,0,-1
765 1202 m 1,4,-1
 935 1202 l 1,5,-1
 935 869 l 1,6,-1
 1447 869 l 1,7,-1
 1447 705 l 1,8,-1
 935 705 l 1,9,-1
 935 372 l 1,10,-1
 765 372 l 1,11,-1
 765 705 l 1,12,-1
 253 705 l 1,13,-1
 253 869 l 1,14,-1
 765 869 l 1,15,-1
 765 1202 l 1,4,-1
EndSplineSet
Validated: 1
EndChar

